<svg width="58" height="71" viewBox="0 0 58 71" fill="none" xmlns="http://www.w3.org/2000/svg">
<path d="M19.11 6.42919C18.0333 6.30899 16.9486 6.23845 15.8848 6.047C15.3176 5.94479 14.7303 5.72095 14.2524 5.40066C13.3779 4.81477 12.8892 3.90572 12.6387 2.90022C12.4156 2.00773 12.2788 1.09436 12.1118 0.227051C12.1046 0.262319 12.0859 0.350129 12.0694 0.439379C11.942 1.11667 11.857 1.80476 11.6771 2.46765C11.4792 3.19676 11.2661 3.92156 10.7565 4.53263C9.8079 5.67056 8.54041 6.13193 7.14264 6.35577C6.67984 6.42991 6.2156 6.49253 5.67578 6.5717C6.34659 6.6775 6.93032 6.77179 7.51548 6.86032C9.38612 7.14462 10.6738 8.17028 11.382 9.91856C11.5332 10.2914 11.6462 10.6808 11.7606 11.0673C11.906 11.5603 12.0355 12.0577 12.1716 12.5536C12.3112 12.1282 12.3745 11.7086 12.4868 11.3034C12.7949 10.1935 13.1612 9.09372 14.0458 8.29911C14.8743 7.55488 15.8834 7.10792 16.9659 6.86752C17.7518 6.69334 18.5537 6.58825 19.3749 6.4479C19.2705 6.4407 19.1899 6.43854 19.11 6.42919Z" fill="white"/>
<path d="M9.74926 8.98115C11.0059 10.7913 11.4392 12.8592 11.933 14.9414C12.1144 14.4887 12.2936 14.0346 12.4779 13.5825C12.9191 12.5044 13.3862 11.4362 13.7993 10.348C14.3139 8.99266 15.2964 8.15775 16.6366 7.72517C17.8336 7.33867 19.0478 7.00614 20.2541 6.64914C20.411 6.60236 20.5665 6.54981 20.7277 6.45768C18.7728 5.83078 16.6445 5.71634 14.8408 4.43013C15.0877 4.23724 15.2619 4.07817 15.4569 3.95221C17.9631 2.33708 20.6773 1.22722 23.5909 0.596714C25.4651 0.190772 27.3588 -0.0474675 29.2762 0.00795373C30.3969 0.0403427 31.5168 0.134631 32.6339 0.238276C35.302 0.485872 37.8219 1.26465 40.2316 2.4177C42.3801 3.44623 44.304 4.80441 46.0883 6.37851C47.6984 7.79931 48.8327 9.58718 50.0217 11.3369C50.039 11.3621 50.0397 11.3981 50.0023 11.4643C49.7929 11.2325 49.5863 10.9972 49.3725 10.769C47.5199 8.79329 45.4715 7.0594 43.1063 5.71993C40.6858 4.34952 38.1177 3.37857 35.3682 2.91361C33.9827 2.67897 32.5799 2.59907 31.1829 2.69624C28.591 2.87762 26.0748 3.41528 23.6996 4.51219C23.6578 4.53162 23.6225 4.56473 23.5038 4.64894C24.1818 4.45029 24.7576 4.23004 25.3543 4.11632C26.5224 3.89463 27.6964 3.6528 28.8789 3.56643C30.1522 3.47358 31.4456 3.46494 32.7174 3.57074C34.6053 3.72837 36.4608 4.14367 38.2393 4.80153C43.6886 6.81684 47.7495 10.4041 50.337 15.6281C51.4109 17.7967 52.145 20.0798 52.479 22.4715C52.7424 24.3594 52.7417 26.2618 52.5107 28.1648C52.0327 32.1019 50.5213 35.6063 48.041 38.6689C44.8978 42.5498 40.9463 45.2374 36.0455 46.4185C34.0129 46.9087 31.9436 47.134 29.8564 47.0066C25.1153 46.7179 20.8184 45.2244 17.0879 42.2173C14.9509 40.4942 13.3322 38.3587 11.9042 36.0346C10.6338 33.966 10.0609 31.6678 9.46207 29.3704C8.9712 27.4868 8.92514 25.5557 9.05109 23.6325C9.15978 21.9727 9.37426 20.3144 9.88241 18.7144C9.89249 18.6835 9.87881 18.6453 9.80828 18.5892C9.51534 19.4414 9.20584 20.2892 8.93233 21.1479C8.19962 23.4454 8.02904 25.8134 8.1917 28.1993C8.40691 31.3699 9.44048 34.2878 11.0592 37.0142C12.2993 39.1029 13.8735 40.9081 15.6246 42.5729C15.7808 42.7211 15.9269 42.8795 16.0759 43.035C16.0896 43.0493 16.0889 43.0789 16.1191 43.1919C13.8821 41.5688 11.8286 39.8637 10.184 37.708C8.55086 35.5668 7.20348 33.252 6.38224 30.6933C3.68531 22.2995 5.87553 13.6704 9.74926 8.98115ZM44.9986 17.5182C45.0036 17.5995 45.018 17.6585 45.0086 17.7125C44.7618 19.106 44.5149 20.4987 44.2623 21.8914C44.0607 23.0027 43.8405 24.1111 43.6505 25.2239C43.3237 27.1363 43.0516 29.0595 42.6867 30.9646C42.2801 33.0901 41.7899 35.1997 41.3545 37.3194C41.3041 37.5634 41.204 37.6066 40.9975 37.5929C40.5548 37.5648 40.1122 37.5295 39.6695 37.5252C37.2713 37.5029 34.8723 37.477 32.4741 37.4763C30.1349 37.4763 27.7964 37.5051 25.4572 37.5209C25.3312 37.5216 25.2053 37.5209 25.0513 37.5209C25.4104 35.6445 25.7595 33.8185 26.1122 31.9788C25.4241 31.9788 24.759 32.0299 24.1069 31.9637C23.534 31.9046 23.2116 32.158 22.9021 32.5747C21.7397 34.1395 20.5578 35.6898 19.3897 37.2503C19.2392 37.4511 19.073 37.5303 18.8182 37.5274C17.6428 37.5137 16.4667 37.5166 15.2914 37.5274C15.1417 37.5288 14.992 37.6102 14.7847 37.6713C16.5121 39.6111 18.3043 41.2838 20.4758 42.5592C23.1626 44.1376 26.0517 44.974 29.1193 45.2892C30.6042 45.4418 32.0797 45.349 33.5595 45.1654C35.5259 44.9214 37.4145 44.409 39.2024 43.5755C43.4641 41.5897 46.7915 38.5775 48.9673 34.3835C50.7444 30.9582 51.4512 27.3011 51.141 23.4475C51.0172 21.908 50.7228 20.4044 50.2305 18.9447C49.081 15.5388 47.1053 12.6728 44.4019 10.3228C42.4413 8.61839 40.2503 7.28396 37.7427 6.52462C36.2831 6.08269 34.809 5.66307 33.2817 5.59038C31.7421 5.51696 30.1946 5.49249 28.6608 5.7732C26.76 6.12084 24.9016 6.60236 23.1511 7.43727C20.5722 8.66733 18.3302 10.3436 16.4365 12.4943C14.9725 14.1576 13.7677 15.9729 12.9371 18.0321C11.992 20.3749 11.4968 22.8098 11.3961 25.3311C11.3306 26.9765 11.4558 28.6053 11.7646 30.2197C11.91 30.9819 12.0985 31.7362 12.2857 32.5776C12.5361 32.2876 12.729 32.0795 12.9039 31.8579C15.3302 28.7881 17.776 25.7327 20.1728 22.64C23.0014 18.9901 25.789 15.3085 28.5845 11.6334C28.7285 11.4449 28.8689 11.3909 29.0898 11.3909C31.8731 11.3966 34.6557 11.3952 37.439 11.3952C37.557 11.3952 37.6751 11.3952 37.8204 11.3952C37.4059 13.4523 36.9978 15.4741 36.5853 17.5182C39.3773 17.5182 42.1793 17.5182 44.9986 17.5182ZM35.5676 13.3386C33.6977 13.3386 31.899 13.3335 30.1011 13.3493C29.9686 13.3508 29.806 13.4825 29.711 13.5984C29.1791 14.2454 28.6652 14.9076 28.1419 15.5619C27.0284 16.9553 25.8927 18.3315 24.8022 19.7429C22.8078 22.3261 20.845 24.9331 18.8606 27.5242C17.0066 29.9455 15.1431 32.3595 13.2804 34.7743C13.1451 34.9499 13.0688 35.1083 13.1969 35.3235C13.3192 35.5293 13.4373 35.6639 13.7216 35.6596C15.0769 35.6402 16.4322 35.6467 17.7882 35.6553C18.0041 35.6567 18.1193 35.5819 18.2488 35.4063C19.4955 33.712 20.7529 32.0248 22.024 30.3485C22.1355 30.2017 22.3651 30.0614 22.5415 30.0592C24.3646 30.0354 26.1878 30.0405 28.0116 30.039C28.093 30.039 28.175 30.0498 28.3427 30.0621C28.0577 31.9032 27.777 33.7199 27.4869 35.5977C31.6579 35.5977 35.767 35.5977 39.8862 35.5977C40.1122 34.6116 40.3432 33.6004 40.5858 32.5388C37.7118 32.5388 34.8968 32.5388 32.0473 32.5388C32.2121 31.4879 32.3733 30.4594 32.541 29.3891C35.4028 29.3891 38.2869 29.3891 41.14 29.3891C41.3336 28.2361 41.5207 27.1255 41.7115 25.9911C38.8699 25.9911 36.0182 25.9911 33.1154 25.9911C33.3047 24.8842 33.4875 23.811 33.6761 22.7076C36.5422 22.7076 39.3931 22.7076 42.288 22.7076C42.465 21.587 42.6371 20.4936 42.8141 19.373C39.961 19.373 37.1331 19.373 34.2541 19.373C34.6924 17.3548 35.125 15.3697 35.5676 13.3386Z" fill="black"/>
<path d="M35.6024 56.9959C34.5954 56.9959 33.654 56.9959 32.6334 56.9959C32.6334 58.0762 32.6341 59.117 32.6334 60.1571C32.6334 60.5918 32.6003 60.6249 32.1612 60.6256C31.3004 60.6271 30.4396 60.6263 29.5586 60.6263C29.5586 57.1478 29.5586 53.698 29.5586 50.2172C29.6385 50.2093 29.7292 50.192 29.8191 50.192C30.6346 50.1899 31.4508 50.2021 32.2656 50.1848C32.5499 50.1791 32.642 50.2647 32.6384 50.5519C32.624 51.6316 32.6327 52.7105 32.6327 53.7901C32.6327 53.9197 32.6327 54.0499 32.6327 54.1701C33.6238 54.1701 34.5875 54.1701 35.5865 54.1701C35.5865 53.02 35.5865 51.9202 35.5865 50.8204C35.5865 50.7362 35.5549 50.6332 35.593 50.5728C35.6693 50.4511 35.7809 50.2611 35.8816 50.259C36.8252 50.2352 37.7696 50.2446 38.7369 50.2446C38.7434 50.3705 38.7506 50.4519 38.7506 50.5325C38.7513 53.7232 38.752 56.9131 38.7506 60.1038C38.7506 60.5594 38.6801 60.6263 38.2317 60.6271C37.3687 60.6278 36.5057 60.6271 35.6024 60.6271C35.6024 59.4107 35.6024 58.2072 35.6024 56.9959Z" fill="black"/>
<path d="M49.0352 60.5724C49.0352 57.1291 49.0352 53.6793 49.0352 50.1907C49.3554 50.1907 49.639 50.1907 49.9233 50.1907C51.1109 50.1907 52.3007 50.1453 53.4847 50.2079C54.1649 50.2439 54.8537 50.3944 55.5058 50.5988C56.5904 50.9378 57.1778 51.7914 57.3649 52.8559C57.4779 53.4972 57.4318 54.1882 57.3368 54.8389C57.2217 55.6263 56.6739 56.1682 55.9966 56.6087C56.6574 57.9187 57.3095 59.2107 57.999 60.5767C56.8459 60.5767 55.7613 60.5825 54.6773 60.5667C54.5866 60.5652 54.4672 60.4342 54.4132 60.3356C53.8748 59.3532 53.3343 58.3714 52.8268 57.3738C52.7038 57.1313 52.5792 57.0528 52.2971 57.1342C52.2971 58.2548 52.2971 59.3877 52.2971 60.5739C51.1879 60.5724 50.1162 60.5724 49.0352 60.5724ZM52.2928 54.872C52.87 54.8043 53.4163 54.7748 53.9468 54.6676C54.4506 54.5661 54.5089 54.1047 54.5766 53.6916C54.6385 53.3159 54.4096 53.1006 54.1209 52.9142C53.6121 52.5853 53.0356 52.7228 52.4885 52.6659C52.4302 52.6602 52.3028 52.7904 52.3014 52.8602C52.287 53.5044 52.2928 54.1479 52.2928 54.872Z" fill="black"/>
<path d="M10.6294 60.287C10.2148 59.1995 9.78724 58.1177 9.38633 57.0251C8.60972 54.9083 7.84462 52.7872 7.08528 50.6646C7.07232 50.6286 7.05865 50.5962 7.04425 50.5667C7.04425 50.566 7.04353 50.566 7.04353 50.566C7.02985 50.5365 7.01402 50.5099 6.99746 50.4861C6.99243 50.4782 6.98667 50.471 6.98091 50.4638C6.97515 50.4566 6.9694 50.4494 6.96292 50.4429C6.94564 50.4242 6.92693 50.4077 6.9075 50.3933C6.89814 50.3868 6.88878 50.381 6.87871 50.3753C6.82832 50.3465 6.7693 50.3292 6.69805 50.3213C6.65774 50.317 6.61383 50.3163 6.56561 50.3177C5.67959 50.345 4.79213 50.3458 3.9054 50.327C3.62613 50.3213 3.50521 50.4199 3.42028 50.6689C2.80417 52.4791 2.17654 54.285 1.55683 56.0937C1.42728 56.4723 1.29772 56.8509 1.16816 57.2302C0.780936 58.3682 0.393706 59.5111 0 60.6692C0.0280705 60.6764 0.0475057 60.6829 0.0626206 60.6879C0.0705379 60.6901 0.0770141 60.6922 0.0834919 60.6937C0.0863709 60.6944 0.0892518 60.6951 0.0921308 60.6951C0.0957296 60.6958 0.0986075 60.6966 0.102206 60.6966C0.773738 60.6987 1.44455 60.7016 2.11608 60.6994C2.47524 60.698 2.92509 60.8153 3.16621 60.644C3.39725 60.4799 3.41236 60.0106 3.52248 59.676C3.5268 59.6644 3.53688 59.6536 3.53688 59.6428C3.5412 59.432 3.66932 59.4003 3.84997 59.4017C4.17243 59.4039 4.49559 59.4032 4.81804 59.4024C5.2319 59.4017 5.64576 59.401 6.05962 59.406C6.26979 59.4082 6.47996 59.4118 6.69013 59.4176C6.69877 59.4176 6.70812 59.4183 6.71748 59.4197C6.73835 59.4226 6.75923 59.4284 6.78082 59.4363C6.79737 59.442 6.81465 59.45 6.8312 59.4586C6.83192 59.4586 6.83192 59.4586 6.83264 59.4593C6.86143 59.4737 6.89022 59.4917 6.91757 59.5126C6.955 59.5399 6.99027 59.5716 7.02194 59.6054C7.03849 59.622 7.05289 59.6392 7.06656 59.6565C7.08024 59.6738 7.09175 59.6911 7.10255 59.7076C7.2501 59.948 7.31632 60.2359 7.45163 60.4857C7.45307 60.4886 7.45451 60.4914 7.45595 60.4943C7.45811 60.4972 7.46027 60.5008 7.46243 60.5044C7.47466 60.5224 7.48906 60.5411 7.50633 60.5584C7.56319 60.6167 7.64237 60.6678 7.7129 60.6843C7.7273 60.6879 7.74169 60.6901 7.75537 60.6901C8.74647 60.7059 9.73758 60.6994 10.7733 60.6994C10.7136 60.5274 10.6747 60.4058 10.6294 60.287ZM4.17458 57.146C4.53374 55.8361 4.88714 54.5427 5.24126 53.25C5.26357 53.2557 5.28589 53.2615 5.3082 53.2672C5.65872 54.5506 6.00852 55.8339 6.36624 57.146H4.17458Z" fill="black"/>
<path d="M40.4219 60.5927C40.4219 57.1263 40.4219 53.678 40.4219 50.2095C42.7913 50.2095 45.1449 50.2095 47.4805 50.2095C47.4805 51.0833 47.4805 51.9412 47.4805 52.8351C46.1331 52.8351 44.8325 52.8351 43.4916 52.8351C43.4916 53.3296 43.4916 53.7874 43.4916 54.2603C44.7246 54.2603 45.928 54.2603 47.1523 54.2603C47.1523 55.0469 47.1523 55.8308 47.1523 56.6671C46.1079 56.6671 45.0801 56.6671 44.053 56.6671C43.5017 56.6671 43.5017 56.6671 43.5017 57.2156C43.5017 57.5006 43.5017 57.7849 43.5017 58.0872C44.8901 58.0872 46.2166 58.0872 47.5583 58.0872C47.5583 58.9228 47.5583 59.7412 47.5583 60.5927C45.16 60.5927 42.8057 60.5927 40.4219 60.5927Z" fill="black"/>
<path d="M18.763 50.2852C18.763 51.1388 18.763 51.9507 18.763 52.8194C17.4638 52.8194 16.2114 52.8194 14.9346 52.8194C14.9346 53.3103 14.9346 53.745 14.9346 54.1999C16.1107 54.1999 17.2673 54.1999 18.442 54.1999C18.442 55.001 18.442 55.787 18.442 56.6327C17.2544 56.6327 16.0869 56.6327 14.9152 56.6327C14.9152 57.1653 14.9152 57.6375 14.9152 58.1463C15.1966 58.1463 15.4449 58.1492 15.6925 58.1456C16.5677 58.1341 17.4429 58.1183 18.3182 58.1082C18.7975 58.1024 18.8112 58.1183 18.8112 58.5789C18.8119 59.2468 18.8112 59.9155 18.8112 60.6086C16.4511 60.6086 14.1911 60.6086 11.8555 60.6086C11.8555 57.1732 11.8555 53.7414 11.8555 50.2852C14.1292 50.2852 16.4468 50.2852 18.763 50.2852Z" fill="black"/>
<path d="M28.45 50.1895C28.45 51.1431 28.45 52.0507 28.45 52.9979C27.5712 52.9979 26.7039 52.9979 25.7344 52.9979C25.7344 55.5567 25.7344 58.0765 25.7344 60.6079C24.618 60.6079 23.6039 60.6079 22.5646 60.6079C22.5646 58.1003 22.5646 55.6107 22.5646 53.0822C21.6497 53.0447 20.7594 53.008 19.8669 52.972C19.8669 52.1407 19.8554 51.3072 19.8734 50.4745C19.8791 50.2089 20.1066 50.1945 20.3261 50.1952C22.4005 50.1967 24.4748 50.1931 26.5491 50.1909C27.1717 50.1895 27.7936 50.1895 28.45 50.1895Z" fill="black"/>
<path d="M12.1126 0.227051C12.2795 1.09364 12.417 2.00773 12.6387 2.90022C12.8892 3.90572 13.3779 4.81477 14.2524 5.40066C14.7296 5.72023 15.3169 5.94479 15.8848 6.047C16.9486 6.23773 18.034 6.30899 19.11 6.42919C19.1899 6.43782 19.2705 6.4407 19.3749 6.4479C18.5537 6.58825 17.7518 6.69334 16.9659 6.86752C15.8826 7.10792 14.8743 7.55488 14.0458 8.29911C13.1612 9.09372 12.7949 10.1935 12.4868 11.3034C12.3745 11.7086 12.3112 12.1282 12.1716 12.5536C12.0355 12.0577 11.9067 11.5603 11.7606 11.0673C11.6462 10.6808 11.5332 10.2914 11.382 9.91856C10.6738 8.16956 9.38684 7.14462 7.51548 6.86032C6.93104 6.77179 6.34659 6.67678 5.67578 6.5717C6.2156 6.49253 6.67984 6.42991 7.14264 6.35577C8.53969 6.13265 9.80718 5.67056 10.7565 4.53263C11.2661 3.92156 11.4792 3.19604 11.6771 2.46765C11.857 1.80476 11.942 1.11667 12.0694 0.439379C12.0866 0.350849 12.1054 0.262319 12.1126 0.227051Z" fill="black"/>
<path d="M29.0353 70.522C29.0353 69.9059 29.0353 69.369 29.0353 68.8321C29.0353 67.0233 29.0346 65.2146 29.0361 63.4058C29.0361 62.9308 29.0397 62.9236 29.5183 62.9322C30.151 62.943 30.7872 62.9293 31.4148 62.9927C32.5823 63.1107 32.9486 63.8895 32.9818 64.8273C33.0278 66.1315 33.0041 67.4386 32.989 68.7435C32.9782 69.6663 32.3908 70.3004 31.4055 70.4047C30.6375 70.4868 29.8602 70.4846 29.0353 70.522ZM30.3439 69.3481C30.6058 69.3481 30.8326 69.3625 31.0571 69.3452C31.471 69.3136 31.6862 69.1308 31.6927 68.7212C31.7107 67.489 31.7157 66.2553 31.684 65.0231C31.6761 64.7064 31.5948 64.3177 31.1881 64.2386C30.9168 64.1853 30.6274 64.2285 30.3439 64.2285C30.3439 65.9523 30.3439 67.625 30.3439 69.3481Z" fill="black"/>
<path d="M40.9149 69.0195C40.7652 70.3582 39.8519 70.6994 38.647 70.5972C37.6364 70.5108 37.1319 70.0199 36.9714 69.2088C36.9138 68.9173 36.8843 68.6157 36.8814 68.3192C36.8713 67.1567 36.844 65.9929 36.8857 64.8319C36.9246 63.7689 37.3709 62.9958 38.3137 62.8317C39.0738 62.6993 39.8151 62.7482 40.4154 63.337C40.7623 63.6774 40.8818 64.1194 40.8969 64.5714C40.9264 65.4372 40.9149 68.1522 40.9149 69.0195L40.9113 67.2028C40.9437 67.3266 40.9149 68.4358 40.9149 69.0195ZM39.6115 66.7767C39.6107 66.7767 39.6107 66.7767 39.61 66.7767C39.61 66.0706 39.6266 65.3646 39.6043 64.6592C39.5884 64.151 39.3307 63.9373 38.8226 63.9373C38.3713 63.9373 38.1784 64.1129 38.1619 64.6318C38.1273 65.7072 38.1079 66.7832 38.11 67.8585C38.1108 68.1997 38.1705 68.548 38.2547 68.8798C38.3562 69.2822 38.7046 69.4801 39.1019 69.4175C39.4495 69.3628 39.6093 69.1339 39.61 68.6783C39.6129 68.0449 39.6115 67.4108 39.6115 66.7767Z" fill="black"/>
<path d="M23.5634 62.9375C24.0356 62.9375 24.4538 62.9375 24.9317 62.9375C24.9317 63.0649 24.9317 63.1901 24.9317 63.3147C24.9317 64.7167 24.9266 66.1188 24.9353 67.5209C24.9374 67.9153 24.9633 68.3112 25.0123 68.7027C25.0548 69.0489 25.2577 69.298 25.6075 69.3851C25.8472 69.4448 26.0941 69.4484 26.2467 69.2044C26.3129 69.0986 26.3726 68.9676 26.3762 68.846C26.3899 68.3436 26.3805 67.8405 26.3805 67.3374C26.3805 65.8878 26.3805 64.4375 26.3805 62.9584C26.793 62.9584 27.2047 62.9584 27.6675 62.9584C27.6675 63.0735 27.6675 63.2002 27.6675 63.3269C27.6675 65.1126 27.6747 66.8983 27.6653 68.6833C27.6574 70.2459 26.6497 70.6677 25.4154 70.6173C25.2268 70.6094 25.0368 70.5705 24.8532 70.5237C24.1227 70.3366 23.7232 69.8587 23.6419 69.0317C23.5908 68.5091 23.5663 67.9823 23.5627 67.4568C23.5533 66.0785 23.5627 64.7009 23.5641 63.3226C23.5634 63.2052 23.5634 63.0879 23.5634 62.9375Z" fill="black"/>
<path d="M16.4779 65.2026C16.4017 64.9327 16.3484 64.6743 16.2548 64.4324C16.1404 64.1373 15.8964 64.0301 15.589 64.079C15.2896 64.1272 15.1889 64.3619 15.15 64.6138C15.0931 64.9816 15.2356 65.2954 15.4984 65.5488C15.9381 65.972 16.4067 66.3671 16.822 66.8127C17.315 67.341 17.7174 67.9376 17.7318 68.6991C17.7505 69.7097 17.2769 70.3488 16.2901 70.5158C15.8482 70.5907 15.3479 70.5561 14.9197 70.4244C14.0293 70.1509 13.6723 69.3951 13.8098 68.2543C14.0034 68.2543 14.2035 68.2543 14.4036 68.2543C14.5922 68.2543 14.7815 68.2543 14.9693 68.2543C14.9981 68.476 15.042 68.6631 15.0428 68.8503C15.0449 69.3016 15.3738 69.4484 15.7128 69.5074C15.9007 69.5398 16.1764 69.4606 16.3095 69.3282C16.5607 69.0784 16.5938 68.725 16.4441 68.3954C16.113 67.6677 15.5531 67.1394 14.9254 66.6629C14.1575 66.0807 13.7234 65.3314 13.8235 64.3237C13.948 63.0678 15.0982 62.6597 16.0043 62.8144C17.2344 63.0239 17.6691 63.6392 17.595 64.8974C17.5821 65.1162 17.4856 65.1997 17.287 65.2011C17.0242 65.204 16.7615 65.2026 16.4779 65.2026Z" fill="black"/>
<path d="M41.668 68.2698C42.166 68.2698 42.5209 68.2698 42.8908 68.2698C42.9211 68.4828 42.9419 68.6937 42.983 68.9003C43.0593 69.2861 43.4638 69.5862 43.8013 69.5185C44.1626 69.4466 44.4196 68.9945 44.3196 68.5872C44.167 67.9675 43.7646 67.5226 43.3033 67.1066C42.8887 66.7338 42.4568 66.3602 42.1286 65.9162C41.637 65.2518 41.6637 64.4781 41.9271 63.7267C42.1819 63.0004 43.0578 62.6197 43.9309 62.8133C44.8493 63.017 45.5201 63.9404 45.438 64.8876C45.4193 65.1064 45.3373 65.2439 45.081 65.2266C44.8313 65.2101 44.5794 65.223 44.3023 65.223C44.249 64.9848 44.203 64.7537 44.1447 64.5256C44.0381 64.1074 43.7099 63.8519 43.4163 63.9505C43.1024 64.0549 42.9398 64.4738 43.0499 64.8531C43.2478 65.534 43.7473 65.9773 44.2548 66.4185C44.9911 67.0591 45.5352 67.7976 45.5187 68.8355C45.5035 69.7827 44.8529 70.4859 43.905 70.5557C43.1471 70.6118 42.4259 70.483 42.0494 69.7582C41.8278 69.335 41.7982 68.8125 41.668 68.2698Z" fill="black"/>
<path d="M20.0092 64.2193C19.5176 64.2193 19.0771 64.2193 18.6172 64.2193C18.6172 63.7939 18.6172 63.3923 18.6172 62.9604C19.9473 62.9604 21.258 62.9604 22.6334 62.9604C22.6046 63.3628 22.5751 63.7702 22.5442 64.2063C22.1195 64.2063 21.715 64.2063 21.2954 64.2063C21.2954 66.326 21.2954 68.4169 21.2954 70.533C20.8895 70.533 20.4641 70.533 20.0092 70.533C20.0092 68.4507 20.0092 66.3606 20.0092 64.2193Z" fill="black"/>
<path d="M34.2856 70.4608C34.2856 68.0396 34.2885 65.6334 34.2813 63.2273C34.2805 62.9811 34.3396 62.8861 34.6051 62.9084C34.9362 62.9365 35.2716 62.9149 35.6653 62.9149C35.6653 65.4441 35.6653 67.9395 35.6653 70.4608C35.2587 70.4608 34.811 70.4608 34.2856 70.4608Z" fill="black"/>
<path d="M30.8506 18.3146C30.2554 21.0612 29.6601 23.8085 29.0627 26.5658C27.5714 26.5658 26.0664 26.5658 24.5117 26.5658C26.6156 23.7811 28.6942 21.0302 30.7729 18.2793C30.7988 18.2915 30.8247 18.3031 30.8506 18.3146Z" fill="black"/>
</svg>
