<svg width="121" height="24" viewBox="0 0 121 24" fill="none" xmlns="http://www.w3.org/2000/svg">
<g clip-path="url(#clip0_6_1114)">
<path d="M11.0017 23.8821C11.2296 23.8821 11.3272 23.752 11.3923 23.5568L13.4755 17.2132L15.5587 23.5568C15.6238 23.752 15.7214 23.8821 15.9493 23.8821H26.5931C26.8535 23.8821 26.9837 23.7194 26.886 23.4592L18.9764 0.362178C18.9439 0.232054 18.8137 0.166992 18.6835 0.166992H8.33263C8.16988 0.166992 8.07223 0.232054 8.00713 0.362178L0.0324212 23.4592C-0.0652283 23.7194 0.064971 23.8821 0.32537 23.8821H11.0017ZM51.6222 23.8821C51.7846 23.8821 51.9145 23.752 51.9145 23.5893V13.9276C51.9145 13.7649 51.7846 13.6348 51.6222 13.6348H46.1999C46.1674 13.6348 46.07 13.6348 46.0376 13.5698C46.0051 13.5047 46.0376 13.4396 46.07 13.3746L51.8495 0.785081C52.0443 0.362178 51.817 0.166992 51.5573 0.166992H28.8939C28.7315 0.166992 28.6017 0.329647 28.6017 0.492302V10.154C28.6017 10.3167 28.7315 10.4468 28.8939 10.4468H34.3812C34.4136 10.4468 34.511 10.4468 34.5435 10.5118C34.576 10.5769 34.5435 10.642 34.511 10.707L28.6666 23.2965C28.4718 23.6869 28.6991 23.8821 28.9588 23.8821H51.6222ZM65.9203 23.8821C72.532 23.8821 78.0037 18.6446 78.0037 12.1059V0.492302C78.0037 0.297116 77.8734 0.166992 77.678 0.166992H67.0603C66.8974 0.166992 66.7671 0.297116 66.7671 0.492302V11.9107C66.7671 12.3986 66.3763 12.7565 65.9203 12.7565C65.4643 12.7565 65.0735 12.3986 65.0735 11.9107V0.492302C65.0735 0.297116 64.9432 0.166992 64.7804 0.166992H54.1626C53.9672 0.166992 53.8369 0.297116 53.8369 0.492302V12.1059C53.8369 18.6446 59.3087 23.8821 65.9203 23.8821ZM91.5474 23.8821C91.7421 23.8821 91.8719 23.752 91.8719 23.5568V15.7819H92.7803L96.0248 23.5568C96.1222 23.752 96.187 23.8821 96.4466 23.8821H107.445C107.673 23.8821 107.737 23.7845 107.608 23.4917L102.806 12.0733L107.608 0.557364C107.737 0.264585 107.673 0.166992 107.445 0.166992H96.4791C96.2195 0.166992 96.1546 0.297116 96.0573 0.492302L92.7154 8.49492H91.8719V0.492302C91.8719 0.329647 91.7421 0.166992 91.5474 0.166992H80.8406C80.6459 0.166992 80.5161 0.264585 80.5161 0.492302V23.5568C80.5161 23.752 80.6459 23.8821 80.8406 23.8821H91.5474ZM120.509 23.8821C120.672 23.8821 120.834 23.7519 120.834 23.5568V0.492123C120.834 0.329465 120.672 0.166992 120.509 0.166992H109.793C109.631 0.166992 109.468 0.329465 109.468 0.492123V23.5568C109.468 23.7519 109.631 23.8821 109.793 23.8821H120.509Z" fill="black"/>
</g>
<defs>
<clipPath id="clip0_6_1114">
<rect width="120.834" height="23.7151" fill="white"/>
</clipPath>
</defs>
</svg>
