<svg width="126" height="40" viewBox="0 0 126 40" fill="none" xmlns="http://www.w3.org/2000/svg">
<path d="M23.2438 4.22565C21.6871 6.56086 20.3865 8.51411 20.352 8.57213C20.288 8.66883 20.2978 8.67366 20.7905 8.75585C21.5393 8.87672 22.7708 9.18132 23.6133 9.46173C24.0221 9.59227 24.367 9.70347 24.3818 9.70347C24.4015 9.70347 24.5345 9.54393 24.6872 9.35053L24.9581 8.99276L25.5197 8.96375C25.8252 8.94441 26.4755 8.9154 26.9582 8.9009C27.707 8.87189 27.8351 8.87672 27.8006 8.93474C27.776 8.97342 27.4952 9.35537 27.175 9.78567C26.8548 10.2208 26.5937 10.5882 26.5937 10.6076C26.5937 10.6318 26.9385 10.8106 27.3573 11.0185L28.1159 11.386L28.4263 11.0185C28.8795 10.477 29.6135 9.77116 30.0815 9.42789C30.8254 8.87672 31.4806 8.55763 32.2984 8.34006C32.8452 8.19502 34.1063 8.16117 34.6778 8.27721C36.8109 8.69784 37.5104 10.6173 36.3429 12.8461C35.5153 14.4271 34.1408 15.4134 31.9486 16.008L31.3673 16.1628L31.8205 16.4238C32.5644 16.859 33.0176 17.4198 33.2245 18.1692C33.328 18.5463 33.3428 19.5471 33.2541 19.9774C33.0226 21.0362 32.5004 22.0661 31.7023 23.033C31.52 23.2554 31.387 23.4343 31.4067 23.4343C31.5496 23.4343 33.2393 22.2014 34.1605 21.4279C36.072 19.8179 37.5449 18.2997 38.6386 16.7961C38.8258 16.5399 39.013 16.3271 39.0475 16.3271C39.0869 16.3271 39.6386 16.2933 40.2741 16.2546C40.9145 16.2111 41.4417 16.1869 41.4564 16.1966C41.4663 16.2111 41.087 16.8058 40.6042 17.5165C37.6632 21.9017 37.1952 22.6656 37.1459 23.1539C37.1163 23.4585 37.1902 23.531 37.5548 23.531C38.3381 23.531 40.0032 22.2449 41.3628 20.5769C41.8111 20.0258 42.1215 19.5955 43.3235 17.8453C43.8851 17.033 44.363 16.361 44.3975 16.3513C44.4664 16.3271 46.8606 16.1869 46.8803 16.2063C46.8853 16.2111 46.2744 17.1539 45.5157 18.2997C43.9639 20.635 43.3285 21.6599 43.0181 22.2981C42.5501 23.2602 42.6437 23.6519 43.3038 23.531C44.225 23.3569 45.6488 22.0661 47.7227 19.5181C48.5701 18.4835 48.9987 18.0242 49.5948 17.5213C50.8362 16.477 51.9742 15.9597 53.255 15.863C53.7181 15.8292 54.2354 15.8968 54.5556 16.0371C54.792 16.1338 55.1418 16.4335 55.265 16.6317L55.3536 16.7719L55.6985 16.2208C57.6542 13.1168 59.9893 9.3457 59.9696 9.31669C59.9548 9.29735 59.8957 9.26834 59.8366 9.25867C59.7134 9.22966 26.2045 0.0338783 26.1208 3.62396e-05C26.0912 -0.00963402 24.7956 1.89044 23.2438 4.22565Z" fill="black"/>
<path d="M98.6159 4.43553C83.5659 6.87226 69.4766 9.15429 67.309 9.50723C65.1414 9.85533 63.3285 10.1551 63.2842 10.1648C63.2054 10.1889 63.1955 10.1116 63.1857 9.20747L63.1709 8.22601L62.3137 9.57975C60.7767 12.002 56.6238 18.6498 56.1164 19.4911C54.7321 21.7924 54.3281 22.6144 54.3281 23.1414C54.3281 23.3396 54.3478 23.3928 54.4661 23.4798C54.8651 23.7892 55.8208 23.2574 57.1558 21.981C58.55 20.6466 60.3678 18.529 61.6142 16.7836C61.7866 16.5419 61.9344 16.3388 61.9442 16.3291C61.959 16.3146 64.3434 16.1841 64.3631 16.1986C64.368 16.2034 63.7226 17.1655 62.9295 18.3404C60.757 21.5459 60.0427 22.7546 60.0427 23.2042C60.0427 23.5136 60.156 23.6007 60.5205 23.562C61.7423 23.4363 63.836 21.309 66.3287 17.6539C66.7622 17.0157 67.1415 16.4548 67.1662 16.4065C67.2105 16.3291 67.3583 16.3146 68.3977 16.2566C69.0431 16.2179 69.585 16.1986 69.5948 16.2034C69.6047 16.2131 69.181 16.9045 68.6588 17.7361C66.2302 21.6039 65.772 22.4355 65.7227 23.0688C65.6932 23.4556 65.7572 23.5378 66.107 23.5668C66.6243 23.6055 67.3287 23.2816 68.112 22.6385C69.0726 21.8505 70.1318 20.4967 70.6836 19.3557C70.9151 18.8674 70.92 18.8577 70.9447 18.2582C70.9644 17.8424 71.0087 17.5088 71.0924 17.1897C71.3634 16.1647 71.7575 15.7296 72.4324 15.7248C72.7871 15.7248 73.0186 15.8263 73.0876 16.0245C73.2009 16.3485 72.7132 17.591 71.9693 18.8626L71.7181 19.288L71.8659 19.5104C72.1023 19.873 72.4226 20.1244 72.8856 20.3033L73.0925 20.3807L73.398 19.8779C74.0926 18.7369 75.3192 17.4218 76.2897 16.7884C77.3193 16.1116 78.1814 15.8311 79.2061 15.8263C79.6593 15.8263 79.8761 15.8456 80.0337 15.9037C80.5707 16.1019 80.7579 16.3871 80.753 16.977C80.7481 17.6442 80.4131 18.234 79.6298 18.9738C78.6347 19.9069 77.2701 20.5741 75.7528 20.8787L75.2109 20.9899L75.1074 21.2074C74.5064 22.5128 74.5704 23.3541 75.2848 23.5765C75.5261 23.6538 76.2158 23.6152 76.5952 23.4991C78.1519 23.0398 80.0682 21.4057 82.3787 18.558C82.9403 17.8666 83.9157 16.5805 84.0241 16.3871C84.0487 16.3485 84.428 16.3098 85.2409 16.2614C85.8912 16.2179 86.4331 16.1938 86.4429 16.2034C86.4528 16.2131 85.8123 17.2284 85.0192 18.4613C84.2261 19.6941 83.4034 20.9947 83.1915 21.3525C82.2457 22.9721 82.1471 23.5765 82.8319 23.5765C83.3344 23.5765 84.2261 23.0302 85.4626 21.9665C86.1375 21.3815 88.8076 18.7707 90.1229 17.4025C90.8717 16.6192 91.0737 16.3823 91.1229 16.2179C91.2806 15.7103 91.5909 15.2751 91.9259 15.1108C92.3939 14.8787 92.9457 14.9754 93.1132 15.3235C93.3349 15.7731 93.123 16.2663 92.6107 16.5032C92.3742 16.6095 92.3052 16.6676 92.2806 16.7788C92.2658 16.8513 92.2806 17.4411 92.3102 18.0842C92.3841 19.5153 92.3594 20.5644 92.2314 21.0624C92.1772 21.2606 92.0392 21.6232 91.9161 21.865C91.7141 22.2711 91.7042 22.3001 91.8175 22.2227C92.0934 22.0245 93.724 20.5934 95.3891 19.0801C96.3646 18.1954 97.3547 17.3251 97.5863 17.1462C98.3597 16.5612 99.1923 16.1406 100.01 15.9327C100.527 15.7973 101.483 15.7828 101.808 15.9037C102.35 16.1067 102.532 16.3823 102.527 17.0012C102.527 17.4895 102.394 17.8424 102.045 18.3259C101.222 19.4572 99.207 20.5837 97.4483 20.898L97 20.9754L96.8523 21.2993C96.5961 21.8456 96.4779 22.3049 96.4729 22.7401C96.4729 23.1655 96.5271 23.2912 96.8128 23.4991C96.9311 23.5862 97.0148 23.6007 97.473 23.5958C97.9311 23.591 98.0494 23.5717 98.3991 23.4459C99.079 23.1945 99.6209 22.8513 100.453 22.1406C101.04 21.6426 101.715 20.8883 102.931 19.3944C104.739 17.1655 105.316 16.595 106.158 16.2034C106.922 15.8553 107.754 15.8747 108.217 16.2566C108.759 16.7014 108.685 17.446 107.966 18.8384C107.725 19.3025 107.547 19.6603 107.572 19.6361C107.597 19.6071 107.838 19.3267 108.109 19.0076C109.488 17.3783 110.543 16.4355 111.395 16.0874C111.646 15.981 111.774 15.9617 112.163 15.9617C112.582 15.9617 112.656 15.9762 112.858 16.0922C113.075 16.2179 113.247 16.4548 113.247 16.624C113.247 16.6579 113.119 16.7401 112.961 16.8078C112.769 16.89 112.572 17.0302 112.336 17.2671C111.764 17.8279 111.459 18.4516 111.454 19.056C111.454 19.4041 111.557 19.6265 111.779 19.7377C112.001 19.8489 112.523 19.8102 112.809 19.6555C113.03 19.5346 113.385 19.0076 125.026 1.51531C125.573 0.698227 126.011 0.0213547 126.001 0.0116863C125.992 0.0068512 113.666 1.99395 98.6159 4.43553ZM88.4331 11.4605C88.8026 11.6104 89.044 12.0697 88.9898 12.5193C88.9307 13.0221 88.6105 13.5008 88.1721 13.7328C87.507 14.0906 86.7139 13.844 86.5464 13.23C86.369 12.5918 86.8567 11.6974 87.4971 11.4702C87.7632 11.3783 88.2262 11.3735 88.4331 11.4605Z" fill="black"/>
<path d="M32.1403 9.21248C31.4211 9.41554 30.7807 9.81199 30.0072 10.5469C29.5589 10.9675 28.8643 11.7266 28.8643 11.7943C28.8643 11.8039 29.1796 12.0215 29.5688 12.2777C29.953 12.5291 30.3472 12.7999 30.4506 12.8773L30.628 13.0175L30.4309 13.264L30.2388 13.5106L29.8299 13.2205C29.6082 13.061 29.2042 12.7902 28.9333 12.621L28.4456 12.3213L28.3618 12.4228C28.0663 12.7806 23.5439 19.3317 23.5439 19.3994C23.5439 19.4139 23.6375 19.3704 23.7557 19.3027C24.0759 19.119 24.7016 18.8869 25.2139 18.7612C25.6819 18.65 26.677 18.5291 26.7559 18.5775C26.8248 18.621 26.8051 19.177 26.7361 19.1963C26.7017 19.206 26.4406 19.2398 26.1548 19.264C23.736 19.5106 21.9379 21.1157 21.7852 23.1657C21.7064 24.2874 22.2236 25.0126 23.268 25.2205C23.6621 25.2978 24.5686 25.2882 25.0513 25.1963C26.2681 24.9691 27.2682 24.4179 28.3027 23.4074C29.352 22.3825 30.091 21.1206 30.421 19.7862C30.8004 18.2294 30.49 17.0352 29.5786 16.5952C29.1008 16.368 28.7215 16.3196 27.5736 16.3341L26.5539 16.3486L26.6327 16.2278C26.677 16.1601 26.81 15.9715 26.9283 15.8023L27.145 15.5025H27.948C30.2486 15.5025 31.2782 15.1786 32.4359 14.0908C33.0024 13.559 33.3966 13.0513 33.7168 12.4276C34.5345 10.8611 34.4114 9.47839 33.431 9.19314C33.1059 9.09644 32.5098 9.10611 32.1403 9.21248Z" fill="black"/>
<path d="M16.2278 9.25118C13.9864 9.5461 12.4296 10.4937 12.006 11.8233C11.8877 12.2052 11.8188 12.9401 11.9074 12.9401C11.937 12.9401 11.9616 12.9015 11.9616 12.8483C11.9616 12.7999 12.0405 12.6017 12.139 12.4131C12.9666 10.7886 15.4495 9.92322 18.7255 10.1214C19.0161 10.136 19.2526 10.165 19.2526 10.1795C19.2526 10.194 18.5137 11.3205 17.6121 12.6742L15.9667 15.14L16.218 15.1545C16.755 15.1883 17.9176 14.9901 18.76 14.7242C19.4004 14.5211 20.5138 13.9699 21.0507 13.5928C21.8833 13.0078 22.2675 12.6065 23.1493 11.4172C23.5927 10.8128 23.9523 10.3052 23.9474 10.2907C23.9326 10.2375 22.7109 9.8507 21.9966 9.67181C20.6024 9.32854 19.2083 9.16416 17.7057 9.17383C17.1885 9.17866 16.5234 9.2125 16.2278 9.25118Z" fill="black"/>
<path d="M25.9846 11.4268C25.0536 12.6984 17.9892 22.9143 17.5803 23.5864C17.1271 24.3261 16.9892 24.7854 17.1616 24.9498C17.2847 25.0706 17.6148 25.0465 17.8808 24.8918C19.0484 24.2246 20.5805 22.2713 24.8664 15.9861C25.7827 14.642 26.7778 13.1964 27.0832 12.7709C27.3887 12.3455 27.6448 11.9732 27.6547 11.949C27.6744 11.9055 26.3049 11.1996 26.2014 11.1996C26.1768 11.1996 26.0782 11.3011 25.9846 11.4268Z" fill="black"/>
<path d="M10.7485 13.5941C10.7879 14.4643 11.0195 15.0155 11.5663 15.5521C12.2166 16.1807 13.0738 16.5336 14.4384 16.7222L14.8719 16.785L7.44788 27.9292C3.36888 34.0549 0.0189687 39.0976 0.00418965 39.1266C-0.0105894 39.1653 0.0140423 39.1798 0.0731584 39.1653C0.324402 39.1073 62.8692 28.9929 62.9726 28.9929C63.0416 28.9929 71.3474 31.2749 81.4365 34.0646C91.5207 36.8543 99.8118 39.146 99.8561 39.1556C99.9251 39.1653 101.329 37.0863 105.866 30.2789L111.793 21.3829L112.231 21.3007C112.472 21.2524 112.788 21.1653 112.936 21.1073L113.197 21.0058V20.5272V20.0533L112.94 20.1645C112.615 20.3048 112.482 20.3338 112.029 20.3869C111.586 20.4353 110.999 20.3724 110.719 20.2516C109.857 19.8745 109.669 18.9172 110.236 17.8052L110.428 17.4329L110.177 17.665C109.039 18.7044 106.664 21.586 105.285 23.5972L104.807 24.2935L104.408 24.3225C103.62 24.3757 102.408 24.4095 102.408 24.3757C102.408 24.3611 102.846 23.6794 103.388 22.8624C105.004 20.4063 106.088 18.6706 106.581 17.7423C106.97 17.0026 106.935 16.6496 106.472 16.7318C106.221 16.7802 105.733 17.1186 105.295 17.5489C104.812 18.0276 104.231 18.7044 102.925 20.3144C101.304 22.316 100.162 23.3458 98.8364 23.9937C98.0629 24.3708 97.4373 24.54 96.6885 24.5787C94.8707 24.6706 93.9642 23.7616 94.2499 22.1371C94.3337 21.6537 94.5751 20.9913 94.846 20.4933C94.984 20.2371 94.9938 20.1984 94.9051 20.2757C94.0775 21.0155 92.2252 22.6206 91.9346 22.8527C90.8557 23.7036 89.9 24.2016 88.8162 24.482C88.4122 24.5884 88.2299 24.6077 87.5797 24.6126C86.9195 24.6174 86.7718 24.6029 86.4663 24.511C85.9047 24.337 85.555 24.0275 85.4811 23.6408C85.4367 23.4184 85.4909 23.2491 85.6584 23.0896C85.7717 22.9784 85.8407 22.9494 86.018 22.9494C86.289 22.9494 86.4318 23.0558 86.6634 23.4232C86.9688 23.9163 87.1905 24.0614 87.6437 24.0614C88.7324 24.0517 89.565 22.9784 90.1217 20.8704C90.2103 20.5223 90.8261 17.5634 90.8064 17.5489C90.8015 17.5392 90.2547 18.0953 89.5847 18.7818C85.619 22.8624 83.8701 24.2499 82.3184 24.5449C81.8996 24.6271 81.3084 24.5835 80.9833 24.4482C80.0473 24.0517 79.9931 22.9736 80.8306 21.4119L81.0818 20.9478L80.3527 21.6488C78.4807 23.4522 77.0669 24.2886 75.4855 24.5255C74.7269 24.6416 73.9978 24.5739 73.4214 24.3321C73.1603 24.2209 72.7662 23.8438 72.6283 23.5779C72.4706 23.2685 72.3918 22.7995 72.4312 22.3982C72.4706 22.0018 72.6135 21.4361 72.7465 21.1315C72.8401 20.9284 72.8401 20.9139 72.7613 20.8898C72.3819 20.7689 71.9287 20.4885 71.6528 20.1936L71.3523 19.8696L70.9878 20.3821C70.436 21.1557 69.9385 21.7504 69.2833 22.4127C67.9827 23.723 66.958 24.337 65.7462 24.5304C65.1304 24.6319 64.6082 24.5739 64.219 24.366C63.485 23.9744 63.3914 23.1766 63.9333 21.9583L64.1303 21.5231L63.9037 21.789C63.5195 22.2338 62.347 23.3458 62.0218 23.5779C60.9972 24.3031 60.0956 24.6319 59.2532 24.5835C58.2236 24.5207 57.7113 23.8583 57.9428 22.8865C58.0266 22.5384 58.2384 22.0646 58.5439 21.5521L58.7261 21.2379L58.3862 21.5956C58.199 21.7939 57.9379 22.0743 57.8 22.2193C57.3862 22.6545 56.5043 23.4135 56.0561 23.7181C55.5289 24.0711 55.0511 24.308 54.5732 24.4578C54.0658 24.6126 53.2283 24.6174 52.8983 24.4675C52.0756 24.0952 51.9475 23.1911 52.5239 21.8712C52.6224 21.6585 52.6815 21.5038 52.6569 21.528C52.6372 21.5521 52.3514 21.8664 52.0263 22.2242C50.9277 23.4329 49.9474 24.1339 48.9079 24.4578C48.6074 24.5497 48.4301 24.569 47.9473 24.569C47.2625 24.569 46.9867 24.482 46.6763 24.1678C46.1738 23.6601 46.159 22.8962 46.6221 21.7697C46.6418 21.7213 46.4743 21.8664 46.2477 22.0985C45.4496 22.9155 44.4595 23.7036 43.7353 24.1001C42.8633 24.5787 41.8485 24.7431 41.2179 24.5014C41.011 24.424 40.7253 24.1533 40.6268 23.9405C40.4445 23.5441 40.5332 22.8769 40.8583 22.1758L41.0307 21.8132L40.4494 22.374C39.4986 23.2927 38.8779 23.7568 38.0848 24.1533C37.2621 24.5594 36.3803 24.6996 35.7743 24.5207C35.4689 24.4337 35.129 24.1533 35.0107 23.897C34.9073 23.6698 34.8876 23.167 34.9713 22.814C35.0551 22.4562 35.6118 21.3829 36.0256 20.7737L36.4049 20.2226L35.7497 20.8269C31.8431 24.4288 28.375 26.092 24.7787 26.092C23.2713 26.092 22.3303 25.8213 21.685 25.1976C21.1776 24.7044 20.9411 24.0372 20.9953 23.2395L21.0249 22.8285L20.9116 22.9736C20.2268 23.8777 19.2021 24.9703 18.6652 25.3716C18.01 25.8551 17.3547 26.092 16.6651 26.092C15.399 26.0872 14.5615 25.478 14.5664 24.5594C14.5664 24.0275 14.798 23.4957 15.5222 22.345C16.0345 21.5328 18.7292 17.5828 19.8721 15.9631C20.3647 15.2717 20.8032 14.6432 20.8524 14.5707L20.9411 14.4353L20.6357 14.6094C19.5962 15.2089 18.1183 15.6537 16.7045 15.7987C15.9754 15.8712 14.5517 15.8326 13.9851 15.7214C12.2018 15.3781 11.1229 14.5707 10.8027 13.3378L10.7288 13.0622L10.7485 13.5941Z" fill="black"/>
<path d="M78.8503 16.5145C78.1804 16.7756 77.3232 17.6217 76.4611 18.8884C76.1113 19.4057 75.5497 20.3437 75.5792 20.3727C75.6285 20.421 76.397 20.1793 76.8355 19.9714C78.4168 19.2414 79.6435 17.9021 79.6681 16.8916C79.673 16.6499 79.6583 16.5967 79.5548 16.5145C79.4119 16.3985 79.1558 16.3985 78.8503 16.5145Z" fill="black"/>
<path d="M100.676 16.493C100.006 16.7348 99.1536 17.5712 98.2817 18.8427C98.0107 19.244 97.5378 20.0031 97.4097 20.2352L97.3358 20.385L97.4935 20.3512C97.7693 20.3029 98.326 20.0901 98.7645 19.8774C100.203 19.1667 101.43 17.8033 101.444 16.8992C101.449 16.6477 101.435 16.5946 101.331 16.5124C101.198 16.406 100.942 16.3963 100.676 16.493Z" fill="black"/>
<path d="M53.4465 16.6393C52.7864 16.823 52.1115 17.3065 51.343 18.1525C49.7321 19.9221 48.3724 22.4555 48.5941 23.2774C48.6631 23.5288 49.1064 23.5965 49.5744 23.437C50.4119 23.1469 51.6977 21.8995 53.2249 19.8931C54.2348 18.5683 54.821 17.6159 54.821 17.3016C54.821 17.0599 54.6831 16.8085 54.486 16.6973C54.2692 16.5716 53.7865 16.5474 53.4465 16.6393Z" fill="black"/>
</svg>
