<svg width="164" height="40" viewBox="0 0 164 40" fill="none" xmlns="http://www.w3.org/2000/svg">
<path fill-rule="evenodd" clip-rule="evenodd" d="M17.5863 0C18.543 0 19.5506 0.0286546 19.8151 0.085982C20.0898 0.133746 20.782 0.267491 21.3722 0.382146C21.9625 0.496783 22.8988 0.73562 23.4585 0.91713C24.0184 1.09866 24.9547 1.48078 25.5448 1.75784C26.1352 2.0349 27.0308 2.52213 27.5295 2.83739C28.0282 3.15266 28.8323 3.73543 29.3106 4.11755C29.7888 4.50926 30.5114 5.18756 30.9184 5.62701C31.3256 6.07603 31.9465 6.8212 32.2824 7.29889C32.618 7.77656 33.1372 8.60771 33.4322 9.16182C33.7274 9.71591 34.1345 10.5948 34.3278 11.1203C34.5213 11.6457 34.7757 12.4864 34.8877 12.9831C34.9995 13.48 35.1422 14.3112 35.2031 14.8175C35.2641 15.3334 35.3152 16.1168 35.3152 16.5658C35.3152 17.0147 35.2641 17.7982 35.2031 18.3045C35.1422 18.8204 34.9995 19.6516 34.8877 20.1484C34.7757 20.6451 34.5213 21.4859 34.3278 22.0112C34.1345 22.5368 33.7274 23.4157 33.4322 23.9697C33.1372 24.5239 32.618 25.3645 32.2824 25.8327C31.9465 26.3007 31.3256 27.0555 30.9184 27.5046C30.5013 27.9536 29.7787 28.6319 29.3106 29.0139C28.8323 29.3961 28.0282 29.9788 27.5295 30.2942C27.0308 30.6094 26.1352 31.0967 25.5448 31.3736C24.9547 31.6507 24.0184 32.0329 23.4585 32.2144C22.8988 32.3959 22.0032 32.6347 21.474 32.7399C20.9447 32.845 20.0594 32.9788 19.5099 33.0361C18.9704 33.0933 18.1359 33.1412 17.6575 33.1412C17.1792 33.1412 16.3447 33.0933 15.7951 33.0361C15.2557 32.9788 14.3703 32.845 13.8411 32.7399C13.3119 32.6347 12.4163 32.3959 11.8565 32.2144C11.2968 32.0329 10.3605 31.6507 9.77018 31.3736C9.17989 31.0967 8.28429 30.6094 7.78561 30.2942C7.27673 29.9788 6.48291 29.3961 6.00458 29.0139C5.53643 28.6319 4.81385 27.9536 4.39658 27.5046C3.98948 27.0555 3.36866 26.3007 3.03283 25.8327C2.69698 25.3645 2.17793 24.5239 1.88279 23.9697C1.58765 23.4157 1.18056 22.5368 0.987194 22.0112C0.793827 21.4859 0.539396 20.6451 0.427445 20.1484C0.315495 19.6516 0.173013 18.8204 0.11195 18.3045C0.0508863 17.7982 0 17.0147 0 16.5658C0 16.1168 0.0508863 15.3334 0.11195 14.8175C0.173013 14.3112 0.315495 13.48 0.427445 12.9831C0.539396 12.4864 0.793827 11.6457 0.987194 11.1203C1.18056 10.5948 1.58765 9.71591 1.88279 9.16182C2.17793 8.60771 2.69698 7.77656 3.03283 7.29889C3.36866 6.8212 3.98948 6.07603 4.39658 5.62701C4.81385 5.17799 5.53643 4.4997 6.00458 4.11755C6.48291 3.73543 7.27673 3.15266 7.78561 2.83739C8.28429 2.52213 9.17989 2.0349 9.77018 1.75784C10.3605 1.48078 11.2968 1.09866 11.8565 0.91713C12.4163 0.73562 13.3322 0.496783 13.892 0.391692C14.4517 0.2866 15.1132 0.152855 15.3677 0.105091C15.6221 0.0573273 16.6195 0.00954549 17.5761 0H17.5863ZM13.5459 4.38506C13.0167 4.53792 12.1924 4.84363 11.714 5.06336C11.2357 5.27354 10.4317 5.72256 9.93301 6.03781C9.42414 6.36263 8.57943 7.04094 8.05021 7.53773C7.521 8.04405 6.93071 8.65547 6.74752 8.90387L6.42185 9.35287C7.86702 10.4324 8.67103 10.9102 9.42414 11.2635C10.1569 11.6076 11.0525 11.9418 11.6631 12.0948C12.5893 12.324 12.8437 12.3527 14.5128 12.3527C16.1818 12.3527 16.4363 12.324 17.3624 12.0948C17.9221 11.9515 18.7974 11.6457 19.2961 11.4259C19.7947 11.1967 20.5071 10.8241 20.8736 10.5948C21.2399 10.356 21.9116 9.84966 22.3798 9.44842L23.2245 8.73191L26.013 11.3495C24.8223 12.5819 24.283 13.2125 24.0285 13.5564C23.7842 13.9003 23.3874 14.569 23.1431 15.0372C22.9091 15.5053 22.5834 16.327 22.4306 16.8523C22.1865 17.7218 22.1559 17.9606 22.1559 19.5274C22.1559 21.0941 22.1865 21.3329 22.4306 22.2023C22.5935 22.7756 22.9498 23.6162 23.3161 24.3042C23.6927 25.011 24.2016 25.7657 24.6391 26.2913L25.3516 27.1224C26.0944 26.6448 26.7459 26.0906 27.2852 25.5939C27.8145 25.097 28.5371 24.2945 28.873 23.8265C29.219 23.3583 29.6667 22.6419 29.8804 22.2501C30.0941 21.8584 30.4097 21.1037 30.5929 20.5783C30.7861 20.0528 31.0102 19.212 31.0916 18.7153C31.1832 18.209 31.2543 17.2536 31.2543 16.5658C31.2543 15.878 31.1832 14.9225 31.0916 14.4162C31.0102 13.9195 30.7861 13.0788 30.5929 12.5532C30.4097 12.0279 30.0941 11.2731 29.8804 10.8814C29.6667 10.4897 29.3004 9.88788 29.0561 9.54395C28.8219 9.20002 28.3335 8.59816 27.9772 8.20645C27.6211 7.81476 27.0105 7.232 26.6134 6.92629C26.2267 6.62058 25.5856 6.16201 25.1988 5.91361C24.802 5.66523 24.1404 5.30219 23.7233 5.10157C23.306 4.90096 22.5019 4.60479 21.9422 4.43283C21.3825 4.25132 20.4869 4.04114 19.9576 3.9647C19.3673 3.86917 18.4412 3.81184 17.566 3.82141C16.7823 3.82141 15.7748 3.88828 15.3269 3.9647C14.8791 4.04114 14.0752 4.22265 13.5459 4.38506ZM4.22356 14.464C4.14215 14.8844 4.08109 15.8301 4.08109 16.5658C4.08109 17.3396 4.15232 18.2664 4.24392 18.7631C4.32534 19.2313 4.54923 20.0528 4.73242 20.5783C4.9258 21.1037 5.24129 21.8584 5.45501 22.2501C5.66873 22.6419 6.02494 23.2342 6.25902 23.5685C6.4931 23.8933 6.69663 24.1608 6.72718 24.1608C6.75771 24.1608 8.67103 22.3838 10.9813 20.2248L15.1743 16.2792C13.322 16.1645 12.3959 16.0689 11.9176 15.9925C11.4392 15.9161 10.6556 15.7443 10.1569 15.6105C9.6684 15.4768 8.84404 15.1997 8.32499 14.9895C7.81614 14.7794 7.06301 14.4258 6.67629 14.2061C6.27936 13.9863 5.67892 13.5947 5.32271 13.3463C4.97669 13.0978 4.67136 12.8877 4.64083 12.8877C4.62047 12.8877 4.54923 13.0692 4.478 13.2985C4.41692 13.5183 4.30498 14.0437 4.22356 14.464ZM13.7291 22.8711C11.3069 25.1544 9.56663 26.874 9.62769 26.9123C9.68874 26.9504 9.99407 27.1415 10.3198 27.3422C10.6352 27.5333 11.2357 27.8485 11.6326 28.0396C12.0397 28.2307 12.8335 28.5269 13.3933 28.7083C13.953 28.8802 14.8181 29.0905 15.3269 29.1669C15.8562 29.2528 16.8434 29.3197 17.6677 29.3197C18.4514 29.3197 19.4589 29.2624 19.9067 29.186C20.3546 29.1096 20.9143 29.0045 21.1483 28.9472C21.3926 28.8898 21.5861 28.8228 21.5861 28.7944C21.5861 28.7657 21.362 28.479 21.0975 28.1541C20.8329 27.8198 20.4156 27.2562 20.1816 26.8836C19.9474 26.5111 19.5708 25.8137 19.347 25.3358C19.1231 24.8486 18.8279 24.0748 18.6855 23.6162C18.543 23.1482 18.3598 22.3838 18.2784 21.9158C18.1868 21.4476 18.085 20.5687 18.0341 19.9764L17.9425 18.8968L13.7291 22.8711ZM145.942 8.77967L146.461 10.0503C146.746 10.7477 148.15 14.1487 149.596 17.6071C151.031 21.075 152.252 23.922 152.303 23.941C152.364 23.9507 153.778 20.5497 158.511 8.78922L163.65 8.77967L163.416 9.38155C163.284 9.70637 160.414 16.6805 157.035 24.8773C153.667 33.0742 150.858 39.819 150.796 39.8571C150.735 39.8954 149.687 39.9241 148.466 39.9241C146.787 39.9241 146.237 39.8954 146.196 39.8094C146.176 39.7426 146.99 37.5357 149.87 30.1318L149.239 28.6987C148.904 27.9153 146.827 23.1291 144.639 18.0753C142.451 13.0118 140.65 8.85611 140.65 8.82744C140.65 8.80833 141.84 8.77967 145.942 8.77967ZM56.1582 1.05089C57.6034 1.04133 58.2852 1.08909 59.2112 1.24195C59.8728 1.34704 60.8906 1.58588 61.4706 1.7674C62.0609 1.95848 62.9056 2.2833 63.3535 2.50302C63.8012 2.72275 64.534 3.16221 64.9819 3.47748C65.4296 3.78319 66.1013 4.32774 66.4678 4.67166C66.834 5.01559 67.4041 5.63658 67.7398 6.05692C68.0756 6.47729 68.5845 7.25111 68.8695 7.77656C69.1545 8.302 69.5208 9.04717 69.6837 9.42931C69.8466 9.80189 69.9483 10.1363 69.9179 10.1554C69.8974 10.1745 68.7575 10.4802 67.4041 10.8241C66.0505 11.168 64.8903 11.4546 64.8291 11.4546C64.7783 11.4546 64.7274 11.4069 64.7274 11.3401C64.7274 11.2731 64.5747 10.8719 64.3915 10.4515C64.2084 10.0312 63.8419 9.38155 63.5774 8.9994C63.3229 8.61726 62.8447 8.0536 62.5189 7.75745C62.1932 7.45174 61.7048 7.06003 61.4197 6.87852C61.145 6.69701 60.6362 6.42951 60.3003 6.28621C59.9644 6.13336 59.3233 5.92318 58.8754 5.80854C58.1935 5.63658 57.7764 5.59836 56.2803 5.58879C54.9166 5.58879 54.3364 5.62701 53.7868 5.75121C53.4001 5.84674 52.8302 6.00916 52.5146 6.1238C52.2093 6.23843 51.6802 6.48683 51.3443 6.66834C51.0085 6.84987 50.3468 7.36576 49.8686 7.81476C49.2987 8.35933 48.8508 8.89431 48.5556 9.40066C48.3012 9.821 47.9451 10.5757 47.7721 11.0726C47.5889 11.5789 47.3752 12.3144 47.2835 12.7253C47.2022 13.1265 47.0801 14.015 47.0189 14.6837C46.9273 15.5818 46.9375 16.2506 47.0189 17.2345C47.0801 17.9702 47.2225 18.9445 47.3242 19.3841C47.4261 19.833 47.66 20.5687 47.8331 21.0082C48.0061 21.4572 48.2911 22.059 48.4641 22.3457C48.6371 22.6419 48.973 23.1099 49.2173 23.3966C49.4512 23.6928 49.8483 24.094 50.0924 24.3136C50.3367 24.5239 50.7641 24.8391 51.039 25.0206C51.3239 25.2021 51.8429 25.4696 52.1891 25.6129C52.5351 25.7657 53.2271 25.9761 53.7155 26.0906C54.4381 26.2626 54.9063 26.3007 56.1784 26.3007C57.247 26.3007 57.9901 26.253 58.4684 26.1479C58.8652 26.0715 59.5064 25.8804 59.8931 25.7371C60.2902 25.5939 60.86 25.3168 61.1653 25.1353C61.4809 24.9538 61.9999 24.562 62.3255 24.2659C62.6512 23.9697 63.1194 23.473 63.3637 23.1576C63.608 22.8424 63.9844 22.2214 64.2084 21.7724C64.4323 21.3329 64.646 20.8458 64.6766 20.7025C64.707 20.5591 64.7985 20.435 64.88 20.435C64.9717 20.435 66.1218 20.7215 67.4549 21.0654C68.7881 21.4095 69.8873 21.7056 69.8974 21.7151C69.9179 21.7151 69.8058 22.0495 69.6531 22.4412C69.5107 22.8424 69.2257 23.4634 69.0324 23.8265C68.8389 24.1991 68.4216 24.8678 68.1163 25.3072C67.8009 25.7563 67.1292 26.5301 66.6102 27.0268C66.0912 27.5333 65.3074 28.1828 64.8698 28.479C64.4323 28.7751 63.6588 29.2146 63.1499 29.4535C62.6512 29.6923 61.898 29.9884 61.4706 30.1222C61.0535 30.2559 60.229 30.4566 59.6387 30.5808C58.7228 30.7623 58.2648 30.7909 56.2803 30.8005C54.4891 30.8005 53.7868 30.7623 53.0235 30.6285C52.4944 30.5331 51.5783 30.3133 50.988 30.1222C50.408 29.9407 49.5225 29.5872 49.0238 29.3388C48.5253 29.0905 47.7516 28.6319 47.2938 28.3071C46.8358 27.9823 46.103 27.3613 45.6655 26.9217C45.2176 26.4824 44.6171 25.7754 44.322 25.3551C44.0268 24.9346 43.6095 24.2468 43.3857 23.8265C43.1618 23.406 42.8259 22.68 42.6529 22.2023C42.4698 21.7341 42.2356 20.9796 42.1236 20.5304C42.0118 20.0911 41.8489 19.2694 41.7776 18.7153C41.6962 18.1613 41.6352 16.9002 41.6352 15.8971C41.6352 14.8461 41.6962 13.6805 41.7776 13.1265C41.859 12.6011 41.9913 11.8751 42.0829 11.5025C42.1746 11.1394 42.3884 10.4324 42.5614 9.9261C42.7344 9.42931 43.0905 8.61726 43.3551 8.11093C43.6198 7.61414 44.0777 6.85942 44.3829 6.43907C44.6781 6.0187 45.2785 5.34041 45.6959 4.92961C46.1233 4.50926 46.7341 3.9647 47.0697 3.71632C47.4056 3.46792 48.0468 3.05712 48.4947 2.80873C48.9424 2.56033 49.6753 2.2164 50.123 2.04446C50.5709 1.87249 51.2832 1.6432 51.7005 1.52857C52.1279 1.42348 52.8811 1.27062 53.3798 1.19418C53.8988 1.11777 55.1098 1.06044 56.1582 1.05089ZM73.5817 1.04133H78.6702V30.275H73.5817V1.04133ZM133.119 1.04133H138.207V30.275H133.119V1.04133ZM118.697 8.21602C119.837 8.20645 120.448 8.25424 121.242 8.40709C121.812 8.51218 122.626 8.73191 123.043 8.89431C123.47 9.04716 124.152 9.37198 124.57 9.62038C125.018 9.86877 125.73 10.4324 126.249 10.9292C126.839 11.4833 127.338 12.0756 127.643 12.5628C127.908 12.9737 128.233 13.5851 128.376 13.9195C128.529 14.2442 128.763 14.8939 128.905 15.3525C129.048 15.811 129.231 16.6709 129.312 17.2632C129.394 17.8555 129.455 18.8778 129.455 19.5274C129.455 20.3872 129.424 20.7408 129.333 20.7979C129.261 20.8362 125.516 20.8553 112.815 20.8075L112.896 21.3808C112.937 21.7056 113.1 22.317 113.252 22.7564C113.405 23.1863 113.7 23.7882 113.914 24.094C114.128 24.3902 114.494 24.8201 114.738 25.0493C114.993 25.2691 115.41 25.5652 115.685 25.7084C115.96 25.8518 116.54 26.0619 116.988 26.167C117.517 26.2913 118.128 26.3581 118.718 26.3581C119.318 26.3581 119.929 26.2913 120.448 26.167C120.896 26.0619 121.476 25.8614 121.72 25.7371C121.974 25.6033 122.392 25.3358 122.636 25.1353C122.891 24.9346 123.328 24.4473 123.603 24.0653C123.878 23.6735 124.102 23.3393 124.112 23.3297C124.112 23.32 124.936 23.5494 125.944 23.836C126.951 24.1227 128.091 24.4473 129.149 24.7341L128.763 25.4792C128.539 25.8804 128.152 26.4824 127.898 26.8167C127.633 27.1415 127.185 27.6384 126.89 27.9153C126.595 28.1924 126.056 28.6127 125.689 28.8611C125.333 29.1 124.733 29.4535 124.366 29.6349C124.01 29.826 123.297 30.1126 122.789 30.275C122.29 30.4374 121.486 30.6381 121.008 30.7145C120.539 30.7909 119.593 30.8483 118.921 30.8483C118.25 30.8483 117.273 30.7815 116.733 30.7049C116.204 30.6191 115.369 30.428 114.881 30.275C114.392 30.1222 113.751 29.8738 113.456 29.74C113.161 29.5968 112.601 29.2814 112.204 29.0332C111.818 28.7847 111.227 28.3452 110.902 28.0683C110.566 27.7816 110.026 27.2085 109.691 26.788C109.355 26.3677 108.856 25.5939 108.581 25.0683C108.306 24.543 107.991 23.836 107.889 23.4921C107.777 23.1576 107.614 22.4889 107.533 22.0112C107.431 21.4859 107.37 20.5878 107.37 19.6706C107.38 18.8395 107.441 17.8172 107.523 17.3301C107.604 16.8619 107.787 16.0881 107.94 15.6105C108.082 15.1423 108.378 14.4066 108.601 13.9863C108.815 13.566 109.192 12.945 109.426 12.6011C109.67 12.2667 110.189 11.6649 110.596 11.2635C110.993 10.8719 111.655 10.3274 112.072 10.0598C112.479 9.79235 113.11 9.43886 113.456 9.27646C113.802 9.10449 114.423 8.86566 114.83 8.74146C115.237 8.60771 115.929 8.44531 116.377 8.36887C116.835 8.29244 117.863 8.22556 118.697 8.21602ZM116.581 12.6966C116.245 12.8113 115.787 13.0024 115.563 13.1169C115.339 13.2412 114.932 13.5564 114.647 13.8143C114.372 14.082 113.975 14.5883 113.772 14.9512C113.568 15.3143 113.304 15.9161 113.181 16.2792C113.069 16.6518 112.968 17.0053 112.968 17.0721C112.968 17.1677 114.158 17.1868 118.565 17.1868C123.837 17.1868 124.163 17.1772 124.163 17.0244C124.163 16.9287 124.071 16.4988 123.959 16.0689C123.847 15.6296 123.623 15.0182 123.45 14.7028C123.287 14.3876 122.951 13.929 122.718 13.6902C122.483 13.4513 122.097 13.1456 121.873 13.031C121.649 12.9067 121.262 12.7349 121.008 12.6489C120.763 12.5628 120.183 12.4674 119.736 12.4291C119.288 12.3908 118.534 12.3908 118.056 12.4291C117.588 12.4674 116.916 12.5819 116.581 12.6966ZM83.1381 8.77967H88.2471L88.2878 14.7315C88.3081 19.5848 88.3488 20.8458 88.4811 21.5813C88.5625 22.0876 88.7254 22.7277 88.8374 23.0144C88.9391 23.3106 89.1427 23.7596 89.2851 24.0174C89.4275 24.2849 89.7634 24.7341 90.0484 25.0206C90.3231 25.3168 90.7811 25.6607 91.056 25.804C91.3206 25.9474 91.8497 26.1289 92.2061 26.2149C92.5723 26.2913 93.1932 26.3581 93.5799 26.3581C93.9768 26.3581 94.6587 26.2721 95.1066 26.167C95.5543 26.0619 96.1345 25.8614 96.3786 25.718C96.633 25.5747 97.0503 25.2691 97.2946 25.0206C97.5491 24.7818 97.9052 24.3232 98.0782 24.0174C98.2512 23.7022 98.4752 23.215 98.5567 22.9188C98.6482 22.6322 98.7907 21.8394 98.8721 21.1514C98.9942 20.1865 99.0248 18.6963 99.0248 8.77967H104.113V30.275H99.6354L99.6455 29.205C99.6455 28.6127 99.6253 28.1064 99.5947 28.0777C99.5641 28.0587 99.2793 28.2592 98.9535 28.5459C98.6278 28.8228 98.0478 29.2528 97.6508 29.4918C97.264 29.74 96.5518 30.0745 96.0733 30.2463C95.6051 30.4087 94.8011 30.6191 94.2924 30.7145C93.5799 30.8386 93.0202 30.8579 91.6972 30.8196C90.3944 30.7815 89.855 30.7241 89.2545 30.5712C88.8374 30.4566 88.1351 30.1795 87.6874 29.9598C87.1072 29.6827 86.6289 29.3388 86.0487 28.7944C85.5093 28.3071 85.0514 27.7625 84.7461 27.2656C84.4814 26.8453 84.1354 26.1575 83.9725 25.7371C83.8098 25.3168 83.5757 24.543 83.4535 24.0174C83.2195 23.0812 83.2195 22.9475 83.1788 15.9257L83.1381 8.77967Z" fill="#040406"/>
</svg>
