<svg width="61" height="61" viewBox="0 0 61 61" fill="none" xmlns="http://www.w3.org/2000/svg">
<path fill-rule="evenodd" clip-rule="evenodd" d="M30.0833 60.1667C13.4952 60.1667 0 46.6714 0 30.0834C0 13.4953 13.4952 0 30.0833 0C46.6712 0 60.1667 13.4953 60.1667 30.0834C60.1667 46.6713 46.6713 60.1667 30.0833 60.1667ZM35.1751 18.4474H18.1736L15.594 22.5929H32.576L35.1751 18.4474ZM38.6496 18.487L28.2562 35.0366H16.7274L19.3872 30.8875H26.2971L28.9366 26.7405H12.9622L10.3233 30.8875H14.1075L8.85703 39.1713H30.7691L38.8624 26.4078L41.8134 30.8875H39.1525L36.6326 35.0366H44.5122L47.2482 39.1713H52.2746L38.6496 18.487Z" fill="black"/>
</svg>
