<svg width="137" height="34" viewBox="0 0 137 34" fill="none" xmlns="http://www.w3.org/2000/svg">
<g clip-path="url(#clip0_6_1025)">
<path d="M23.0964 18.3692C23.9869 19.1278 25.6717 19.5053 26.0956 22.2313C26.5195 24.9573 24.1614 29.2769 20.6707 30.6635C18.2415 31.6472 16.8808 31.3894 14.676 31.2442C13.7356 30.7143 11.4061 30.3368 10.4408 27.5309C9.92074 26.0173 9.50043 24.1733 10.1202 22.558L10.4408 21.5743C10.6652 20.362 10.5655 21.9373 10.911 20.9427C10.9608 20.7903 10.8112 20.8665 11.1104 20.4382L12.0757 19.3492C12.5958 18.8193 12.8202 18.8955 12.9911 18.2131C12.3714 18.0352 12.7667 18.0352 12.1505 17.8501L12.9199 16.9426C13.1194 16.6631 13.0695 16.8664 13.1692 16.4889C13.9137 16.6668 13.7142 16.8156 14.334 16.9934C13.6216 15.6032 14.0847 15.6794 15.2245 14.4526C15.9161 13.6815 16.768 13.0776 17.7179 12.6848C19.2032 12.0024 20.9628 11.8282 22.9219 12.0024C23.6913 12.0786 23.9905 12.3037 24.8062 12.3291L25.0056 12.4816C25.1012 12.5598 25.2098 12.6201 25.3262 12.6594C26.491 13.2148 28.532 14.1114 29.711 14.2239C32.9167 14.5034 31.4706 14.1222 34.4199 14.2239C35.2391 14.2493 35.2142 14.3763 35.9302 14.4017C35.3104 13.5669 34.5054 13.6758 33.8998 13.1894C35.5098 13.0115 35.4101 13.164 35.6594 12.7865C35.7428 12.6125 35.8801 12.4713 36.0501 12.3847C36.22 12.2981 36.4132 12.2709 36.5998 12.3073L37.07 12.3835H37.159C37.184 12.3835 37.2588 12.3581 37.2837 12.3581C37.3086 12.3581 37.3585 12.3327 37.3834 12.3327C38.2989 12.0786 38.8082 11.2728 39.8768 11.0441C40.8172 10.8155 41.786 10.8155 42.851 9.25099C41.3906 9.37803 38.8616 12.0532 31.7021 9.61397C31.1571 9.4107 30.687 9.18565 30.1918 9.05861C30.3287 8.86671 30.4003 8.63452 30.3958 8.39734C30.3913 8.16016 30.3109 7.93096 30.1669 7.7446C29.8107 7.18923 28.8276 6.81173 28.1865 6.65565C27.6529 6.41423 27.0968 6.22817 26.5266 6.10028C26.0065 5.97324 25.2372 5.92242 24.6423 5.799C24.938 5.59573 25.9816 5.49772 26.3521 5.47231C27.0112 5.42589 27.6724 5.41741 28.3325 5.44691C27.9763 4.96777 27.5382 5.08392 26.6726 5.12022L25.1624 5.14563C23.9976 5.44691 23.7376 5.62477 22.1133 5.62477C22.2629 5.19644 22.5336 5.14563 21.9637 5.09481C18.2486 4.73183 14.9039 6.90973 13.8353 7.16382C14.1915 6.71009 18.7651 4.15831 19.5843 3.72999L24.6138 0.775288C24.97 0.49579 25.0092 0.648244 25.1339 0.118286L23.1997 0.72447C21.6645 1.35606 17.9209 2.49221 16.3857 2.72089C14.7009 2.97498 16.4605 2.44139 14.0063 3.20003L13.0909 3.47953C12.1505 3.84251 12.5708 3.93326 12.0223 4.11112C11.2529 4.36521 12.0223 3.83162 11.3277 4.11112C10.7827 4.3398 11.1282 4.4124 10.4622 4.59026C10.8327 4.10887 11.2764 3.69099 11.7765 3.35248C12.4889 2.7463 12.9911 2.59384 13.1657 2.01307C12.3251 2.03848 12.0009 2.44139 11.431 2.84793C10.8611 3.25448 10.3909 3.53035 9.821 3.93689C9.25109 4.34343 9.00175 4.64471 8.2858 4.9714C7.6834 5.24706 7.11047 5.58521 6.57606 5.98049C6.7506 5.32349 7.24571 4.89154 7.59122 4.26357C6.82184 4.46684 7.41668 4.62656 6.22699 5.42513C5.60721 5.85345 5.78174 5.85345 5.55734 6.28177C5.08716 7.11664 4.54218 7.04041 3.52703 8.35079C2.88231 9.18565 1.86715 9.48693 1.52164 10.0677L1.37204 10.5468C1.37577 10.5827 1.36694 10.6187 1.34711 10.6485C1.02653 11.3055 0.0826136 11.4833 0.0078125 12.4924C0.752262 12.5179 1.19751 12.6703 2.18773 12.6703C7.9866 12.6449 8.28224 9.71561 14.5263 10.2456C15.3919 10.3218 16.0865 10.4488 16.8808 10.4488V10.7755C14.7757 10.8263 10.512 13.0732 9.15136 14.0823C6.93096 15.7085 5.26567 18.0021 4.38902 20.6415C2.85382 25.6906 5.35787 29.531 9.32233 31.5637C10.2627 32.0428 12.2218 32.9539 13.4364 32.9793C14.1808 33.2806 20.8203 33.1826 20.9949 33.1318C21.5398 32.9539 21.1195 33.1572 20.9699 33.0047C20.6137 32.6417 20.6137 33.2334 20.7455 32.8014C21.1658 32.7252 22.1703 32.6236 22.4553 32.3985C22.4553 32.3731 22.5051 32.3477 22.5051 32.3223L22.6049 32.119C23.8444 32.119 25.255 31.8649 26.0742 31.3604C26.8935 30.8558 27.0146 31.0591 28.1045 30.678C29.2942 30.315 32.3397 29.2623 32.8847 28.5327C31.8161 28.7868 29.9603 29.7197 28.0048 29.7197C28.0297 29.6943 28.1045 29.6435 28.1045 29.6689C28.1045 29.6943 28.2043 29.6181 28.2292 29.5927C29.3441 28.9865 28.7243 29.2297 29.2978 28.8086C29.4742 28.6836 29.6658 28.5823 29.8677 28.5073C29.8542 28.1562 29.7956 27.8084 29.6932 27.4728C30.288 27.0699 30.2132 27.2441 30.3628 26.638L30.4127 26.3367C30.5872 25.4038 30.8829 25.1751 31.7769 24.0898L34.2703 21.1859C34.1955 20.4273 39.6453 18.4091 39.8198 16.3147C39.3746 16.6777 39.4636 16.9463 38.5054 17.7049C36.9453 18.9173 36.3006 18.9173 34.2703 18.8919C33.0806 18.8919 32.6603 19.0697 31.5703 19.0697C32.0654 18.3438 31.9906 19.0951 32.24 18.2131C31.537 18.452 30.8011 18.5746 30.06 18.5761C27.5097 18.6015 27.2354 16.8846 24.0902 16.6813C21.1908 16.6305 17.7713 16.0243 14.6261 18.1332C9.79607 21.4001 11.6269 25.8104 15.0464 25.9592C15.4347 25.9899 15.8251 25.9384 16.1929 25.8078C16.5607 25.6773 16.898 25.4705 17.1836 25.2005C18.9432 23.3312 16.8274 21.6651 16.6137 21.4146C14.7294 18.6886 18.1987 17.4508 21.8675 18.1477C22.4125 18.224 22.6619 18.351 23.132 18.3764L23.0964 18.3692Z" fill="black"/>
<path d="M56.5177 5.84463C53.9246 5.8773 51.3172 6.82832 49.5256 8.74851C44.3607 14.2949 46.0598 28.1718 56.3182 28.1718C58.3628 28.1718 59.5738 27.925 61.1019 27.043C62.2809 26.3714 62.5908 26.1246 63.2391 25.1373L63.8624 24.3242L64.1403 27.6782H65.736V16.6362H56.7599V18.5781H63.8696C63.663 27.0175 54.7189 28.0775 51.1854 23.8051C47.4062 19.2134 48.3786 9.57249 54.7474 8.08788C59.2176 7.06427 63.0646 9.99718 63.1358 13.0317H65.4938C65.1127 8.28752 60.8383 5.79382 56.5177 5.84463ZM115.4 11.6778C114.556 11.6623 113.714 11.7849 112.907 12.0408C111.208 12.5707 111.244 13.206 110.1 13.9828V12.0771H107.984V27.6854H110.1V18.5745C110.1 12.3602 118.35 11.7577 118.35 17.373V27.6854H120.487V17.1298C120.505 13.1588 117.969 11.7286 115.4 11.6778ZM74.8226 11.6778C71.9445 11.7105 68.8314 13.068 68.8314 17.1226H70.9472C70.9472 12.4945 77.8075 12.353 78.5697 15.8521C79.7488 21.0791 68.1047 16.03 68.1047 23.6236C68.1047 26.8034 70.5981 28.1791 73.8039 28.1791C76.4041 28.1791 77.5475 26.9413 78.7585 25.5293C79.2786 27.896 79.3819 27.6854 82.292 27.6854V25.7798C80.942 26.0992 80.6286 25.6019 80.6286 23.8741C80.5253 18.9992 81.4941 14.6216 79.0328 12.7486C78.1886 12.117 76.5466 11.6597 74.819 11.6778H74.8226ZM129.869 11.6778C126.963 11.627 123.554 12.872 123.554 17.1226H125.691C125.691 11.9646 133.21 12.9555 133.21 15.9211V17.1226C133.21 20.1245 122.848 16.6289 122.848 23.62C122.848 28.9159 129.816 29.1628 132.466 26.6582C133.125 26.0593 132.822 26.023 133.47 25.5293C133.677 28.0375 134.959 27.6854 137.004 27.6854V25.7798C136.102 25.9903 136.519 25.9903 135.618 25.7798C134.336 20.2697 137.214 14.4764 133.157 12.3929C132.122 11.919 131 11.6787 129.865 11.6887L129.869 11.6778ZM98.7803 11.7177C94.9013 11.7468 92.1907 14.9047 92.1907 19.2787V21.2207C92.1907 30.5458 105.637 30.0848 105.637 22.4221C102.104 22.4221 104.568 22.6 102.431 24.8941C100.073 27.366 95.6636 26.6255 94.5309 22.7162C94.2887 21.9394 94.4276 21.2316 94.0821 20.4911H105.901C105.901 15.9356 104.376 12.2259 99.5924 11.7794C99.3217 11.7464 99.0494 11.7282 98.7767 11.725L98.7803 11.7177ZM91.9485 11.823C89.765 11.823 88.3438 12.353 87.0258 13.8013L86.057 15.177V12.0698H84.1513V27.6782H86.2671V19.0391C86.2671 16.0735 88.5895 13.99 91.9663 13.99L91.9485 11.823ZM99.0189 13.5181C101.869 13.5181 103.525 16.0953 103.731 18.8141H94.3029C94.3029 16.1062 96.3831 13.529 99.0154 13.529L99.0189 13.5181ZM78.7443 19.5219C78.7443 21.678 78.641 23.1263 77.8111 24.3605C75.8021 27.2934 70.2205 26.6909 70.2205 23.6345C70.217 19.7796 76.1761 20.9085 78.7407 19.5328L78.7443 19.5219ZM133.242 19.7687C133.242 22.1717 133.556 22.9122 132.409 24.4295C130.678 26.8324 124.993 27.3587 124.993 23.1227C124.993 21.6381 127.002 20.8613 128.387 20.5818L133.242 19.7687Z" fill="black"/>
</g>
<defs>
<clipPath id="clip0_6_1025">
<rect width="137" height="33.0316" fill="white"/>
</clipPath>
</defs>
</svg>
