<svg width="144" height="38" viewBox="0 0 144 38" fill="none" xmlns="http://www.w3.org/2000/svg">
<path d="M58.1681 0H19.4219V37.7675H58.1681V0Z" fill="white"/>
<path d="M77.5372 18.9282L58.1641 0V37.812L77.5372 18.9282Z" fill="black"/>
<path d="M38.795 18.9282L58.1681 0H19.4219L38.795 18.9282Z" fill="black"/>
<path d="M0 18.9283L19.4187 37.8121V0.00012207L0 18.9283Z" fill="black"/>
<path d="M38.795 18.9307L19.4219 37.8144H58.1681L38.795 18.9307Z" fill="black"/>
<path d="M94.5377 20.0388H87.5178V26.7925H84.0078V10.9746H87.5178V17.4617H94.5377V10.9746H98.0476V26.7925H94.5377V20.0388Z" fill="black"/>
<path d="M106.529 27.102C103.019 27.102 100.147 25.7246 100.102 21.9478H103.612C103.657 23.6362 104.66 24.6582 106.575 24.6582C107.988 24.6582 109.629 23.9473 109.629 22.3921C109.629 21.148 108.535 20.7926 106.711 20.2594L105.526 19.9484C102.973 19.2374 100.421 18.2599 100.421 15.4163C100.421 11.9061 103.794 10.7064 106.848 10.7064C109.993 10.7064 112.728 11.7728 112.774 15.283H109.264C109.127 13.8611 108.261 13.0169 106.62 13.0169C105.298 13.0169 104.022 13.6834 104.022 15.1052C104.022 16.2605 105.116 16.6159 107.395 17.3268L108.763 17.7267C111.543 18.571 113.321 19.504 113.321 22.17C113.275 25.7246 109.72 27.102 106.529 27.102Z" fill="black"/>
<path d="M115.277 11.0193H120.929C121.978 10.9749 123.072 11.0193 124.12 11.1971C126.08 11.6414 127.585 12.8855 127.585 15.0182C127.585 17.0621 126.263 18.0841 124.348 18.5728C126.536 18.9727 128.177 20.0391 128.177 22.394C128.177 25.993 124.531 26.7928 121.704 26.7928H115.323L115.277 11.0193ZM120.929 17.5953C122.479 17.5953 124.075 17.2843 124.075 15.4626C124.075 13.8186 122.616 13.3742 121.157 13.3742H118.696V17.5953H120.929ZM121.249 24.4379C122.89 24.4379 124.485 24.0824 124.485 22.1274C124.485 20.1724 123.118 19.8169 121.431 19.8169H118.65V24.4379H121.249Z" fill="black"/>
<path d="M137.297 27.1036C132.055 27.1036 129.73 23.86 129.73 19.0169C129.73 14.1737 132.329 10.6636 137.48 10.6636C140.716 10.6636 143.861 12.0854 143.953 15.64H140.306C140.124 14.0404 139.03 13.2407 137.48 13.2407C134.289 13.2407 133.332 16.5731 133.332 19.1057C133.332 21.6384 134.289 24.5709 137.343 24.5709C138.938 24.5709 140.124 23.7267 140.351 22.1271H143.998C143.634 25.7706 140.671 27.1036 137.297 27.1036Z" fill="black"/>
</svg>
