<svg width="147" height="38" viewBox="0 0 147 38" fill="none" xmlns="http://www.w3.org/2000/svg">
<path d="M42.4079 23.4854C37.0336 28.3212 31.739 33.0851 26.4454 37.8479C26.4056 37.8164 26.3657 37.785 26.3248 37.7535C28.8409 33.7149 31.3569 29.6762 33.8644 25.6498C31.2396 21.9945 30.7112 17.9031 30.8716 13.6586C30.8371 13.6434 30.8038 13.6282 30.7693 13.6119C27.5829 17.5005 24.3974 21.389 21.1765 25.3201C17.99 21.4296 14.8423 17.5846 11.6935 13.7397C11.6483 13.7478 11.6031 13.757 11.5579 13.7651C11.5407 13.8959 11.5019 14.0288 11.5084 14.1586C11.5988 15.9213 11.4675 17.6739 11.1199 19.4032C10.7088 21.4499 10.0728 23.4286 8.78463 25.166C8.67594 25.313 8.56833 25.4611 8.46717 25.6001C11.0047 29.732 13.6219 33.8153 16.0723 38C10.7152 33.1774 5.35709 28.3547 0 23.5321C0.0107615 23.5006 0.021523 23.4702 0.0333607 23.4388C0.540228 23.4388 1.0514 23.4732 1.55504 23.4317C2.93467 23.3181 3.90428 22.6051 4.60055 21.5117C5.25485 20.4823 5.60137 19.3484 5.84566 18.1881C6.34607 15.8097 6.55054 13.406 6.38051 10.9831C6.31486 10.056 6.15667 9.13716 5.695 8.29637C5.37 7.70304 4.93201 7.2294 4.10767 7.09552C7.77412 4.73035 11.4395 2.36517 15.106 0C15.121 0.0182561 15.1372 0.0354982 15.1522 0.0537542C14.9456 0.30224 14.7379 0.551739 14.5313 0.800224C13.7102 1.78707 13.1721 2.88344 13.0268 4.1421C12.8568 5.6178 13.2421 6.96165 14.1299 8.16857C15.2631 9.7102 16.4318 11.2275 17.5854 12.7549C18.6562 14.1728 19.728 15.5897 20.8009 17.0055C20.9129 17.1526 21.0356 17.2915 21.1894 17.4782C21.7695 16.7185 22.314 16.0106 22.851 15.2976C24.561 13.0247 26.2452 10.7336 27.9875 8.48197C28.8032 7.42718 29.2929 6.29631 29.3628 4.99506C29.4414 3.50821 28.9087 2.21101 28.0047 1.02741C27.7863 0.741399 27.5484 0.467558 27.3171 0.184589C27.3192 0.180532 27.3235 0.166333 27.3332 0.157205C27.3461 0.146049 27.3644 0.129821 27.3773 0.13185C27.4279 0.139963 27.486 0.14402 27.5258 0.169376C31.0954 2.47471 34.6639 4.78207 38.2734 7.11682C36.6839 7.46673 36.3879 8.67873 36.1372 9.87349C35.8326 11.3238 35.8789 12.7934 35.9855 14.2651C36.0963 15.8006 36.2846 17.323 36.6634 18.82C36.9217 19.8413 37.2865 20.8231 37.8956 21.7156C38.6877 22.8769 39.8273 23.4357 41.2704 23.4824C41.6073 23.4945 41.9473 23.4854 42.4079 23.4854ZM11.5729 13.6809C11.5622 13.6697 11.5482 13.6474 11.5396 13.6494C11.5148 13.6545 11.4933 13.6687 11.4696 13.6799C11.4804 13.691 11.4944 13.7133 11.503 13.7113C11.5277 13.7062 11.5503 13.692 11.5729 13.6809Z" fill="black"/>
<path d="M125.273 9.17849C124.546 7.29609 122.927 6.33765 120.945 5.77374C120.953 5.7281 120.96 5.68347 120.968 5.63783C121.102 5.60538 121.237 5.54756 121.371 5.54554C121.927 5.53742 122.483 5.54959 123.04 5.54858C126.411 5.54756 129.784 5.53945 133.155 5.55162C133.534 5.55264 133.768 5.436 134.012 5.1652C135.138 3.9177 136.604 3.26758 138.323 3.1763C139.085 3.13574 139.857 3.23107 140.623 3.28077C140.805 3.29294 140.983 3.36495 141.163 3.40958C141.164 3.44406 141.165 3.47854 141.167 3.51303C141.069 3.56577 140.977 3.64995 140.871 3.66618C138.791 3.99377 137.61 5.23721 137.025 7.05572C136.504 8.67747 136.525 10.3205 136.915 11.9666C136.968 12.1907 137.028 12.4139 137.115 12.7526C136.905 12.6563 136.774 12.636 136.718 12.564C136.454 12.2262 136.191 11.8844 135.963 11.5244C135.798 11.2648 135.685 10.9767 135.556 10.6978C135.21 9.95133 134.576 9.63895 133.744 9.5497C131.235 9.28093 128.953 10.8814 128.007 12.8906C127.198 14.6117 127.023 16.4241 127.1 18.271C127.205 20.8309 128.033 23.1403 129.842 25.0958C131.144 26.5025 132.759 27.4711 134.584 28.1597C136.608 28.9234 138.706 29.4204 140.863 29.6547C142.497 29.8332 144.146 29.893 145.789 30.0087C145.946 30.0198 146.103 30.0523 146.257 30.1375C145.822 30.4458 145.317 30.4346 144.84 30.4803C142.581 30.6963 140.331 30.5959 138.083 30.3068C135.639 29.9924 133.274 29.4255 131.029 28.4549C128.341 27.2926 126.079 25.6637 124.702 23.12C123.811 21.474 123.325 19.7254 123.208 17.8735C123.06 15.5103 123.352 13.2171 124.3 11.0183C124.569 10.3956 124.935 9.81036 125.273 9.17849Z" fill="black"/>
<path d="M80.2883 9.06312C80.2894 9.13006 80.2905 9.19801 80.2916 9.26495C80.2926 9.33291 80.2948 9.40086 80.2959 9.4678C80.2991 10.6514 80.3012 11.835 80.3045 13.0176C80.3034 13.0521 80.3023 13.0876 80.3012 13.1221C80.1441 13.3411 80.029 13.2285 79.9655 13.0653C79.888 12.8634 79.8568 12.6474 79.7922 12.4405C79.3811 11.1027 78.7968 9.8674 77.5097 9.05197C76.6628 8.51544 75.6942 8.33491 74.7096 8.26695C73.8906 8.21117 73.0652 8.2558 72.1881 8.2558C72.1709 8.42822 72.1451 8.57122 72.1451 8.71524C72.1429 12.9588 72.1139 17.2023 72.1591 21.4458C72.1752 22.9753 72.9985 24.2004 74.2468 25.1376C74.7978 25.5514 75.451 25.8455 76.0655 26.1822C76.1494 26.2279 76.2807 26.1893 76.3808 26.2188C76.5358 26.2644 76.6821 26.3344 76.8317 26.3942C76.821 26.4338 76.8102 26.4733 76.7994 26.5119C72.568 26.5119 68.3355 26.5119 64.1041 26.5119C64.089 26.4784 64.0739 26.4459 64.0578 26.4125C64.1977 26.3486 64.3311 26.2685 64.4775 26.2238C65.8065 25.811 66.943 25.1366 67.7501 24.0382C68.3968 23.1578 68.7552 22.1933 68.7498 21.0979C68.7315 17.0238 68.7423 12.9496 68.7412 8.87448C68.7412 8.69192 68.7412 8.50936 68.7412 8.25986C67.8405 8.25986 66.9806 8.20306 66.1337 8.27608C65.2943 8.34809 64.4463 8.46473 63.6768 8.85419C62.9278 9.23453 62.3629 9.76801 61.9485 10.4709C61.4557 11.3076 61.1124 12.192 60.8691 13.116C60.8552 13.1707 60.8046 13.2174 60.7185 13.3452C60.669 13.1819 60.6216 13.0977 60.6206 13.0135C60.6163 10.6463 60.6152 8.28014 60.6227 5.91294C60.6227 5.79224 60.7002 5.67155 60.7422 5.55086C60.7788 5.54579 60.8153 5.54072 60.8519 5.53564C61.0661 5.54274 61.2802 5.55593 61.4955 5.55593C67.5133 5.55694 73.5312 5.55694 79.5501 5.55694C79.7621 5.55694 79.9752 5.55694 80.2722 5.55694C80.2797 6.51336 80.2872 7.43225 80.2937 8.35215C80.2905 8.59151 80.2894 8.82681 80.2883 9.06312Z" fill="black"/>
<path d="M55.2254 26.5137C51.0316 26.5137 46.8378 26.5137 42.6441 26.5137C42.6322 26.4741 42.6215 26.4335 42.6096 26.394C42.8259 26.3088 43.0369 26.2104 43.2575 26.1394C44.5166 25.7388 45.5733 25.0826 46.3245 24.0288C46.8647 23.2712 47.1348 22.4213 47.2758 21.5297C47.4771 20.262 47.3307 19.0043 47.1456 17.7467C47.0251 16.9241 46.6194 16.2051 46.1943 15.5052C45.0912 13.6898 43.9537 11.8926 42.8281 10.0893C42.3018 9.24544 41.7982 8.38842 41.2364 7.56589C40.6542 6.71292 39.8342 6.1338 38.7645 5.90154C38.6192 5.8701 38.4836 5.80215 38.3438 5.75042C38.3448 5.70681 38.3459 5.6632 38.3481 5.61959C38.4869 5.59423 38.6257 5.54555 38.7645 5.54555C42.1189 5.54352 45.4722 5.54555 48.8266 5.55062C48.9589 5.55062 49.0913 5.58916 49.2247 5.60944C49.2355 5.65001 49.2462 5.68957 49.257 5.73014C49.1139 5.79708 48.974 5.8701 48.8276 5.92893C48.2164 6.17335 47.6083 6.40865 47.0961 6.83666C46.1179 7.65514 45.9188 8.61561 46.5612 9.69069C47.6675 11.5437 48.777 13.3957 49.8866 15.2466C49.964 15.3754 50.0577 15.4971 50.19 15.6888C50.5193 15.1523 50.8217 14.6645 51.1188 14.1746C51.9334 12.8257 52.747 11.4757 53.5573 10.1248C53.9028 9.5487 54.2493 8.95943 54.1524 8.26875C54.1126 7.98375 53.9964 7.66528 53.8048 7.44824C53.1559 6.71394 52.3671 6.14293 51.3727 5.86706C51.2942 5.84576 51.2274 5.78592 51.1467 5.63379C51.3135 5.60437 51.4803 5.54961 51.6471 5.54859C53.638 5.54251 55.6289 5.54352 57.6198 5.54352C58.4172 5.54352 59.2146 5.54352 60.0132 5.54352C60.0261 5.58409 60.0379 5.62364 60.0508 5.66421C59.9012 5.72101 59.7538 5.78085 59.6021 5.83257C58.598 6.17741 57.7984 6.75755 57.1161 7.54459C55.9098 8.93813 55.1199 10.5558 54.2052 12.1086C53.4411 13.4058 52.6749 14.702 51.8774 15.9809C51.0972 17.2315 50.7023 18.5814 50.6302 20.0165C50.5914 20.7904 50.5409 21.5713 50.7722 22.333C51.3738 24.3118 52.7653 25.5603 54.8046 26.2114C54.9606 26.2611 55.1124 26.324 55.2662 26.3818C55.2523 26.4264 55.2383 26.47 55.2254 26.5137Z" fill="black"/>
<path d="M106.682 5.54842C110.849 5.54842 115.015 5.54741 119.182 5.55248C119.271 5.55248 119.361 5.6184 119.582 5.70461C119.309 5.80908 119.156 5.87399 118.999 5.92571C117.703 6.34662 116.541 6.94805 115.76 8.06167C115.125 8.96636 114.743 9.93901 114.748 11.0476C114.765 14.36 114.743 17.6725 114.758 20.9849C114.769 23.2274 115.88 24.839 118.009 25.8258C118.36 25.9881 118.742 26.0916 119.107 26.2295C119.227 26.2751 119.338 26.3461 119.497 26.4293C119.077 26.5835 107.311 26.6169 106.547 26.4628C106.797 26.3441 106.941 26.2538 107.1 26.2021C108.107 25.8705 109.064 25.4577 109.798 24.697C110.785 23.6737 111.357 22.4931 111.354 21.0833C111.347 17.7029 111.388 14.3225 111.337 10.9431C111.307 8.97042 110.302 7.47139 108.474 6.49571C108.028 6.25737 107.527 6.10625 107.052 5.91456C106.914 5.85878 106.777 5.80198 106.64 5.74518C106.656 5.68027 106.67 5.61435 106.682 5.54842Z" fill="black"/>
<path d="M81.6549 5.65698C82.1079 5.49065 90.8904 5.50586 91.2821 5.69552C91.1745 5.77463 91.0938 5.86287 90.9905 5.90547C89.6733 6.44402 88.8984 7.42883 88.5498 8.69256C88.3216 9.51915 88.1849 10.3802 88.1268 11.2332C88.0558 12.2728 88.1096 13.3205 88.1096 14.4371C89.0685 14.4371 89.9875 14.4371 91.0217 14.4371C90.744 15.0396 90.5137 15.5416 90.2716 16.068C90.5019 16.565 90.7419 17.0833 91.0249 17.6928C90.0026 17.6928 89.0825 17.6928 88.0999 17.6928C88.0999 18.4819 88.1042 19.204 88.0989 19.9261C88.0913 20.9758 88.1613 22.0185 88.4206 23.0428C88.6477 23.9425 89.0082 24.7893 89.7486 25.4273C90.0876 25.7194 90.4976 25.9405 90.8796 26.188C91.0012 26.2671 91.1358 26.3299 91.3122 26.4263C90.8732 26.5855 82.2941 26.617 81.6172 26.4811C81.7097 26.3847 81.7678 26.2721 81.8604 26.2356C83.2669 25.6808 84.0288 24.6088 84.4313 23.2954C84.6229 22.6706 84.7434 22.0043 84.7488 21.3552C84.7789 17.8064 84.766 14.2566 84.7606 10.7078C84.7585 9.66013 84.4808 8.67126 83.961 7.74527C83.5112 6.94505 82.8537 6.34158 81.9906 5.93792C81.8808 5.8862 81.7786 5.81926 81.6775 5.75232C81.6581 5.7371 81.6613 5.68943 81.6549 5.65698Z" fill="black"/>
<path d="M96.0705 14.4405C97.0617 14.4405 97.9484 14.4405 98.7846 14.4405C98.8578 14.3593 98.8987 14.335 98.8997 14.3086C98.9944 12.7376 99.0525 11.1655 98.706 9.61479C98.3272 7.91901 97.18 6.8348 95.5152 6.1928C95.2344 6.08427 94.9416 6.00212 94.6597 5.89664C94.5392 5.85202 94.4305 5.77899 94.2787 5.69988C94.6726 5.52544 100.572 5.45444 104.623 5.54876C104.767 5.55181 104.911 5.58832 105.055 5.60962C105.061 5.65526 105.065 5.7009 105.07 5.74552C104.886 5.81348 104.705 5.88954 104.517 5.94938C102.927 6.45852 101.664 7.32569 100.939 8.80443C100.639 9.41601 100.506 10.055 100.505 10.7183C100.497 14.336 100.462 17.9538 100.506 21.5705C100.53 23.5148 101.691 24.8393 103.435 25.7491C103.808 25.9438 104.226 26.0625 104.622 26.2187C104.757 26.2724 104.89 26.3353 105.085 26.4205C104.641 26.5838 94.9578 26.6132 94.2109 26.457C94.4531 26.3465 94.5876 26.2674 94.7339 26.2207C95.6724 25.9164 96.5613 25.529 97.307 24.8931C98.2465 24.0908 98.7114 23.0462 98.8169 21.8991C98.9352 20.606 98.9051 19.3017 98.9352 18.0014C98.9374 17.9223 98.903 17.8422 98.8739 17.7124C97.9753 17.7124 97.0875 17.7124 96.0834 17.7124C96.2298 17.3746 96.3105 17.1049 96.4569 16.8706C96.7905 16.3361 96.8529 15.8259 96.4665 15.2843C96.3084 15.0673 96.233 14.7985 96.0705 14.4405Z" fill="black"/>
<path d="M93.496 19.8131C93.3368 19.4987 93.17 19.1873 93.0204 18.8688C92.6211 18.024 92.2176 17.1802 91.8409 16.3262C91.7753 16.1771 91.7699 15.957 91.8366 15.8099C92.3747 14.6213 92.9364 13.4427 93.5337 12.1709C93.7619 12.6283 93.9577 13.0127 94.146 13.4012C94.4947 14.1202 94.8348 14.8434 95.1867 15.5615C95.333 15.8607 95.389 16.1183 95.2179 16.457C94.6583 17.5605 94.1546 18.6883 93.6295 19.808C93.5843 19.809 93.5402 19.8111 93.496 19.8131Z" fill="black"/>
<path d="M87.25 32.7658C87.25 31.6907 87.25 30.6633 87.25 29.5923C89.1343 29.5923 91.0015 29.5923 92.9084 29.5923C92.9192 29.7606 92.9289 29.9229 92.9439 30.1532C91.3813 30.1532 89.85 30.1532 88.2605 30.1532C88.2422 30.4016 88.2282 30.5872 88.2088 30.8469C89.7295 30.8469 91.1887 30.8469 92.6846 30.8469C92.6996 31.0731 92.7104 31.2343 92.7265 31.4656C91.2167 31.4656 89.7413 31.4656 88.2444 31.4656C88.2444 31.7252 88.2444 31.9149 88.2444 32.1735C89.8123 32.1735 91.3426 32.1735 92.9084 32.1735C92.9213 32.4007 92.9299 32.5619 92.9418 32.7668C91.0381 32.7658 89.1688 32.7658 87.25 32.7658Z" fill="black"/>
<path d="M108.291 32.7754C107.885 32.8129 107.533 32.8302 107.156 32.6182C106.038 31.9874 104.891 31.4022 103.751 30.8027C103.633 30.7409 103.495 30.7105 103.286 30.6364C103.286 31.3758 103.286 32.0563 103.286 32.7703C102.943 32.7703 102.666 32.7703 102.344 32.7703C102.344 31.7227 102.344 30.6699 102.344 29.5999C102.724 29.4954 103.071 29.538 103.418 29.7216C104.429 30.2581 105.448 30.7845 106.466 31.3109C106.728 31.4468 106.999 31.5675 107.353 31.7369C107.353 30.9711 107.353 30.2906 107.353 29.5796C107.695 29.5796 107.973 29.5796 108.289 29.5796C108.291 30.6425 108.291 31.6953 108.291 32.7754Z" fill="black"/>
<path d="M63.1561 32.7621C62.4813 32.8493 61.9508 32.8807 61.502 32.3067C60.9876 31.6484 60.3473 31.0774 59.7318 30.4374C59.1614 31.0389 58.5631 31.5714 58.0949 32.1921C57.6365 32.7996 57.0855 32.8959 56.3516 32.761C56.3946 32.6758 56.4097 32.6109 56.4516 32.5673C57.3352 31.6464 58.2208 30.7275 59.1076 29.8086C59.4993 29.4019 59.9524 29.406 60.3452 29.8107C61.1996 30.692 62.0584 31.5703 62.9118 32.4517C62.9903 32.5308 63.0517 32.6272 63.1561 32.7621Z" fill="black"/>
<path d="M47.4799 29.5938C47.4799 29.8209 47.4799 30.0157 47.4799 30.2581C46.6718 30.2581 45.8926 30.2581 45.0425 30.2581C45.0425 31.1181 45.0425 31.9326 45.0425 32.7764C44.6949 32.7764 44.4183 32.7764 44.0707 32.7764C44.0707 31.9528 44.0707 31.1374 44.0707 30.2733C43.1882 30.2733 42.3736 30.2733 41.5234 30.2733C41.5234 30.0289 41.5234 29.8341 41.5234 29.5938C43.4863 29.5938 45.4589 29.5938 47.4799 29.5938Z" fill="black"/>
<path d="M123.473 29.5923C123.473 29.8164 123.473 30 123.473 30.2465C122.671 30.2465 121.877 30.2465 121.015 30.2465C121.015 31.1217 121.015 31.9362 121.015 32.779C120.668 32.779 120.392 32.779 120.062 32.779C120.062 31.9635 120.062 31.1623 120.062 30.2891C119.187 30.2891 118.36 30.2891 117.5 30.2891C117.5 30.0243 117.5 29.8296 117.5 29.5923C119.473 29.5923 121.444 29.5923 123.473 29.5923Z" fill="black"/>
<path d="M73.339 32.0931C74.752 32.0931 76.0574 32.0931 77.4058 32.0931C77.4058 32.3295 77.4058 32.5343 77.4058 32.7747C75.755 32.7747 74.1149 32.7747 72.4297 32.7747C72.4297 31.724 72.4297 30.6722 72.4297 29.585C72.7127 29.585 72.9904 29.585 73.339 29.585C73.339 30.3943 73.339 31.2118 73.339 32.0931Z" fill="black"/>
<path d="M80.3047 9.06392C80.306 8.82761 80.3085 8.5913 80.3098 8.35498C80.3072 8.59231 80.306 8.82761 80.3047 9.06392Z" fill="#C4C3CB"/>
<path d="M80.3098 9.46994C80.3085 9.40198 80.306 9.33403 80.3047 9.26709C80.3072 9.33504 80.3085 9.40198 80.3098 9.46994Z" fill="#C4C3CB"/>
<path d="M60.8527 5.54004C60.8159 5.54514 60.779 5.55025 60.7422 5.55535C60.779 5.55127 60.8159 5.54514 60.8527 5.54004Z" fill="#C4C3CB"/>
<path d="M80.3047 13.1266C80.3058 13.0919 80.3069 13.0562 80.308 13.0215C80.3167 13.046 80.3287 13.0705 80.3319 13.096C80.333 13.1052 80.3145 13.1164 80.3047 13.1266Z" fill="#C4C3CB"/>
<path d="M11.5571 13.6812C11.5344 13.6924 11.5116 13.7067 11.4867 13.7118C11.478 13.7139 11.465 13.6914 11.4531 13.6802C11.4759 13.6689 11.4986 13.6546 11.5235 13.6495C11.5322 13.6475 11.5463 13.67 11.5571 13.6812Z" fill="#FEFDFE"/>
</svg>
