<svg width="107" height="29" viewBox="0 0 107 29" fill="none" xmlns="http://www.w3.org/2000/svg">
<path d="M14.6162 26.8645C13.0172 27.1452 11.39 27.2293 9.70679 27.4534L4.57276 12.4228V28.0985C2.97373 28.2667 1.51494 28.4911 0 28.7154V0H4.26435L10.0995 16.2929V0H14.6162V26.8645ZM23.4533 10.5159C25.1928 10.5159 27.8579 10.4317 29.4569 10.4317V14.9184C27.465 14.9184 25.1366 14.9184 23.4533 15.0026V21.6768C26.0905 21.5086 28.7276 21.284 31.3926 21.1999V25.5182L18.9645 26.4999V0H31.3926V4.48679H23.4533V10.5159ZM48.0848 4.48689H43.4278V25.126C41.9129 25.126 40.398 25.126 38.9394 25.182V4.48689H34.2824V0H48.085L48.0848 4.48689ZM55.3788 10.2075H61.5228V14.6942H55.3788V24.8737H50.974V0H63.5146V4.48679H55.3788V10.2075ZM70.8086 20.9476C73.3616 21.0036 75.9425 21.2002 78.4394 21.3402V25.7709C74.4277 25.5184 70.4159 25.2663 66.3201 25.182V0H70.8086V20.9476ZM82.2267 26.0794C83.6574 26.1637 85.1724 26.2478 86.6312 26.4158V0H82.2267V26.0794ZM106.297 0L100.602 13.6567L106.297 28.7154C104.614 28.4911 102.931 28.1826 101.247 27.9021L98.0213 19.6017L94.7392 27.2293C93.1118 26.9486 91.5408 26.8645 89.9139 26.6401L95.693 13.4883L90.4748 0H95.2999L98.2456 7.54342L101.388 0L106.297 0Z" fill="black"/>
</svg>
