<svg width="88" height="54" viewBox="0 0 88 54" fill="none" xmlns="http://www.w3.org/2000/svg">
<path d="M78.7716 32.1986C79.2649 33.6554 80.2877 34.1314 81.582 34.4641C83.2835 34.9019 85.937 34.2423 86.891 32.7722C87.237 32.2388 87.2026 31.4626 87.5314 30.9101C88.8123 28.7517 87.1682 27.3408 86.2276 25.7999C85.9905 25.4118 85.1876 25.3678 84.6427 25.1728C84.4171 25.0925 84.1782 25.0466 83.9583 24.9549C83.0636 24.5897 83.0617 23.8021 83.0961 23.0259C83.1764 21.1294 82.6526 19.3839 81.4596 17.9577C78.7888 14.7651 72.8719 13.792 69.5817 16.4857C68.7654 17.1529 68.0006 17.8832 67.2053 18.5924C66.9797 16.8145 67.5093 15.8911 69.077 15.2927C70.2833 14.832 70.5529 14.4381 70.4917 13.1381C70.4688 12.6621 70.4248 12.1841 70.3311 11.7177C69.9774 9.93397 69.5415 9.62426 67.733 9.67014C67.3659 9.6797 66.8746 9.55735 66.649 9.30882C66.1844 8.79837 65.8097 8.18277 65.5 7.56144C65.3528 7.26512 65.3088 6.80247 65.4312 6.50423C66.4234 4.11067 66.4253 4.07244 64.3204 2.66345C64.2153 2.59271 64.1102 2.51815 64.0069 2.44551C62.4813 1.36152 61.9441 1.41697 60.6804 2.78772C60.2388 3.26757 57.3711 3.06684 57.0079 2.52389C56.941 2.42256 56.9257 2.28683 56.8932 2.16447C56.2929 -0.0531979 56.0615 -0.202317 53.7559 0.139892C53.473 0.181952 53.1843 0.20107 52.9033 0.256511C51.4637 0.539456 50.959 1.15314 50.936 2.61566C50.9303 2.92728 51.0221 3.38802 50.8577 3.52758C50.1541 4.1145 49.42 4.72053 48.5941 5.08377C48.227 5.24436 47.5923 4.90215 47.1201 4.69377C45.9807 4.18714 45.3899 4.27891 44.6233 5.26539C44.1358 5.89246 43.6827 6.55202 43.2679 7.22879C42.8282 7.94571 42.8912 8.76587 43.5508 9.21132C44.6596 9.96074 44.6577 10.8459 44.2601 11.9241C44.1511 12.2186 44.1091 12.5455 44.0919 12.8609C44.0613 13.4115 43.8491 13.704 43.2602 13.8206C42.377 13.9965 41.5626 14.3158 41.1362 15.2602C41.033 15.4896 40.5436 15.6712 40.2511 15.6464C40.058 15.6311 39.8802 15.2181 39.7272 14.9639C39.4233 14.4611 39.1996 13.8952 38.8325 13.4459C38.433 12.9584 37.9072 12.5722 37.435 12.1459C35.2919 10.2188 35.0415 10.236 32.9863 12.2434C32.7626 12.4614 32.3095 12.6143 32.0113 12.555C31.3001 12.4136 30.5927 12.1765 29.9351 11.8725C29.6904 11.7597 29.3959 11.3124 29.4437 11.081C29.7305 9.67588 29.2927 8.40454 28.6924 7.21732C28.4458 6.72982 27.7977 6.26525 27.2528 6.14481C25.8477 5.8351 25.8056 5.9154 25.7731 4.50832C25.7349 2.75713 24.3431 2.3308 23.1234 1.74579C22.1369 1.27358 21.2823 1.47814 20.5597 2.32124C20.076 2.88522 19.3228 2.87948 19.0016 2.35756C17.9826 0.698134 16.6348 1.06711 15.2258 1.53741C13.9067 1.97903 13.5128 2.51815 13.4497 3.90037C13.4096 4.79127 12.903 5.1698 12.0369 5.10862C11.5227 5.0723 10.9128 5.08568 10.4884 5.32657C8.7391 6.32452 8.31469 9.19029 9.5822 10.7503C9.75235 10.9606 9.85941 11.4653 9.73323 11.624C9.3719 12.0809 8.87484 12.4327 8.37395 12.8743C8.09101 12.4862 7.93042 12.0962 7.63983 11.8993C7.05864 11.5074 6.4354 11.0294 5.77775 10.9357C4.68612 10.7771 3.55243 10.8669 2.43977 10.8994C0.97343 10.9415 0.480189 11.4424 0.480189 12.88C0.482101 16.2257 0.581514 19.5732 0.49166 22.915C0.403718 26.1192 1.01549 29.3673 0.015625 32.4605C0.180039 32.4491 0.397982 32.4319 0.615926 32.4147C0.63122 32.7129 0.646514 33.013 0.675191 33.5713C2.1683 33.6573 3.76464 33.8313 5.36098 33.8122C6.62276 33.795 7.77365 34.0263 8.81366 34.7031C9.87662 35.3932 10.9568 35.1695 11.97 34.8981C12.1153 35.4104 12.36 35.9018 12.3734 36.3988C12.4327 38.389 13.8531 39.3487 15.2774 40.2511C15.9179 40.6583 16.067 40.9833 15.6655 41.6008C15.1761 42.3521 15.1512 43.1283 15.4858 43.9714C15.6005 44.2601 15.5527 44.7094 15.4017 44.9904C14.6178 46.4472 15.199 48.1181 16.7093 48.7566C16.9961 48.877 17.3135 49.2307 17.3766 49.5271C17.757 51.3509 19.2616 52.1481 21.0319 51.4503C21.2919 51.3471 21.7067 51.3815 21.9438 51.5249C23.4006 52.4043 25.1862 51.8116 25.7808 50.2363C25.863 50.0184 26.0981 49.7469 26.3046 49.7049C28.0367 49.3474 28.9467 48.0817 28.7765 46.2713C28.7517 46.0036 28.9046 45.5123 29.069 45.4683C30.5813 45.0611 31.7379 44.1894 32.5905 42.8587C32.7683 42.9773 32.9041 43.0212 32.9633 43.1149C33.8313 44.4838 35.1045 44.6788 36.5613 44.3958C36.9934 44.3117 37.4388 44.2161 37.8728 44.2333C39.5494 44.3002 41.2242 44.3958 42.8989 44.5086C44.2085 44.5985 45.0783 46.2044 44.4666 47.3648C43.8223 48.5884 43.9714 49.1848 45.1854 50.2478C46.2445 51.175 46.9098 51.2305 48.0053 50.4772C49.2766 49.6016 50.8806 50.1981 51.3012 51.6988C51.6013 52.7733 52.1271 53.1595 53.2531 53.0906C53.6967 53.0639 54.1402 52.9989 54.5818 52.9319C55.4192 52.8039 55.8589 52.3183 55.9526 51.4675C56.1265 49.8674 57.6846 49.0319 59.0955 49.7622C60.2617 50.3663 60.971 50.1828 61.9976 49.0109C62.9363 47.9403 63.0051 47.1354 62.2519 46.1011C61.3744 44.8948 61.9823 43.1799 63.4353 42.7651C64.5957 42.4343 65.0508 41.8398 64.8634 40.6621C64.7143 39.7215 64.4141 38.8058 64.1293 37.6721C64.5881 37.4732 65.2802 37.1903 65.9589 36.8787C66.4483 36.6531 66.6758 36.8271 66.7446 37.3184C66.779 37.5707 66.7771 37.8365 66.8631 38.0716C67.0486 38.5744 67.2818 39.0581 67.4959 39.5494C67.7961 39.0409 68.2492 38.5668 68.3677 38.02C68.708 36.4485 69.3848 35.2326 71.0289 34.7585C71.2105 34.705 71.3788 34.5998 71.5623 34.552C72.7228 34.2385 73.9023 33.9861 75.0417 33.6133C76.2729 33.2061 77.485 32.69 78.7716 32.1986Z" fill="white"/>
<path d="M78.7713 32.2007C77.4847 32.6921 76.2726 33.2102 75.0261 33.6174C73.8867 33.9902 72.7071 34.2425 71.5467 34.5561C71.3631 34.6058 71.1968 34.7109 71.0133 34.7625C69.3691 35.2367 68.6924 36.4545 68.3521 38.024C68.2335 38.5708 67.7804 39.0468 67.4803 39.5535C67.2662 39.0621 67.0349 38.5765 66.8475 38.0757C66.7615 37.8424 66.7653 37.5748 66.729 37.3224C66.6601 36.8292 66.4326 36.6571 65.9432 36.8827C65.2645 37.1962 64.5725 37.4792 64.1136 37.6761C64.3985 38.8098 64.6986 39.7255 64.8478 40.6661C65.0351 41.8457 64.5801 42.4384 63.4197 42.7691C61.9667 43.184 61.3569 44.9007 62.2363 46.1052C62.9895 47.1414 62.9207 47.9462 61.982 49.0149C60.9554 50.1868 60.2461 50.3704 59.0799 49.7662C57.669 49.0359 56.1109 49.8695 55.9369 51.4715C55.8452 52.3223 55.4035 52.8098 54.5662 52.936C54.1265 53.0029 53.6829 53.0679 53.2375 53.0947C52.1115 53.1616 51.5857 52.7773 51.2856 51.7029C50.8669 50.2002 49.2629 49.6056 47.9896 50.4812C46.8961 51.2345 46.2289 51.179 45.1698 50.2518C43.9558 49.187 43.8067 48.5924 44.4509 47.3689C45.0608 46.2084 44.1928 44.6025 42.8833 44.5126C41.2085 44.3979 39.5338 44.3043 37.8572 44.2373C37.4232 44.2201 36.9778 44.3157 36.5457 44.3998C35.0889 44.6828 33.8157 44.4878 32.9477 43.1189C32.8885 43.0253 32.7508 42.9813 32.5749 42.8628C31.7242 44.1953 30.5656 45.0651 29.0534 45.4724C28.889 45.5163 28.7361 46.0077 28.7609 46.2753C28.933 48.0858 28.023 49.3514 26.289 49.7089C26.0825 49.7509 25.8493 50.0224 25.7651 50.2404C25.1706 51.8157 23.385 52.4083 21.9282 51.5289C21.6892 51.3855 21.2763 51.3511 21.0163 51.4543C19.2459 52.1521 17.7433 51.3568 17.3609 49.5311C17.2997 49.2348 16.9805 48.8811 16.6937 48.7606C15.1834 48.1221 14.6003 46.4531 15.3861 44.9944C15.5371 44.7134 15.583 44.2641 15.4702 43.9754C15.1356 43.1323 15.1605 42.3562 15.6499 41.6048C16.0514 40.9873 15.9041 40.6623 15.2618 40.2551C13.8375 39.3508 12.4151 38.3911 12.3578 36.4029C12.3425 35.9058 12.0978 35.4145 11.9544 34.9021C10.9412 35.1755 9.8629 35.3992 8.79804 34.7071C7.75803 34.0303 6.60713 33.8009 5.34535 33.8162C3.74901 33.8372 2.15267 33.6614 0.659566 33.5753C0.630889 33.0171 0.615595 32.7188 0.600301 32.4187C0.382357 32.4359 0.164414 32.4512 0 32.4646C0.999864 29.3713 0.388092 26.1213 0.476034 22.919C0.5678 19.5772 0.466476 16.2297 0.464564 12.8841C0.464564 11.4464 0.957805 10.9455 2.42414 10.9035C3.53872 10.871 4.67049 10.783 5.76212 10.9398C6.41786 11.0354 7.04302 11.5114 7.6242 11.9033C7.91479 12.1002 8.07538 12.4902 8.35833 12.8783C8.85921 12.4348 9.35628 12.0849 9.71761 11.628C9.84378 11.4674 9.73672 10.9627 9.56658 10.7543C8.29906 9.19431 8.72348 6.32855 10.4728 5.3306C10.8972 5.08971 11.507 5.07633 12.0213 5.11265C12.8873 5.17383 13.394 4.7953 13.4341 3.9044C13.4972 2.52218 13.8891 1.98306 15.2102 1.54144C16.6192 1.07114 17.967 0.702163 18.9859 2.36159C19.3052 2.88351 20.0604 2.88733 20.544 2.32527C21.2686 1.48217 22.1213 1.27761 23.1078 1.74982C24.3294 2.33483 25.7193 2.76116 25.7575 4.51235C25.7881 5.91943 25.832 5.83913 27.2372 6.14884C27.7821 6.26928 28.4302 6.73385 28.6768 7.22135C29.2771 8.40666 29.7168 9.678 29.4281 11.0851C29.3803 11.3145 29.6747 11.7618 29.9194 11.8765C30.579 12.1805 31.2845 12.4176 31.9956 12.5591C32.2939 12.6183 32.747 12.4673 32.9707 12.2474C35.0258 10.2401 35.2763 10.2229 37.4194 12.1499C37.8935 12.5763 38.4173 12.9624 38.8169 13.45C39.1859 13.8992 39.4076 14.4651 39.7116 14.9679C39.8646 15.2222 40.0424 15.6351 40.2354 15.6504C40.5279 15.6753 41.0174 15.4936 41.1206 15.2642C41.5469 14.3198 42.3613 14.0005 43.2446 13.8247C43.8353 13.708 44.0456 13.4155 44.0762 12.8649C44.0934 12.5495 44.1355 12.2226 44.2445 11.9282C44.6421 10.8499 44.644 9.96668 43.5352 9.21534C42.8756 8.7699 42.8144 7.94974 43.2522 7.23282C43.6671 6.55605 44.1183 5.89648 44.6077 5.26942C45.3743 4.28485 45.9651 4.19117 47.1045 4.69779C47.5748 4.90618 48.2114 5.24839 48.5785 5.0878C49.4044 4.72456 50.1385 4.12044 50.842 3.53161C51.0064 3.39396 50.9147 2.93322 50.9204 2.61968C50.9434 1.15526 51.4481 0.541572 52.8876 0.26054C53.1687 0.205098 53.4554 0.18598 53.7403 0.143921C56.0478 -0.198289 56.2772 -0.0491696 56.8775 2.1685C56.91 2.29086 56.9253 2.42659 56.9922 2.52792C57.3555 3.07086 60.2213 3.2716 60.6648 2.79174C61.9285 1.42099 62.4657 1.36746 63.9913 2.44953C64.0945 2.52409 64.1997 2.59674 64.3048 2.66748C66.4097 4.07646 66.4059 4.11661 65.4156 6.50826C65.2913 6.80649 65.3353 7.26915 65.4844 7.56547C65.796 8.1868 66.1688 8.80049 66.6334 9.31285C66.859 9.56138 67.3503 9.68373 67.7174 9.67417C69.5259 9.6302 69.9618 9.93991 70.3155 11.7217C70.4072 12.1882 70.4531 12.6661 70.4761 13.1422C70.5372 14.4403 70.2677 14.836 69.0613 15.2967C67.4937 15.8951 66.966 16.8204 67.1897 18.5965C67.985 17.8872 68.7516 17.1569 69.5661 16.4897C72.8582 13.796 78.7751 14.771 81.444 17.9618C82.6369 19.388 83.1608 21.1334 83.0805 23.0299C83.048 23.8042 83.048 24.5918 83.9427 24.9589C84.1645 25.0488 84.4015 25.0965 84.6271 25.1768C85.172 25.3718 85.9749 25.4158 86.212 25.8039C87.1526 27.3429 88.7967 28.7557 87.5158 30.9141C87.187 31.4666 87.2233 32.2428 86.8754 32.7762C85.9214 34.2464 83.2678 34.9078 81.5663 34.4681C80.2874 34.1336 79.2645 33.6575 78.7713 32.2007ZM24.1229 37.0032C24.2395 36.6609 24.3542 36.3187 24.4938 35.9115C24.3848 35.8121 24.1497 35.6018 23.9528 35.4221C23.7425 35.6439 23.5379 35.8618 23.3926 36.0148C23.6278 36.3283 23.8801 36.6609 24.1306 36.9936C24.3256 38.458 24.5148 39.9244 26.549 40.4616C25.8645 40.6852 25.4822 40.8114 25.0998 40.9357C23.9757 41.3066 23.7081 42.0331 24.4422 42.9947C24.7767 43.4344 25.247 43.8473 25.746 44.0691C26.9696 44.6121 28.2696 44.7096 29.5753 44.3329C31.0761 43.9009 31.9345 42.7672 31.9956 41.1651C32.0606 39.4541 31.5808 38.7524 29.8927 38.0833C29.6403 37.9839 29.3937 37.8711 29.084 37.7373C31.4565 37.114 31.4565 37.114 31.3208 36.2537C29.9233 36.3742 29.7608 36.1505 29.9902 34.4069C28.3231 33.3134 25.2031 34.1202 24.7557 35.6248C24.9412 35.7414 25.1266 35.858 25.2585 35.9421C24.8379 36.334 24.4766 36.6724 24.1229 37.0032ZM16.5331 11.4846C15.7436 11.4846 15.0171 11.477 14.2906 11.4865C13.5182 11.4961 13.1091 11.9282 13.069 12.6699C13.025 13.4958 13.0326 14.3255 13.0307 15.1534C13.0269 17.1779 13.0288 19.2006 13.0288 21.2252C12.6465 20.9767 12.4362 20.6784 12.2431 20.3668C10.6123 17.7438 8.97583 15.1228 7.36611 12.4883C6.94552 11.8001 6.42169 11.4196 5.58241 11.4655C4.75652 11.5095 3.92681 11.4713 3.099 11.4751C1.19487 11.4808 0.96354 11.7064 0.961628 13.6182C0.955893 18.6194 0.948246 23.6207 0.959717 28.6219C0.961628 29.4459 1.05722 30.2698 1.10692 31.0938C1.15472 31.8929 1.64796 32.2046 2.37444 32.2199C3.29783 32.239 4.22122 32.2294 5.14653 32.2294C7.01243 32.2294 7.26478 31.9866 7.35273 30.0959C7.36611 29.8091 7.36037 29.5223 7.36037 29.2356C7.36229 27.2932 7.35846 25.3489 7.3642 23.4065C7.3642 23.093 7.40052 22.7814 7.41964 22.4678C9.05613 24.7868 10.4651 27.1288 11.9353 29.4325C14.0229 32.7035 13.0785 32.1835 16.8352 32.2313C16.9633 32.2332 17.0895 32.2313 17.2175 32.2313C19.0471 32.2313 19.3779 31.9312 19.3855 30.0615C19.4027 25.2189 19.4295 20.3763 19.3549 15.5357C19.3415 14.6563 18.9955 13.7119 18.5501 12.9433C18.3493 12.5973 17.5349 12.5686 16.9862 12.473C16.3668 12.366 16.1546 12.1117 16.5331 11.4846ZM46.7757 30.31C46.8177 31.4265 46.9936 32.0612 48.1426 31.5201C48.6855 31.264 49.3738 31.2754 49.997 31.2563C50.2781 31.2487 50.5725 31.4494 50.8497 31.5775C51.1039 31.696 51.45 32.0153 51.5723 31.9427C51.8591 31.7687 52.1937 31.4341 52.23 31.1301C52.4001 29.7422 52.4976 28.3447 52.5798 26.9472C52.75 24.024 52.88 21.099 53.0521 18.1759C53.1056 17.2659 52.7653 16.7975 51.8209 16.7726C50.8669 16.7478 49.9148 16.6637 48.9608 16.6197C47.8157 16.5662 47.5671 16.7879 47.4907 17.9579C47.3626 19.8965 47.2632 21.837 47.1293 23.7736C47.0548 24.8518 46.5252 25.498 45.6726 25.6318C44.384 25.8326 43.4855 25.0717 43.5352 23.7411C43.6136 21.6725 43.7455 19.6078 43.8583 17.5412C43.9022 16.7229 43.5505 16.289 42.7055 16.2526C41.6884 16.2106 40.6713 16.1532 39.6562 16.0653C38.7041 15.9812 38.3275 16.4476 38.2797 17.3385C38.1344 20.0724 37.9222 22.8043 37.8476 25.5401C37.8209 26.5399 37.9948 27.58 38.272 28.5454C38.7538 30.2259 39.8837 31.3041 41.6463 31.6922C43.5027 32.1013 45.1755 31.7974 46.7757 30.31ZM32.6208 25.4713C32.6418 25.3929 32.6648 25.3145 32.6858 25.238C33.3148 25.1807 33.9438 25.1329 34.5708 25.066C36.0563 24.9092 36.1404 24.8174 36.2188 23.3301C36.2283 23.1408 36.2226 22.9477 36.2073 22.7584C35.9779 19.8965 34.8595 17.5354 32.097 16.3769C29.2484 15.182 26.4094 15.3579 23.8476 17.2085C21.1443 19.1624 20.2343 22.6934 21.3202 26.3449C22.1251 29.0501 23.9394 30.6618 26.6235 31.285C28.3365 31.6826 30.0342 31.6674 31.7796 31.0843C33.0701 30.6541 34.1885 30.0978 35.0526 29.0941C35.9091 28.1019 35.6644 27.0466 34.5307 26.4635C33.894 26.1346 33.2574 25.802 32.6208 25.4713ZM67.5988 27.3601C67.7996 26.8936 67.8952 26.5572 68.0787 26.2799C68.2871 25.9626 68.5738 25.6968 68.8281 25.4082C69.0575 25.7446 69.4074 26.0524 69.4934 26.4214C69.7439 27.5016 69.8471 28.6181 70.1014 29.6982C70.1797 30.0328 70.4971 30.4113 70.8068 30.5719C72.6899 31.5393 74.6839 31.6788 76.7505 31.2888C77.4675 31.1531 77.7428 30.8529 77.7428 30.1016C77.7428 29.6026 78.041 29.1037 78.1959 28.6028C78.257 28.4058 78.3335 28.2013 78.3316 28.0025C78.3067 26.4711 79.2741 25.4942 80.469 25.5382C81.2337 24.999 81.7938 24.6033 82.4706 24.1254C83.0652 21.208 81.6122 18.1549 78.7292 16.5394C75.6513 14.815 71.518 15.2834 68.9466 17.6501C66.6735 19.7416 66.0216 23.9973 67.5988 27.3601ZM12.3845 16.656C12.3845 15.5548 12.3731 14.381 12.3865 13.2091C12.4075 11.456 13.0097 10.8423 14.7513 10.869C15.3172 10.8786 15.6308 10.6645 16.0208 10.2611C16.5733 9.68756 17.2615 9.14652 17.9976 8.8674C19.5059 8.29386 21.3317 9.13123 22.1461 10.5957C22.7713 11.7198 22.4673 13.4442 21.1807 14.2185C20.0374 14.9067 19.9265 15.7575 19.982 16.874C20.0432 18.1128 19.9877 19.3574 19.9992 20.6C20.003 21.0283 20.0489 21.4546 20.0757 21.8828C20.1483 21.9172 20.221 21.9536 20.2936 21.988C21.238 17.6081 24.0369 15.4 28.6997 14.9928C28.218 14.423 27.9694 14.0158 27.6196 13.7386C26.7421 13.0447 26.7841 12.0238 27.7534 11.5401C28.6863 11.0755 28.9674 10.4848 28.7016 9.45049C28.5755 8.95917 28.3881 8.48313 28.2256 8.00136C27.8624 6.9212 27.5737 6.75296 26.461 6.96326C25.5701 7.1315 24.5588 6.07619 24.7787 5.20824C25.1381 3.78587 25.0387 3.57366 23.7061 2.89307C23.4519 2.76307 23.1842 2.65027 22.9414 2.49924C22.1633 2.01556 21.5994 2.19144 21.1061 2.95998C20.5154 3.87573 18.6609 3.69793 18.2231 2.7038C17.8656 1.89129 17.338 1.57776 16.4815 1.96203C16.2215 2.07865 15.9386 2.14365 15.6652 2.2335C14.2466 2.69998 14.1644 2.82425 14.3002 4.27529C14.3805 5.14133 13.0154 6.17178 12.1743 5.96149C11.725 5.84869 10.9163 5.77987 10.7959 5.99207C10.2606 6.92694 9.83996 7.94974 9.54937 8.98784C9.46143 9.29946 9.84187 9.87109 10.1611 10.1426C11.1629 10.9933 11.1362 11.846 10.0006 12.4558C8.97392 13.0083 8.82863 13.4901 9.40407 14.5416C9.69466 15.0711 10.0522 15.5644 10.3275 16.0997C10.7729 16.9638 11.3962 17.176 12.3845 16.656ZM60.7852 17.5431C60.6476 15.855 60.5176 15.7441 58.7645 15.8244C58.0953 15.855 57.4262 15.876 56.759 15.8856C55.3806 15.9047 55.1263 16.1437 55.1608 17.5106C55.2544 21.2692 55.3558 25.0277 55.4685 28.7844C55.4838 29.291 55.4838 29.8359 55.6712 30.289C55.8108 30.6273 56.2275 31.0613 56.543 31.0823C57.6518 31.1531 58.7702 31.0728 59.8829 31.0346C60.6074 31.0097 60.9993 30.635 61.0032 29.8932C61.0108 28.3332 61.0299 26.7751 61.0204 25.2151C61.007 22.8158 61.6723 22.074 64.085 21.9574C64.7178 21.9268 65.0581 21.7108 65.0581 21.0742C65.0581 19.5485 65.0676 18.021 65.0313 16.4954C65.0045 15.4057 64.5342 15.0769 63.563 15.6064C62.5861 16.1417 61.7182 16.8797 60.7852 17.5431ZM23.8514 38.7066C23.6335 38.9455 23.5111 39.0832 23.3869 39.2189C22.9969 39.6414 21.867 39.607 21.6242 39.0927C21.2935 38.393 20.848 38.3758 20.2248 38.6071C19.5595 38.8538 18.8598 38.978 19.028 39.9932C19.1293 40.603 18.2824 41.297 17.7242 41.0638C16.8715 40.7082 16.6555 41.2875 16.3668 41.8189C16.0227 42.4498 15.7015 43.075 16.3878 43.7097C17.0875 44.3597 17.0799 44.765 16.298 45.2276C15.7856 45.5316 15.6786 45.9121 15.8143 46.4244C15.9041 46.7628 16.0418 47.0878 16.1278 47.4262C16.2712 47.9844 16.5771 48.1775 17.1736 48.1106C18.1218 48.0036 18.3799 48.319 18.2059 49.3303C18.0492 50.2442 18.6456 50.5539 19.2957 50.8789C19.8596 51.1618 20.2688 51.1542 20.6645 50.5596C21.0488 49.9804 22.106 50.0396 22.408 50.6457C22.6929 51.2192 22.9778 51.506 23.6583 51.2536C24.3523 50.9955 25.0731 50.8846 24.987 49.8427C24.9201 49.0531 25.5835 48.5408 26.3329 48.7855C27.046 49.0187 27.3538 48.6918 27.5699 48.1317C27.8241 47.4683 28.5659 46.7284 27.6234 46.1224C26.5279 45.415 25.3312 44.8625 24.1803 44.2431C24.3409 45.4054 23.8648 46.3403 22.9166 46.7303C21.9569 47.1261 20.7505 46.7915 20.1846 45.9733C19.6436 45.1913 19.6818 44.2794 20.286 43.6026C21.1195 42.6659 22.2551 42.6104 23.7176 43.4344C23.6335 41.2856 23.6335 41.2856 24.6257 40.5591C24.4823 40.2857 24.316 40.018 24.1956 39.7332C24.0694 39.4464 23.9929 39.1444 23.8514 38.7066ZM44.1775 36.5042C44.1125 36.357 44.0494 36.139 44.015 36.1448C43.1433 36.2537 42.2715 36.3742 41.4093 36.5386C41.3347 36.552 41.2869 36.877 41.2774 37.0586C41.1837 38.8041 41.1206 40.5533 41.004 42.2969C40.9447 43.182 41.2449 43.6275 42.1778 43.5319C42.3652 43.5128 42.5621 43.5243 42.7494 43.551C43.4453 43.6447 43.7359 43.335 43.755 42.6487C43.778 41.7903 43.8717 40.9357 43.9042 40.0773C43.9233 39.5688 44.0495 39.1769 44.6383 39.1845C45.2405 39.1902 45.2328 39.6319 45.2137 40.0658C45.1851 40.67 45.1755 41.2741 45.1373 41.8782C45.0187 43.7231 45.0168 43.6906 46.8693 43.7823C47.5863 43.8168 47.8463 43.551 47.8788 42.8781C47.9208 41.9891 47.9552 41.0944 48.1005 40.2188C48.1521 39.9091 48.5154 39.651 48.7372 39.368C48.9398 39.6682 49.2992 39.9588 49.3145 40.2666C49.3585 41.1517 49.2629 42.0445 49.2266 42.9335C49.1979 43.6217 49.4675 44.0251 50.2226 43.9946C50.5075 43.9831 50.7961 44.0137 51.0791 44.0481C51.6259 44.115 51.9298 43.9219 51.947 43.335C51.9967 41.5876 52.1535 39.8364 52.0598 38.0986C52.0292 37.5212 51.4041 36.9458 50.9682 36.4392C50.8611 36.313 50.4176 36.4086 50.1576 36.4946C49.6758 36.6533 49.217 37.0299 48.7448 37.0337C48.2917 37.0376 47.7755 36.7661 47.3893 36.4774C46.2996 35.6687 45.3934 35.6267 44.1775 36.5042ZM86.1412 26.995C86.1604 26.3354 85.2962 25.8919 84.6634 26.0582C84.3136 26.1499 83.8605 25.9282 83.4781 25.7829C83.1531 25.6586 82.8492 25.282 82.5605 25.3068C82.245 25.3336 81.964 25.7026 81.6562 25.9033C81.3121 26.127 80.8532 26.5839 80.6219 26.4922C80.014 26.2494 79.7329 26.5839 79.5379 26.9491C79.3697 27.2607 79.255 27.7597 79.3907 28.0426C79.6679 28.6123 79.5838 28.8322 79.0409 29.1648C78.7675 29.3331 78.6929 29.9467 78.6757 30.3654C78.6662 30.5948 78.9491 31.0231 79.1288 31.0403C79.9126 31.1129 79.9834 31.4399 79.8018 32.13C79.7272 32.4149 79.9872 32.9024 80.2434 33.1241C80.446 33.3 80.9393 33.3363 81.1954 33.2121C81.7346 32.9502 82.0462 33.0285 82.3827 33.518C82.5547 33.7665 82.8893 34.0055 83.1818 34.0475C83.6712 34.1202 84.1281 33.9749 84.2295 33.3478C84.3308 32.7284 84.6825 32.6213 85.2695 32.8125C85.5142 32.8928 85.9998 32.7877 86.1087 32.606C86.3362 32.2294 86.5867 31.6769 86.4624 31.3213C86.2693 30.765 86.2196 30.4973 86.8123 30.2048C87.4317 29.899 87.491 28.5186 86.9002 28.3714C86.0284 28.1516 85.7742 27.7769 86.1412 26.995ZM60.6782 40.1308C60.7279 40.1308 60.7776 40.1308 60.8273 40.1308C60.8273 39.1463 60.812 38.1617 60.833 37.1771C60.8464 36.552 60.6151 36.2384 59.9536 36.2212C58.7473 36.1868 57.5314 36.4851 56.3346 36.0071C55.5833 35.707 55.1837 36.5864 54.6044 36.7011C53.7021 36.8789 53.3159 37.4868 53.205 38.1732C53.0329 39.2476 52.88 40.41 53.1075 41.4481C53.5893 43.6428 55.2888 44.4075 57.4836 43.6447C57.6097 43.6007 57.7608 43.5873 57.8927 43.6065C58.5331 43.7001 59.1698 43.8321 59.814 43.9047C60.399 43.9716 60.6973 43.7078 60.682 43.0807C60.661 42.1 60.6782 41.1154 60.6782 40.1308ZM35.7122 35.6687C35.7045 35.6687 35.5344 35.5999 35.4024 35.6458C34.7811 35.858 34.1693 36.097 33.5595 36.3398C33.4849 36.3703 33.4467 36.487 33.3874 36.5596C32.0721 38.1598 32.0473 39.911 32.8234 41.7272C33.5805 43.4956 35.3719 44.1054 37.0944 43.2298C37.2511 43.1495 37.427 43.052 37.5914 43.0578C38.2912 43.0807 38.9928 43.1859 39.6906 43.1553C39.9066 43.1457 40.2928 42.7978 40.2851 42.6181C40.1838 40.2513 40.526 37.8214 39.335 35.3609C38.792 35.8178 38.3734 36.2748 37.8629 36.573C37.4309 36.8254 36.8631 37.0624 36.41 36.984C36.15 36.9401 36.0008 36.2518 35.7122 35.6687ZM74.6189 33.3019C73.3112 32.8335 72.2655 32.3327 71.1624 32.0956C69.7916 31.7993 69.3462 30.9982 69.2774 29.7078C69.22 28.6353 68.9791 27.5723 68.7784 26.2321C68.203 27.8381 67.7002 29.14 67.2796 30.4687C67.0846 31.0862 66.729 31.3099 66.1268 31.3844C64.7369 31.5565 63.3547 31.7821 61.7316 32.0229C63.303 32.5888 64.626 33.1108 65.9795 33.5371C66.6047 33.734 66.8074 34.0915 66.88 34.6918C67.0444 36.0549 67.2681 37.4123 67.4688 38.7716C68.115 37.4161 68.5758 36.0377 69.1206 34.6937C69.2449 34.3897 69.6387 34.0552 69.958 33.9978C71.4205 33.7263 72.8983 33.5486 74.6189 33.3019ZM19.223 9.41035C19.3052 11.0067 18.4621 11.7007 17.0264 11.9893C18.638 11.9301 19.3473 12.7158 19.5327 14.2242C19.548 12.712 20.2305 11.8441 21.758 11.5955C20.1904 11.6586 19.4754 10.8862 19.223 9.41035ZM50.0123 33.6365C49.6242 34.514 49.3011 35.2462 48.978 35.9765C49.4675 35.6687 49.89 35.2653 50.1079 34.7721C50.3909 34.1336 50.2647 33.2465 51.2913 33.1069C50.9988 33.0496 50.7044 32.9903 50.431 32.9368C50.3564 32.5755 50.2933 32.2657 50.2303 31.956C49.758 32.4952 49.8651 33.5543 48.7333 33.0477C48.6454 32.7628 48.5536 32.4665 48.4619 32.1721C48.4007 32.1778 48.3376 32.1816 48.2764 32.1874C48.198 32.5028 48.1216 32.8183 48.047 33.1222C47.6971 33.2197 47.376 33.3096 47.0567 33.3975C47.0701 33.474 47.0835 33.5505 47.0988 33.6288C47.418 33.6633 47.7392 33.6977 48.047 33.7302C48.1349 34.0628 48.2152 34.3611 48.2936 34.6612C48.3682 34.6555 48.4427 34.6497 48.5173 34.6421C48.5861 34.3247 48.653 34.0093 48.7333 33.6384C49.0564 33.6365 49.3891 33.6365 50.0123 33.6365ZM42.9922 35.1946C43.0878 34.4853 43.2236 33.8927 43.2178 33.3C43.2159 33.0591 42.9119 32.6194 42.7437 32.6175C41.8069 32.6099 40.8682 32.7093 39.8531 32.7781C39.9773 33.7206 40.0901 34.5828 40.1991 35.403C41.2105 35.3265 42.1109 35.2596 42.9922 35.1946ZM36.4558 35.9478C37.362 35.814 37.9566 35.3762 38.3791 34.6192C39.1859 33.1719 38.9775 32.7609 37.3659 32.673C37.2645 32.4206 37.1575 32.1568 36.9204 31.5718C36.7751 32.8431 36.1748 33.0324 35.2323 32.7016C35.3164 33.344 35.3833 33.8506 35.4483 34.3572C35.5439 34.3515 35.6414 34.3477 35.737 34.3419C35.7848 33.9997 35.8326 33.6575 35.8919 33.2427C36.6795 33.2427 37.4232 33.2427 38.2185 33.2427C38.2892 34.5236 37.2951 35.1372 36.4558 35.9478ZM31.1334 32.8718C31.1525 32.9788 31.1717 33.0859 31.1889 33.193C31.7471 33.1566 32.3054 33.1222 32.8636 33.0859C32.8999 33.1719 32.9362 33.258 32.9726 33.3459C32.1715 33.9137 31.3724 34.4815 30.5714 35.0512C30.5905 35.099 30.6096 35.1468 30.6287 35.1965C31.1315 35.013 31.6362 34.8314 32.1964 34.6268C32.2518 35.1621 32.3034 35.6439 32.3531 36.1256C32.4832 36.1409 32.6132 36.1562 32.7432 36.1715C32.5195 34.8715 32.7929 33.7436 33.7354 32.9463C33.0796 32.4684 32.5405 32.0765 31.9995 31.6826C31.9593 31.7324 31.9192 31.7821 31.879 31.8318C32.0702 32.0822 32.2595 32.3327 32.4851 32.6271C31.9651 32.7207 31.5483 32.7972 31.1334 32.8718ZM55.9331 33.0591C55.8586 32.9291 55.7859 32.7991 55.7113 32.6691C54.4515 32.7494 53.1935 32.8316 51.9337 32.9119C51.9394 33.0515 51.9432 33.193 51.949 33.3325C52.9718 33.2866 53.9927 33.2388 55.0155 33.193C55.0518 33.2809 55.09 33.3688 55.1263 33.4587C54.7669 33.8009 54.4075 34.1412 54.0538 34.4758C53.6982 34.3075 53.4344 34.1833 53.1687 34.059C53.1209 34.1164 53.075 34.1756 53.0272 34.233C53.4707 34.7415 53.9162 35.25 54.3597 35.7605C54.4438 35.7146 54.528 35.6687 54.6121 35.6228C54.528 35.3227 54.4438 35.0206 54.3827 34.8008C54.9218 34.1966 55.4265 33.6288 55.9331 33.0591ZM52.7787 12.7674C52.8054 12.8821 52.8322 12.9949 52.859 13.1097C53.2738 13.0122 53.6887 12.9146 54.1475 12.8057C54.331 12.9567 54.5566 13.1441 54.853 13.3888C54.9084 12.7407 54.9543 12.2092 54.9925 11.758C54.5146 11.6051 54.0691 11.4636 53.4765 11.2743C53.6256 11.6663 53.7154 11.909 53.8053 12.1518C53.4631 12.3583 53.1209 12.5629 52.7787 12.7674Z" fill="black"/>
<path d="M16.5305 11.4818C16.152 12.1089 16.3622 12.3612 16.9817 12.4702C17.5303 12.5658 18.3448 12.5945 18.5455 12.9405C18.991 13.709 19.337 14.6535 19.3504 15.5329C19.4249 20.3735 19.3963 25.2161 19.381 30.0586C19.3752 31.9284 19.0445 32.2285 17.213 32.2285C17.0849 32.2285 16.9587 32.2304 16.8306 32.2285C13.074 32.1807 14.0184 32.7026 11.9307 29.4297C10.4606 27.126 9.05158 24.784 7.41509 22.465C7.39597 22.7785 7.36156 23.0902 7.35965 23.4037C7.35391 25.3461 7.35583 27.2904 7.35583 29.2327C7.35583 29.5195 7.36156 29.8063 7.34818 30.093C7.26024 31.9838 7.00788 32.2266 5.14198 32.2266C4.21859 32.2266 3.29328 32.2362 2.36989 32.217C1.64341 32.2017 1.15017 31.8901 1.10237 31.091C1.05267 30.267 0.957079 29.443 0.955167 28.6191C0.943697 23.6178 0.951344 18.6166 0.95708 13.6154C0.958991 11.7036 1.19032 11.478 3.09446 11.4722C3.92226 11.4703 4.75197 11.5086 5.57787 11.4627C6.41714 11.4168 6.94097 11.7992 7.36156 12.4855C8.9732 15.1199 10.6097 17.741 12.2385 20.364C12.4316 20.6737 12.6419 20.9719 13.0243 21.2224C13.0243 19.1978 13.0204 17.1751 13.0262 15.1505C13.0281 14.3227 13.0204 13.493 13.0644 12.6671C13.1046 11.9253 13.5137 11.4933 14.286 11.4837C15.0144 11.4761 15.7409 11.4818 16.5305 11.4818Z" fill="white"/>
<path d="M46.7763 30.3101C45.1762 31.7975 43.5053 32.1015 41.6413 31.6905C39.8805 31.3024 38.7487 30.2241 38.267 28.5437C37.9898 27.5782 37.8158 26.5382 37.8425 25.5383C37.9171 22.8026 38.1293 20.0706 38.2746 17.3368C38.3224 16.4459 38.699 15.9813 39.6511 16.0635C40.6663 16.1515 41.6833 16.2088 42.7004 16.2509C43.5454 16.2872 43.8991 16.7212 43.8532 17.5394C43.7404 19.6061 43.6085 21.6708 43.5301 23.7393C43.4804 25.0699 44.3789 25.8327 45.6675 25.6301C46.5201 25.4963 47.0497 24.8501 47.1243 23.7718C47.2581 21.8333 47.3594 19.8928 47.4856 17.9562C47.5621 16.7862 47.8125 16.5644 48.9558 16.6179C49.9097 16.6638 50.8618 16.7479 51.8158 16.7709C52.7602 16.7957 53.1005 17.2622 53.047 18.1741C52.8749 21.0973 52.7449 24.0223 52.5748 26.9454C52.4945 28.3429 52.397 29.7404 52.2249 31.1284C52.1867 31.4324 51.854 31.7688 51.5673 31.9409C51.4449 32.0135 51.0989 31.6943 50.8446 31.5758C50.5674 31.4477 50.273 31.245 49.9919 31.2546C49.3668 31.2737 48.6786 31.2622 48.1375 31.5184C46.9943 32.0613 46.8165 31.4247 46.7763 30.3101Z" fill="white"/>
<path d="M32.6213 25.4694C33.258 25.8002 33.8946 26.1309 34.5331 26.4597C35.6668 27.0428 35.9115 28.0981 35.055 29.0903C34.189 30.094 33.0706 30.6504 31.7821 31.0805C30.0366 31.6636 28.3389 31.6789 26.626 31.2812C23.9437 30.658 22.1275 29.0464 21.3227 26.3412C20.2368 22.6897 21.1449 19.1605 23.8501 17.2048C26.4118 15.3542 29.2509 15.1783 32.0994 16.3731C34.8619 17.5317 35.9803 19.8927 36.2098 22.7547C36.225 22.9439 36.2308 23.137 36.2212 23.3263C36.1428 24.8137 36.0587 24.9054 34.5733 25.0622C33.9462 25.1291 33.3172 25.1769 32.6882 25.2343C32.6634 25.3146 32.6424 25.391 32.6213 25.4694ZM26.9854 25.5554C28.5263 26.9816 30.9294 26.7713 31.8604 25.2687C30.2717 25.3624 28.7385 25.4541 26.9854 25.5554ZM26.5648 21.9804C27.9986 21.8867 29.2566 21.8064 30.6465 21.7166C29.27 20.3191 27.6832 20.4127 26.5648 21.9804Z" fill="white"/>
<path d="M67.5964 27.3597C66.0192 23.9969 66.6711 19.7393 68.9461 17.6459C71.5175 15.281 75.6508 14.8107 78.7287 16.5352C81.6117 18.1506 83.0647 21.2056 82.4701 24.1211C81.7933 24.5991 81.2332 24.9948 80.4685 25.5339C79.2717 25.49 78.3043 26.4669 78.3311 27.9982C78.3349 28.1971 78.2565 28.4016 78.1954 28.5985C78.0405 29.0994 77.7423 29.5984 77.7423 30.0974C77.7404 30.8487 77.4651 31.1488 76.75 31.2846C74.6834 31.6746 72.6894 31.535 70.8063 30.5677C70.4966 30.409 70.1792 30.0285 70.1009 29.694C69.8466 28.6138 69.7434 27.4992 69.4929 26.4172C69.4069 26.0482 69.057 25.7404 68.8276 25.4039C68.5753 25.6926 68.2885 25.9583 68.0782 26.2757C67.8947 26.5567 67.7991 26.8932 67.5964 27.3597ZM74.693 21.5593C73.4274 21.5479 72.374 22.4043 72.3625 23.4539C72.3491 24.513 73.37 25.4135 74.6203 25.446C75.8706 25.4785 76.9565 24.5379 76.9508 23.4291C76.9431 22.4368 75.8974 21.5708 74.693 21.5593Z" fill="white"/>
<path d="M12.3839 16.6541C11.3955 17.1722 10.7741 16.9619 10.3287 16.1016C10.0515 15.5663 9.69398 15.073 9.4053 14.5435C8.82986 13.492 8.97515 13.0102 10.0018 12.4577C11.1374 11.8459 11.1641 10.9952 10.1624 10.1444C9.8431 9.87296 9.46457 9.30134 9.5506 8.98972C9.84119 7.95162 10.2618 6.92881 10.7971 5.99395C10.9175 5.78174 11.7262 5.85056 12.1755 5.96336C13.0148 6.17366 14.3817 5.1432 14.3014 4.27717C14.1657 2.82612 14.2498 2.70185 15.6664 2.23538C15.9379 2.14552 16.2208 2.08052 16.4827 1.96391C17.3392 1.57964 17.8669 1.89317 18.2244 2.70568C18.6622 3.69981 20.5166 3.8776 21.1073 2.96186C21.6025 2.19523 22.1665 2.01743 22.9427 2.50112C23.1855 2.65215 23.4512 2.76303 23.7074 2.89494C25.0399 3.57554 25.1374 3.78775 24.7799 5.21012C24.56 6.07807 25.5733 7.13337 26.4623 6.96514C27.5749 6.75484 27.8636 6.92308 28.2268 8.00323C28.3893 8.485 28.5767 8.96104 28.7029 9.45237C28.9705 10.4866 28.6895 11.0755 27.7546 11.542C26.7853 12.0256 26.7433 13.0465 27.6208 13.7405C27.9707 14.0177 28.2173 14.423 28.701 14.9946C24.04 15.4038 21.2412 17.6119 20.2948 21.9899C20.2222 21.9554 20.1495 21.9191 20.0769 21.8847C20.0501 21.4565 20.0042 21.0301 20.0004 20.6019C19.9909 19.3592 20.0444 18.1147 19.9832 16.8758C19.9278 15.7574 20.0387 14.9086 21.1819 14.2204C22.4685 13.4461 22.7725 11.7217 22.1474 10.5975C21.3329 9.13119 19.5072 8.29574 17.9988 8.86928C17.2627 9.1484 16.5745 9.68943 16.022 10.263C15.632 10.6683 15.3185 10.8805 14.7526 10.8709C13.0109 10.8441 12.4087 11.4578 12.3877 13.2109C12.3724 14.381 12.3839 15.5548 12.3839 16.6541Z" fill="white"/>
<path d="M60.7875 17.5434C61.7224 16.8819 62.5884 16.1421 63.5654 15.6087C64.5366 15.0772 65.0088 15.4079 65.0336 16.4977C65.0699 18.0233 65.0623 19.5508 65.0604 21.0764C65.0604 21.713 64.7201 21.929 64.0873 21.9596C61.6746 22.0762 61.0093 22.818 61.0227 25.2173C61.0323 26.7754 61.0131 28.3354 61.0055 29.8955C61.0017 30.6372 60.6097 31.0119 59.8852 31.0368C58.7706 31.075 57.6522 31.1572 56.5453 31.0846C56.2279 31.0636 55.8131 30.6315 55.6735 30.2912C55.4862 29.8381 55.4862 29.2932 55.4709 28.7866C55.3581 25.028 55.2548 21.2714 55.1631 17.5128C55.1287 16.1459 55.3829 15.9069 56.7613 15.8878C57.4305 15.8782 58.0996 15.8572 58.7668 15.8266C60.5199 15.7444 60.6499 15.8553 60.7875 17.5434Z" fill="white"/>
<path d="M23.8509 38.7055C23.9923 39.1433 24.0688 39.4453 24.1892 39.7283C24.3097 40.015 24.476 40.2808 24.6194 40.5542C23.6291 41.2806 23.6291 41.2806 23.7113 43.4295C22.2469 42.6055 21.1132 42.6609 20.2796 43.5977C19.6755 44.2764 19.6373 45.1864 20.1783 45.9683C20.7442 46.7866 21.9505 47.1211 22.9103 46.7254C23.8604 46.3335 24.3345 45.4005 24.174 44.2382C25.3268 44.8576 26.5216 45.4101 27.6171 46.1175C28.5577 46.7254 27.8159 47.4634 27.5635 48.1267C27.3494 48.6869 27.0416 49.0138 26.3266 48.7806C25.5772 48.5359 24.9138 49.0482 24.9807 49.8378C25.0687 50.8797 24.346 50.9906 23.652 51.2487C22.9733 51.501 22.6885 51.2143 22.4017 50.6407C22.0997 50.0347 21.0424 49.9774 20.6582 50.5547C20.2624 51.1512 19.8533 51.1569 19.2893 50.874C18.6393 50.549 18.0409 50.2393 18.1996 49.3254C18.3736 48.3141 18.1136 47.9987 17.1673 48.1057C16.5708 48.1726 16.2649 47.9795 16.1215 47.4213C16.0355 47.0829 15.8978 46.7579 15.808 46.4195C15.6722 45.9072 15.7774 45.5248 16.2917 45.2227C17.0736 44.7601 17.0812 44.3548 16.3815 43.7048C15.6952 43.0682 16.0183 42.443 16.3605 41.814C16.6492 41.2825 16.8671 40.7033 17.7178 41.0589C18.278 41.2921 19.123 40.5981 19.0217 39.9883C18.8535 38.9731 19.5532 38.8488 20.2185 38.6022C20.8417 38.3709 21.2872 38.3881 21.6179 39.0878C21.8607 39.6021 22.9906 39.6365 23.3806 39.214C23.5106 39.0821 23.6329 38.9444 23.8509 38.7055Z" fill="white"/>
<path d="M44.1748 36.5034C45.3907 35.6278 46.2968 35.6679 47.3808 36.4766C47.767 36.7653 48.2832 37.0368 48.7363 37.033C49.2085 37.0291 49.6673 36.6525 50.1491 36.4938C50.4072 36.4078 50.8507 36.3122 50.9597 36.4384C51.3956 36.945 52.0188 37.5205 52.0513 38.0978C52.145 39.8356 51.9882 41.5887 51.9385 43.3342C51.9213 43.9211 51.6193 44.1142 51.0706 44.0473C50.7876 44.0129 50.4989 43.9823 50.2141 43.9938C49.4608 44.0244 49.1913 43.621 49.2181 42.9327C49.2544 42.0438 49.3519 41.1509 49.306 40.2658C49.2907 39.958 48.9313 39.6655 48.7286 39.3673C48.5069 39.6483 48.1436 39.9064 48.092 40.218C47.9467 41.0936 47.9123 41.9883 47.8702 42.8773C47.8397 43.5483 47.5777 43.816 46.8608 43.7816C45.0083 43.6898 45.0102 43.7223 45.1287 41.8774C45.167 41.2752 45.1785 40.6692 45.2052 40.0651C45.2243 39.6292 45.232 39.1895 44.6298 39.1837C44.039 39.178 43.9128 39.5699 43.8956 40.0765C43.8651 40.9349 43.7714 41.7895 43.7465 42.6479C43.7274 43.3342 43.4368 43.6439 42.7409 43.5502C42.5536 43.5254 42.3567 43.512 42.1693 43.5311C41.2363 43.6267 40.9362 43.1794 40.9955 42.2961C41.1121 40.5506 41.1752 38.8033 41.2688 37.0578C41.2784 36.8762 41.3243 36.5512 41.4008 36.5378C42.263 36.3753 43.1347 36.2549 44.0065 36.144C44.0467 36.1382 44.1098 36.3562 44.1748 36.5034Z" fill="white"/>
<path d="M24.1124 37.0082C24.4718 36.6698 24.8312 36.3314 25.2499 35.9395C25.118 35.8573 24.9344 35.7407 24.7471 35.6222C25.1963 34.1176 28.3145 33.3108 29.9815 34.4044C29.754 36.1479 29.9146 36.3716 31.3121 36.2511C31.4479 37.1114 31.4479 37.1114 29.0754 37.7347C29.3851 37.8666 29.6336 37.9794 29.884 38.0807C31.5721 38.7498 32.052 39.4534 31.987 41.1625C31.9258 42.7665 31.0674 43.9002 29.5667 44.3303C28.2609 44.7051 26.9609 44.6095 25.7374 44.0665C25.2384 43.8447 24.77 43.4318 24.4335 42.9921C23.7013 42.0324 23.9671 41.304 25.0912 40.9331C25.4735 40.8069 25.854 40.6827 26.5403 40.459C24.5062 39.9237 24.315 38.4554 24.1219 36.991L24.1124 37.0082Z" fill="white"/>
<path d="M86.1397 26.9934C85.7745 27.7754 86.0288 28.1501 86.9005 28.368C87.4913 28.5152 87.432 29.8974 86.8126 30.2014C86.22 30.4939 86.2697 30.7616 86.4627 31.3179C86.5851 31.6716 86.3366 32.226 86.1091 32.6026C85.9982 32.7842 85.5126 32.8894 85.2698 32.8091C84.6829 32.6179 84.3311 32.725 84.2298 33.3444C84.1265 33.9734 83.6696 34.1168 83.1821 34.0441C82.8915 34.002 82.5551 33.7631 82.383 33.5145C82.0465 33.027 81.7349 32.9467 81.1958 33.2087C80.9396 33.3329 80.4464 33.2966 80.2437 33.1207C79.9875 32.8989 79.7275 32.4114 79.8021 32.1266C79.9837 31.4364 79.913 31.1095 79.1291 31.0369C78.9494 31.0197 78.6665 30.5914 78.676 30.362C78.6933 29.9433 78.7678 29.3296 79.0412 29.1614C79.5841 28.8288 79.6683 28.6089 79.3911 28.0392C79.2534 27.7562 79.37 27.2573 79.5383 26.9456C79.7333 26.5805 80.0143 26.2478 80.6222 26.4887C80.8536 26.5805 81.3124 26.1255 81.6565 25.8999C81.9643 25.6992 82.2453 25.3302 82.5608 25.3034C82.8495 25.2786 83.1534 25.6552 83.4785 25.7795C83.8608 25.9248 84.3139 26.1465 84.6638 26.0548C85.2946 25.8903 86.1569 26.3339 86.1397 26.9934Z" fill="white"/>
<path d="M60.6795 40.1297C60.6795 41.1143 60.6623 42.0989 60.6852 43.0835C60.7005 43.7105 60.4004 43.9743 59.8173 43.9074C59.1749 43.8329 58.5383 43.701 57.8959 43.6092C57.764 43.5901 57.613 43.6035 57.4868 43.6474C55.2921 44.4102 53.5925 43.6455 53.1107 41.4508C52.8832 40.4108 53.0362 39.2503 53.2082 38.1759C53.3172 37.4915 53.7034 36.8816 54.6077 36.7038C55.1869 36.5891 55.5865 35.7097 56.3378 36.0098C57.5346 36.4878 58.7505 36.1896 59.9568 36.224C60.6183 36.2431 60.8496 36.5547 60.8363 37.1799C60.8152 38.1644 60.8305 39.149 60.8305 40.1336C60.7789 40.1297 60.7292 40.1297 60.6795 40.1297ZM56.9725 41.5349C57.5308 40.8103 57.9533 40.3706 58.2343 39.8525C58.3815 39.5811 58.4159 39.0324 58.2477 38.8641C58.0508 38.6653 57.5767 38.7208 57.2211 38.7055C56.9247 38.6921 56.6189 38.7858 56.3283 38.7475C55.7834 38.6749 55.0397 38.7322 55.2347 39.3249C55.4718 40.0456 56.2021 40.602 56.9725 41.5349Z" fill="white"/>
<path d="M35.7113 35.6681C36 36.2512 36.1472 36.9376 36.4053 36.9835C36.8584 37.0618 37.4262 36.8248 37.8583 36.5724C38.3687 36.2742 38.7893 35.8173 39.3304 35.3604C40.5214 37.8208 40.1792 40.2507 40.2805 42.6175C40.2882 42.7972 39.9001 43.1471 39.686 43.1547C38.9901 43.1853 38.2884 43.0801 37.5868 43.0572C37.4224 43.0515 37.2465 43.1509 37.0897 43.2293C35.3672 44.1049 33.5759 43.495 32.8188 41.7266C32.0426 39.9123 32.0675 38.1592 33.3828 36.559C33.4421 36.4864 33.4803 36.3698 33.5549 36.3392C34.1647 36.0964 34.7765 35.8574 35.3978 35.6452C35.5336 35.5993 35.7056 35.6681 35.7113 35.6681ZM35.4762 38.3714C34.9141 38.2127 34.3788 38.4288 34.6733 39.0233C34.9658 39.616 35.4743 40.18 36.0325 40.5241C36.2409 40.6522 36.8661 40.1398 37.279 39.8798C37.4606 39.767 37.6021 39.572 37.7264 39.3904C38.1126 38.8264 37.864 38.3026 37.1815 38.2892C36.6137 38.2796 36.0459 38.3408 35.4762 38.3714Z" fill="white"/>
<path d="M74.6159 33.2997C72.8953 33.5463 71.4175 33.7241 69.9569 33.9937C69.6376 34.053 69.2438 34.3875 69.1195 34.6896C68.5727 36.0336 68.1139 37.412 67.4677 38.7674C67.267 37.4081 67.0433 36.0508 66.8789 34.6877C66.8063 34.0874 66.6036 33.7299 65.9785 33.533C64.6249 33.1047 63.3 32.5847 61.7305 32.0188C63.3536 31.7799 64.7358 31.5543 66.1257 31.3803C66.7279 31.3057 67.0835 31.082 67.2785 30.4645C67.6991 29.1359 68.2019 27.8339 68.7773 26.228C68.978 27.5682 69.2189 28.6311 69.2763 29.7037C69.3451 30.996 69.7906 31.7971 71.1613 32.0915C72.2625 32.3304 73.3082 32.8313 74.6159 33.2997Z" fill="white"/>
<path d="M19.224 9.40771C19.4783 10.8836 20.1913 11.656 21.759 11.5929C20.2315 11.8414 19.549 12.7094 19.5337 14.2216C19.3483 12.7132 18.639 11.9274 17.0273 11.9867C18.4631 11.6999 19.3062 11.0041 19.224 9.40771Z" fill="white"/>
<path d="M50.0122 33.6355C49.389 33.6355 49.0563 33.6355 48.7313 33.6355C48.651 34.0064 48.5822 34.3218 48.5153 34.6392C48.4407 34.6449 48.3662 34.6507 48.2916 34.6583C48.2113 34.3582 48.1329 34.0599 48.045 33.7273C47.7353 33.6948 47.416 33.6603 47.0967 33.6259C47.0834 33.5495 47.07 33.473 47.0547 33.3946C47.3759 33.3048 47.6951 33.2168 48.045 33.1193C48.1196 32.8153 48.1979 32.4999 48.2744 32.1845C48.3356 32.1787 48.3987 32.1749 48.4598 32.1692C48.5516 32.4655 48.6434 32.7599 48.7313 33.0448C49.8631 33.5514 49.756 32.4922 50.2282 31.9531C50.2913 32.2628 50.3544 32.5725 50.429 32.9339C50.7024 32.9874 50.9968 33.0467 51.2893 33.104C50.2627 33.2455 50.3888 34.1307 50.1059 34.7692C49.888 35.2624 49.4654 35.6658 48.976 35.9736C49.301 35.2452 49.6241 34.5149 50.0122 33.6355Z" fill="white"/>
<path d="M42.9907 35.1937C42.1075 35.2587 41.2089 35.3256 40.1976 35.4021C40.0905 34.5819 39.9758 33.7197 39.8516 32.7772C40.8667 32.7084 41.8054 32.609 42.7422 32.6166C42.9123 32.6185 43.2144 33.0602 43.2163 33.2991C43.222 33.8918 43.0863 34.4844 42.9907 35.1937ZM42.5567 34.6355C42.6141 34.148 42.6734 33.6394 42.7479 33.0009C41.8914 33.0869 41.1879 33.1577 40.5054 33.2265C40.4079 34.9796 40.6335 35.1268 42.5567 34.6355Z" fill="white"/>
<path d="M36.454 35.9454C37.2952 35.1348 38.2874 34.5211 38.2167 33.2402C37.4214 33.2402 36.6796 33.2402 35.89 33.2402C35.8327 33.6551 35.783 33.9973 35.7352 34.3395C35.6396 34.3453 35.5421 34.3491 35.4465 34.3548C35.3796 33.8482 35.3146 33.3416 35.2305 32.6992C36.173 33.0299 36.7733 32.8407 36.9186 31.5693C37.1556 32.1543 37.2608 32.4182 37.364 32.6705C38.9757 32.7585 39.184 33.1695 38.3773 34.6167C37.9548 35.3738 37.3602 35.8116 36.454 35.9454Z" fill="white"/>
<path d="M31.1305 32.8707C31.5472 32.7943 31.9621 32.7197 32.484 32.6241C32.2584 32.3278 32.0692 32.0793 31.878 31.8288C31.9181 31.7791 31.9583 31.7294 31.9984 31.6797C32.5375 32.0735 33.0786 32.4673 33.7343 32.9434C32.7918 33.7406 32.5184 34.8685 32.7421 36.1686C32.6121 36.1533 32.4821 36.138 32.3521 36.1227C32.3024 35.6409 32.2508 35.1572 32.1953 34.6238C31.6333 34.8284 31.1305 35.0119 30.6277 35.1936C30.6085 35.1458 30.5894 35.098 30.5703 35.0483C31.3714 34.4805 32.1705 33.9127 32.9715 33.3429C32.9352 33.2569 32.8989 33.1709 32.8625 33.0829C32.3043 33.1193 31.7461 33.1537 31.1878 33.19C31.1668 33.0868 31.1477 32.9797 31.1305 32.8707Z" fill="white"/>
<path d="M55.9331 33.0589C55.4284 33.6267 54.9218 34.1945 54.3865 34.7986C54.4477 35.0185 54.5318 35.3206 54.6159 35.6207C54.5318 35.6666 54.4477 35.7125 54.3636 35.7583C53.92 35.2498 53.4746 34.7413 53.031 34.2308C53.0788 34.1735 53.1247 34.1142 53.1725 34.0569C53.4363 34.1811 53.7021 34.3054 54.0577 34.4736C54.4094 34.1391 54.7708 33.7969 55.1302 33.4566C55.0939 33.3686 55.0556 33.2807 55.0193 33.1908C53.9965 33.2367 52.9756 33.2845 51.9528 33.3304C51.9471 33.1908 51.9432 33.0493 51.9375 32.9098C53.1974 32.8295 54.4553 32.7473 55.7152 32.667C55.7859 32.8008 55.8586 32.9308 55.9331 33.0589Z" fill="white"/>
<path d="M52.7773 12.7651C53.1196 12.5605 53.4618 12.354 53.8059 12.1495C53.716 11.9067 53.6243 11.6658 53.4751 11.272C54.0678 11.4612 54.5132 11.6046 54.9912 11.7557C54.953 12.2087 54.9071 12.7383 54.8516 13.3864C54.5553 13.1417 54.3297 12.9543 54.1462 12.8033C53.6893 12.9104 53.2725 13.0098 52.8576 13.1073C52.8309 12.9945 52.8041 12.8798 52.7773 12.7651Z" fill="white"/>
<path d="M24.1287 36.9923C23.8782 36.6596 23.6259 36.3251 23.3907 36.0134C23.536 35.8605 23.7406 35.6425 23.9509 35.4208C24.1497 35.6005 24.3829 35.8108 24.4919 35.9102C24.3542 36.3174 24.2376 36.6596 24.1191 37.0056C24.1172 37.0095 24.1287 36.9923 24.1287 36.9923Z" fill="white"/>
<path d="M26.9844 25.5563C28.7375 25.4531 30.2707 25.3632 31.8594 25.2695C30.9284 26.7722 28.5253 26.9825 26.9844 25.5563Z" fill="black"/>
<path d="M26.5624 21.9804C27.6808 20.4128 29.2676 20.321 30.644 21.7166C29.2561 21.8045 27.9962 21.8867 26.5624 21.9804Z" fill="black"/>
<path d="M74.6958 21.5582C75.9002 21.5697 76.9459 22.4357 76.9517 23.4279C76.9574 24.5387 75.8715 25.4774 74.6212 25.4449C73.3709 25.4124 72.3519 24.5119 72.3634 23.4528C72.3768 22.4032 73.4302 21.5467 74.6958 21.5582Z" fill="black"/>
<path d="M56.9707 41.5355C56.2003 40.6025 55.47 40.0443 55.231 39.3235C55.036 38.7328 55.7797 38.6735 56.3246 38.7462C56.6151 38.7844 56.921 38.6927 57.2174 38.7041C57.573 38.7194 58.0471 38.664 58.244 38.8628C58.4122 39.0329 58.3778 39.5797 58.2306 39.8512C57.9515 40.3712 57.529 40.8128 56.9707 41.5355Z" fill="black"/>
<path d="M35.4754 38.3702C36.0432 38.3396 36.6129 38.2765 37.1807 38.288C37.8613 38.3014 38.1099 38.8252 37.7256 39.3892C37.6013 39.5708 37.4599 39.7658 37.2782 39.8786C36.8672 40.1367 36.2401 40.651 36.0318 40.5229C35.4735 40.1788 34.965 39.6148 34.6725 39.0221C34.38 38.4295 34.9153 38.2115 35.4754 38.3702Z" fill="black"/>
<path d="M42.5558 34.6341C40.6325 35.1254 40.4069 34.9782 40.5025 33.2251C41.185 33.1563 41.8886 33.0855 42.7451 32.9995C42.6724 33.638 42.6131 34.1485 42.5558 34.6341Z" fill="black"/>
</svg>
