<svg width="125" height="32" viewBox="0 0 125 32" fill="none" xmlns="http://www.w3.org/2000/svg">
<path fill-rule="evenodd" clip-rule="evenodd" d="M14.6449 8.23258L15.706 6.66141L14.3388 5.3856L13.2777 3.94678L11.9916 2.71007L10.7304 1.44989L9.5738 0L8.89149 1.27844L7.84547 2.0777L6.88908 2.38672L5.28964 2.21982L3.68886 2.13377L0 1.83714L3.25319 3.71795L3.85767 4.5231L3.21591 4.42726L3.15638 5.57725L3.28196 7.3968L3.01835 9.21763L3.09621 11.032L1.91738 12.5646L3.21068 12.5047H3.91129C3.91129 12.5047 3.42132 13.0888 3.08115 13.4787L2.99218 14.1462L3.09162 15.7285L3.19825 17.3114L3.20153 18.8942L2.95097 20.4771L3.18451 22.0607L2.96078 23.6436L3.21132 25.2277L3.26954 26.8132L3.03863 28.3864L2.70893 30.26L2.15223 32L3.63916 31.2953L5.0345 30.2809L6.44753 29.2925L7.98351 28.4098L6.89367 26.8654L6.8158 25.2082L6.86946 23.5497L7.03563 21.8912L6.94405 20.234L6.99899 18.5761L6.74975 16.9176L6.85571 15.2591L6.71899 13.6006L6.93554 11.9414L7.03367 10.2829L6.7406 8.62307L6.91069 6.96195L6.97805 5.32886L7.94492 3.80858L9.02038 4.73366L9.80473 5.96973L10.909 7.00173L11.5507 7.52458L10.8488 7.67648L10.7553 8.72349L10.6231 10.4003L10.6957 12.0783L10.6185 13.7199L10.2797 15.2291L9.37035 16.5212L8.99553 17.8766L8.37407 18.878L8.15097 20.5228L8.30667 22.1734L9.00205 20.588L10.0769 19.4321L11.2511 18.3642L12.3599 17.2331L13.4223 16.0557L14.592 14.9801L15.4816 13.7186L14.4395 12.6364L14.3859 11.1291L14.4585 9.6616L14.6469 8.23389L14.6449 8.23258ZM84.9325 5.29888L84.5378 6.62688L84.4694 8.06371L84.0388 8.75021L83.6776 9.83696L83.2807 11.3612L82.8569 12.8802L82.4831 14.4135L82.1254 16.0114L81.7982 14.3868L81.3018 12.8743L80.6888 11.3964L80.2739 9.85914L79.8392 8.3271L79.4275 6.78659L78.8688 5.28976L79.5043 3.89462H73.0829L73.9942 5.31325L73.9332 6.94957L73.9855 8.60874L73.9759 9.07094L74.3487 10.4837L74.1059 11.2908L74.2019 11.9258L74.0934 13.5849L74.1865 15.2441L74.1962 16.9039L74.1955 18.5637L74.1836 20.2235L74.0812 21.8827L74.1438 23.4858L74.2074 25.1521L74.034 26.8556L73.0212 28.4052L74.7109 28.3851L76.2364 28.4489L77.9094 28.447L76.7807 26.855L76.7319 25.2545L76.6253 23.6422L76.8366 22.03L76.8639 20.4178L76.5989 18.8049L76.7068 17.1933L76.8215 15.5798L76.65 13.9657L76.6905 13.315L76.2583 12.1363L76.746 12.4128L77.2132 13.9683L77.6987 15.5811L78.2272 17.181L78.6594 18.8095L79.1019 20.4354L79.7534 21.9974L80.2178 23.6175L80.5652 25.274L81.1329 26.7422L81.436 25.2199L82.0114 23.6475L82.4577 22.0404L82.8129 20.4093L83.1767 18.7802L83.772 17.2129L84.0559 15.5622L84.6361 13.9885L84.9755 12.2413L85.4754 11.6911L85.0176 13.0927L85.0599 13.963L84.8814 15.5753L85.0535 17.1875L84.9822 18.7997L85.0163 20.4126L85.1007 22.0242L85.0644 23.6377L84.9938 24.2336L85.1531 25.7904L84.9004 26.8419L83.9297 28.404L85.4035 28.3198L86.861 28.2631L88.3191 28.4933L89.8093 28.4079L88.8306 26.84L88.7475 25.2069L88.7057 23.5477L88.7304 21.8886L88.7253 20.2307L88.7725 18.5716L88.8659 16.9124L88.698 15.2526L88.8098 13.5927L88.837 11.9329L88.8017 10.2738L88.8457 9.10618L88.6572 7.39158L88.7664 5.29629L89.7817 3.89462H83.9688L84.9325 5.29888ZM18.1657 6.94957L18.2913 5.25456L17.1799 3.89462H22.8188L22.3014 4.72064L21.5792 5.79306L21.8539 6.37456L21.8049 6.95152L22.0083 8.61331L21.9867 10.2738L21.8735 11.9329L22.0384 13.5927L21.8866 15.2526L21.831 16.9124L21.8664 18.5716L21.8807 20.069L21.6145 22.7882L22.0469 24.7219L22.06 25.2069L22.0489 26.8354L22.9961 28.4059L21.5157 28.4496L20.0595 28.4639L18.6046 28.4131L17.2695 28.3661L18.2906 26.9019L18.0963 25.2049L18.271 23.5432L18.0584 21.8827L18.1212 20.2235L18.065 18.5637L18.167 16.9039L18.2913 15.2441L18.1585 13.5849L18.324 11.9258L18.3175 11.8691L18.462 11.4192L18.1337 9.84938L18.1108 8.60874L18.1657 6.94957ZM39.7797 26.8647C39.6448 26.7278 39.3446 26.4188 39.3446 26.4188C39.3446 26.4188 39.1888 25.7063 39.177 25.6821L39.0135 25.362L38.3187 23.8242L37.635 22.281L37.2144 20.7412L36.5414 19.792C36.5414 19.792 36.1265 19.1387 36.1044 19.052C36.0828 18.9647 35.8141 17.8551 35.8141 17.8551L35.7001 17.5988L35.1134 16.0336L35.7094 14.5094L35.7235 14.4774L34.1196 13.8835L29.5208 13.0647L30.2443 14.4318L30.6296 15.6326L31.31 16.2637L30.5668 16.7266L30.3686 17.5819L29.6091 19.084L29.019 20.6551L28.3021 22.1741L27.7362 23.5001L27.5642 24.3789L27.2502 24.9852L26.9394 25.5016L26.5228 26.9169L24.5838 28.4L26.1695 28.4861L27.7703 28.389L29.3102 28.3557L28.8293 26.8582L29.4423 25.2277L30.1259 23.6344L30.7363 22.0098L30.7703 21.9348V21.7849L30.9718 21.0502L31.4029 20.5495L31.4578 20.4295L32.1173 18.9014L32.7145 20.4778L33.5885 22.0111L34.2275 23.6475L35.0386 25.2108L35.6542 26.87L34.5056 28.3812L36.1631 28.3114L37.8778 28.4724L39.5931 28.3375L41.3601 28.4059L39.7803 26.8693L39.7784 26.8654L39.7797 26.8647ZM55.4497 23.877L55.8022 25.1971L55.801 25.1951L56.0161 26.8119L56.3295 28.2912L54.845 28.2684H53.3118L51.7798 28.2781L50.2488 28.3707L48.7175 28.2625L46.3002 28.5128L44.5981 28.4783L42.773 28.4509L43.7982 26.9234L43.8525 26.8419V26.8263C43.9565 26.6327 44.1547 26.235 44.1547 26.235L43.8596 25.8321L43.8647 25.1397L43.8159 23.4147L43.9736 21.691L43.9074 19.9686L43.9755 18.2456L43.9276 16.5225L43.8294 14.2551L43.84 13.9943L47.5519 14.8145L47.2883 15.8712L47.5805 16.6308L47.557 16.8074L47.5557 19.0168L47.6049 20.2177L47.6013 21.9231L47.7898 23.6279L47.7545 25.3151L48.7464 26.8289L50.6033 26.7454L52.5713 26.9593L52.4541 25.1939L52.2127 23.5432L52.1134 22.8775L52.2486 21.9114L51.9137 20.6069L51.8986 20.247L52.415 18.9881L52.721 17.6249L53.3914 16.4137L54.3557 14.9553L55.2952 13.4448L55.1742 15.2904L54.8495 17.0519L54.6424 18.8225L54.7699 20.4276L55.0778 22.0248L55.4497 23.877ZM70.763 25.2199L70.2935 23.6559L70.1442 22.6546L69.6956 22.3958C69.6956 22.3958 69.6943 21.2464 69.6943 20.5091L69.6812 20.4543L69.7235 18.8232V17.0239L70.2418 15.2904L70.4675 13.5771L69.4201 14.9514L68.329 16.3406L67.9097 17.6706L67.4646 18.9796L66.9107 20.2398L67.1207 21.8866L67.2527 23.5471L67.4646 25.2004L67.5558 26.8706L65.6748 26.7885L63.8526 26.7644L62.703 25.3549L62.7698 23.6638L62.7685 23.6429L62.3588 22.7654L62.703 21.1382L62.7509 20.3252L62.7117 18.6556L62.6809 16.9854L62.8424 15.3151L62.7075 13.6449L62.7541 12.9701L59.0161 14.0041L58.8813 15.2441L59.0958 16.9039L59.0797 18.5637L58.9821 20.2235L59.0633 21.8827L59.1391 23.5432L59.1298 25.2049L58.8845 26.8302L57.9315 28.4164L59.6721 28.4587L61.3743 28.4913L63.7915 28.3036L65.3229 28.3068L66.8539 28.3896L68.3858 28.2592L69.9191 28.4841L71.3965 28.2788L71.0247 26.8289L70.7652 25.2206L70.763 25.2199ZM125 1.76999L123.156 3.35744L121.848 4.97878L121.785 6.85571L121.928 8.75283L121.846 10.4179L121.721 12.0835L121.755 13.7492L121.936 15.4142L121.866 17.0799L121.902 18.7443L121.779 20.408L121.894 22.0737L121.781 23.8131L121.801 25.4038L121.682 26.8178L121.81 28.6582L121.824 30.3988L121.72 31.2861L121.329 30.5494L120.419 29.0885L119.783 27.6282L118.872 26.2891L118.251 24.8229L117.88 23.2498L117.258 21.7849L116.568 20.3493L115.779 18.9575L115.256 17.6595L114.652 16.4L114.115 15.1985L113.416 14.0973L112.755 12.607L112.072 11.3488L111.927 12.7185L111.96 14.4057L111.904 15.4547V16.8517L111.836 18.5213L111.9 19.2443L111.874 21.8605L111.988 23.212L111.932 25.4448L112.081 26.8569L112.97 28.3681L111.626 28.3779L110.444 28.2964L108.771 28.3981L107.342 28.3766L108.117 26.8146L108.226 25.2134L108.177 23.5601L108.307 21.6806L108.119 20.2581L108.161 18.6068L108.23 16.9554L108.389 15.3047L108.258 13.654L108.443 12.0033L108.335 10.354L108.248 9.56381L108.399 7.03629L108.203 5.41037L107.34 3.89462H113.108L112.159 5.39734L112.693 6.50954L113.429 7.82774L113.937 9.16874L114.536 10.3227L115.153 11.9727L115.987 13.4239L116.73 14.8888L117.521 16.3452L118.301 17.8766L119.058 19.5625L118.829 17.9144L119.054 16.3387L118.984 14.7643L118.866 13.1912L118.817 11.8084L118.94 9.98691L118.995 8.46989L118.846 6.73965L118.895 5.18611L117.691 3.70426L120.205 3.2968L121.936 2.67748L123.357 2.38085L125 1.76999ZM62.7932 11.1467L62.7653 10.3057L62.6632 8.63482L62.641 6.96262L62.6369 5.24803L63.7732 3.8953H57.9851L58.9481 5.30605L59.098 6.94957L59.0421 8.60874L58.924 10.2685L58.9644 10.9733L60.8792 11.0893L62.7932 11.1474V11.1467ZM55.2018 10.2875L55.2895 9.55142L55.2342 7.97635L55.2265 6.90589L55.4285 5.32822L55.3225 3.89462H42.8815L43.7013 5.04397L43.9347 5.29302L43.9408 5.28976V5.29888L44.2536 5.63334L44.0525 5.90259L43.9617 6.14182L44.0664 7.48154L43.8538 8.29386L43.8564 8.71696L43.8355 10.2477L43.8204 11.1441L46.21 11.0717L47.7449 10.9466L47.8277 10.1981L47.6964 8.5631L47.7937 6.92675L47.6913 5.79565L47.2979 5.22717H47.6396L49.4795 5.21414L51.2622 5.25261L53.0331 5.30736L53.6075 6.87853L54.0895 7.96659L54.5651 9.05334L55.2011 10.2868L55.2018 10.2875ZM32.4541 10.0241L32.3045 9.6401L31.6665 8.56896L31.4401 7.69472L31.032 6.93133L30.2391 5.27542L31.2858 3.8953H24.644L26.0975 5.28586L26.1446 5.33149L26.1642 5.36669L27.2103 6.62752L27.3372 8.09827L28.1143 9.34413L28.9183 11.7621L30.8109 11.6252L32.6439 11.4192L32.4541 10.0254V10.0241ZM36.9103 11.5203L36.9684 11.3788L37.6167 9.92042L38.3058 8.4112L38.7412 6.79898L38.8382 6.55645L38.9631 5.53555L39.5963 5.04333L40.9899 3.89398H36.6008L36.9948 5.28781L36.3352 6.84656L35.8828 8.49987L35.1109 10.026L34.4879 11.3005L35.8093 11.4981L36.9097 11.5203H36.9103ZM96.8286 3.69254L98.4228 3.53802L98.4222 3.53869L99.9975 3.7649L100.414 3.89594L101.537 4.24797L102.689 5.38234L102.704 5.40646L103.23 6.79766C103.23 6.79766 103.489 7.01085 103.784 7.24358L104.205 8.17651L104.635 9.7105L104.984 11.268L105.26 12.8456L105.301 14.4455L105.379 16.0434L105.129 17.636L105.093 19.2274L105.003 20.822L104.757 22.4042L104.55 23.1396L103.796 24.0497L103.913 24.6299L103.494 25.3282L102.576 26.6053L101.521 27.6992L99.9352 28.5813L98.4344 28.7247L96.8058 28.5506L95.349 27.6718L94.2598 26.6151L93.1934 25.4162L93.0271 24.9155L93.2294 24.5595L92.6183 23.7185L92.0885 22.4049L91.9549 20.8037L91.7006 19.23L91.5317 17.6406L91.5356 16.0427L91.7077 14.4494L91.796 12.862L91.7777 11.2536L92.2304 9.71571L92.7066 8.20195L92.9892 7.32378L93.5813 6.8544L93.9811 5.60074L94.1458 5.37453L95.383 4.36531L96.3935 3.89462L96.8286 3.69254ZM101.272 12.371L101.26 10.5339L101.261 10.5346L100.954 8.72544L99.9439 7.16666L98.4241 4.38096L96.8973 7.15949L95.9102 8.73002L95.6424 10.543L95.5262 12.3678L95.4148 14.1919L95.3807 15.3406L93.5755 16.4215L95.3926 17.7169L95.4148 19.835L95.5824 21.6597L96.0843 23.4173L96.8645 25.0667L98.4235 28.1804L99.9927 25.0772L100.825 23.433L101.073 21.6291L101.457 19.8363L101.584 18.0057L101.562 17.4209L103.078 16.28L101.595 15.2376L101.537 14.1853L101.272 12.371ZM55.2689 11.5542L54.2558 11.5639L51.6016 11.369L51.3486 8.7424L51.1184 6.13987L50.5667 8.79648L49.8362 11.2673L48.2904 11.4264L47.7455 11.4779L44.2468 11.6115L43.9106 11.6428L42.9033 11.6207L40.2119 11.8078L37.1739 12.0887L36.8894 12.0692L34.4741 11.899L34.1158 11.8736L33.306 11.918L29.3128 12.2146L28.0339 12.3411L25.0993 12.386L27.3653 12.5594L28.0267 12.6103L31.0751 12.6364L34.1209 12.7224L37.1701 12.7615L40.2199 12.7739L42.9046 12.7309L45.5749 13.0953L48.2577 13.1214L49.9592 13.2212L49.9768 13.3131L50.4524 15.8028L50.7854 18.5579L51.329 15.836L51.6992 13.3196L54.2497 12.9591L56.9046 12.9265L58.2246 12.8867L59.5578 12.8463L62.1758 12.4643H62.6972L62.6979 12.4623L64.8194 12.4643L68.6424 12.2661L64.8624 11.9655L62.7245 11.8332L59.3321 11.7074L58.941 11.7002L56.9161 11.5379L55.3097 11.5535L55.2689 11.5542ZM97.9296 12.2159C97.9884 12.2074 98.0494 12.1878 98.1008 12.1592C98.2401 12.0829 98.3397 11.9623 98.4318 11.8358C98.5275 11.7048 98.6499 11.6096 98.8107 11.5698C98.908 11.5457 98.9848 11.5776 99.0339 11.6637C99.0586 11.7067 99.084 11.7497 99.111 11.7915C99.1392 11.8358 99.181 11.8567 99.2333 11.8567C99.3014 11.8567 99.3556 11.8247 99.3961 11.7752C99.451 11.7074 99.504 11.637 99.5512 11.5639C99.6305 11.4407 99.7127 11.3123 99.7278 11.1663C99.7487 10.9648 99.7573 10.7595 99.7461 10.5573C99.7358 10.3709 99.6918 10.1838 99.599 10.0182C99.5095 9.8585 99.4086 9.70333 99.3001 9.556C99.2018 9.42234 99.085 9.30371 98.9482 9.20592C98.8297 9.12179 98.7314 9.01814 98.6614 8.89104C98.5137 8.62243 98.4543 8.33491 98.4861 8.02851C98.4909 7.98602 98.479 7.94093 98.4675 7.89789L98.4633 7.8825C98.4595 7.86685 98.4354 7.84989 98.4184 7.8473C98.4065 7.84534 98.3837 7.86422 98.3776 7.87859C98.366 7.90678 98.3541 7.93485 98.3419 7.96294C98.3069 8.04518 98.2716 8.12749 98.2501 8.21302C98.2084 8.38186 98.1737 8.55462 98.156 8.72739C98.1403 8.87734 98.1258 9.03642 98.1592 9.17984C98.1913 9.3169 98.2543 9.44765 98.3169 9.57718L98.3175 9.5785C98.3329 9.60995 98.348 9.64131 98.3625 9.6727C98.3773 9.704 98.3923 9.73504 98.4078 9.76605C98.4688 9.88998 98.5294 10.014 98.5529 10.1532C98.5824 10.3292 98.5792 10.5033 98.5275 10.6727C98.4575 10.9055 98.3082 11.0835 98.1101 11.2217C98.0211 11.2836 97.9158 11.2947 97.8118 11.2934C97.7248 11.2921 97.6442 11.2021 97.6416 11.12C97.6397 11.0457 97.6882 11.0046 97.7954 10.9902C97.8006 10.9896 97.806 10.9888 97.8115 10.988C97.8169 10.9871 97.8224 10.9863 97.8275 10.9857C97.8956 10.9752 97.9322 10.9407 97.9441 10.8716C97.9483 10.8435 97.9505 10.8153 97.9528 10.7869V10.7861C97.9537 10.7772 97.9544 10.7684 97.955 10.7595C97.9817 10.4565 97.9046 10.1671 97.8279 9.87974L97.8262 9.87347C97.7935 9.75165 97.745 9.63402 97.6962 9.51651L97.6959 9.51562C97.6811 9.48 97.6663 9.44438 97.6522 9.40867C97.6368 9.37046 97.6166 9.33475 97.5963 9.29894C97.587 9.28282 97.5777 9.26666 97.569 9.25024C97.5613 9.25155 97.5527 9.25283 97.545 9.25414C97.5446 9.26307 97.5443 9.27203 97.544 9.28096C97.5437 9.29494 97.543 9.30899 97.5424 9.32301C97.5398 9.37155 97.5376 9.42022 97.5417 9.46797C97.5559 9.63619 97.5443 9.80438 97.4881 9.96019C97.4294 10.1222 97.3545 10.279 97.2801 10.4355C97.2685 10.4596 97.2573 10.4836 97.2457 10.5077C97.2412 10.5173 97.2367 10.5269 97.2322 10.5365C97.1182 10.7771 97.0216 11.0202 97.0139 11.2914C97.0078 11.5137 97.0595 11.7145 97.193 11.8951C97.3767 12.1442 97.6188 12.2609 97.929 12.2172L97.9296 12.2159ZM97.6442 15.8354C97.4567 15.7519 97.3244 15.6098 97.2065 15.4481H97.2081C97.115 15.3204 97.0569 15.1796 97.0196 15.027C96.9856 14.8894 96.9622 14.7519 96.9718 14.6071C96.9529 14.3307 97.0379 14.0778 97.168 13.8372C97.204 13.7714 97.2524 13.714 97.3009 13.6566L97.3128 13.6429C97.4461 13.4858 97.6005 13.3528 97.789 13.2655C97.9675 13.1827 98.1554 13.1318 98.3548 13.1207C98.5962 13.1071 98.8271 13.1475 99.0468 13.2427C99.2648 13.3365 99.4491 13.4761 99.5897 13.6716C99.6584 13.7668 99.714 13.8679 99.7541 13.9767C99.7939 14.0863 99.8058 14.2023 99.794 14.319C99.7731 14.5237 99.6671 14.6821 99.5197 14.8171C99.4831 14.8503 99.4362 14.8699 99.3897 14.8842C99.1903 14.9475 99.0031 14.9207 98.8233 14.8099C98.6884 14.7265 98.6203 14.6026 98.5738 14.4605C98.5397 14.3575 98.498 14.2584 98.4273 14.1756C98.315 14.0439 98.173 13.9565 97.999 13.9344C97.9386 13.9265 97.8857 13.9637 97.842 14.0028C97.6801 14.1476 97.6063 14.332 97.5992 14.5478C97.5934 14.7062 97.6278 14.8562 97.7026 14.9911C97.7816 15.1339 97.8869 15.2604 98.0205 15.3601C98.1682 15.4703 98.3403 15.5133 98.5169 15.5394C98.7629 15.5766 99.0031 15.5499 99.2346 15.4566C99.3059 15.4273 99.3727 15.3895 99.4375 15.3471C99.4395 15.3458 99.4414 15.3441 99.4436 15.3423C99.4504 15.3367 99.4578 15.3305 99.4661 15.338C99.4738 15.345 99.4693 15.3537 99.4648 15.3617C99.4639 15.3641 99.4626 15.3664 99.4616 15.3686C99.4099 15.4912 99.3178 15.5798 99.2182 15.6626C99.0657 15.7891 98.8997 15.8908 98.7067 15.9429C98.4935 16.0003 98.2784 16.0075 98.0623 15.9593C97.9203 15.9273 97.7784 15.8947 97.6442 15.8354ZM97.3231 18.153C97.1889 18.3857 97.0347 18.6015 96.8331 18.7802L96.8324 18.7815C96.7734 18.8338 96.7091 18.8802 96.6449 18.9265L96.6446 18.9266C96.6266 18.9397 96.6083 18.9528 96.5903 18.966L96.5858 18.9694C96.5733 18.9794 96.5589 18.9908 96.5348 18.9862C96.6308 18.8275 96.7037 18.6603 96.7762 18.4937C96.8096 18.4173 96.843 18.341 96.8784 18.2658C96.8951 18.2303 96.9114 18.1948 96.9281 18.1592L96.9285 18.1586L96.9288 18.1579V18.1573C97.019 17.9635 97.1089 17.7698 97.2235 17.5891C97.3501 17.3902 97.501 17.211 97.7135 17.0995C97.8889 17.0076 98.0684 16.9189 98.2671 16.8961C98.5086 16.8681 98.7497 16.8863 98.962 17.0193C99.1386 17.1301 99.2779 17.282 99.3662 17.475C99.4465 17.6517 99.4892 17.8381 99.4761 18.0317C99.4552 18.3453 99.3582 18.6296 99.1045 18.8356C98.9539 18.9581 98.7818 19.039 98.5824 19.0546C98.4537 19.0644 98.3265 19.0664 98.2016 19.0324C97.9695 18.9692 97.7877 18.8382 97.6763 18.6224C97.6101 18.494 97.6018 18.3571 97.641 18.2169C97.6795 18.0787 97.7437 17.9568 97.8535 17.8609C98.0484 17.6914 98.2822 17.6497 98.4967 17.7501C98.6072 17.8016 98.6759 17.8981 98.6772 18.0304C98.6778 18.1139 98.6727 18.1941 98.6248 18.2677C98.5413 18.3968 98.3782 18.3818 98.2886 18.3238C98.2382 18.2906 98.2356 18.2378 98.2414 18.1836C98.243 18.1719 98.245 18.1569 98.2584 18.1563C98.2758 18.1557 98.2751 18.1693 98.2745 18.1802C98.2745 18.1821 98.2742 18.184 98.2742 18.1856C98.2729 18.2586 98.3554 18.2938 98.4071 18.284C98.4803 18.2697 98.5458 18.1882 98.5548 18.1145C98.568 18.0083 98.4646 17.9261 98.3814 17.9033C98.2337 17.8629 98.112 17.9177 98.0173 18.0292C97.8699 18.2019 97.8786 18.432 98.044 18.5885C98.1355 18.6746 98.2546 18.7176 98.3837 18.7313C98.6438 18.7593 98.8197 18.5807 98.9135 18.3897C98.9899 18.2339 98.9835 18.0708 98.9501 17.9059C98.9286 17.799 98.8952 17.6999 98.8095 17.6249C98.6804 17.5115 98.5288 17.4528 98.3593 17.4365C98.2193 17.4235 98.0799 17.4287 97.9492 17.4854C97.8137 17.5448 97.685 17.6145 97.5906 17.7371C97.4901 17.8688 97.4056 18.0102 97.3231 18.153ZM99.0846 22.9358L99.0468 22.9558L99.0474 22.9545C98.7937 23.0901 98.646 23.3763 98.7093 23.6559C98.7112 23.6637 98.7122 23.6721 98.7134 23.6804L98.7141 23.6862L98.715 23.6931H98.7167C98.7167 23.6931 98.8669 24.4024 98.1984 24.7486C98.1984 24.7486 98.4026 24.2922 98.148 23.845C97.9152 23.5366 97.6503 23.1526 97.5967 22.931C97.5588 22.7752 97.692 22.5613 97.8824 22.3429C97.9235 22.225 97.9772 22.0105 97.8792 21.8873C97.7967 21.7839 97.6792 21.7642 97.5825 21.7479C97.5148 21.7365 97.4573 21.7268 97.429 21.691L97.4181 21.6772C97.3542 21.5974 97.2996 21.529 97.3912 21.3748C97.3912 21.3748 97.3806 21.5743 97.5247 21.588C97.5421 21.5897 97.5668 21.5903 97.596 21.5909C97.7884 21.5949 98.1888 21.6034 98.2279 21.9876C98.2963 21.9222 98.3641 21.8592 98.4273 21.8003C98.5831 21.6554 98.7125 21.535 98.7616 21.4642C98.9292 21.2229 98.9559 20.867 98.6296 20.5482C98.6296 20.5482 99.1399 20.7927 99.1726 21.2171C99.1877 21.4164 98.9655 21.7064 98.7369 22.0044C98.4787 22.3412 98.2125 22.6882 98.2723 22.9264C98.2809 22.9623 98.2938 22.9962 98.3082 23.0301C98.3654 22.9682 98.4424 22.8945 98.5439 22.8254C98.6579 22.7477 98.8104 22.7188 98.952 22.6921C99.1061 22.6629 99.2474 22.6362 99.311 22.5516C99.4334 22.3892 99.2234 22.0463 99.2234 22.0463C99.2234 22.0463 99.5233 22.18 99.4818 22.5874C99.4671 22.7341 99.2853 22.83 99.0846 22.9358ZM100.713 19.4275L100.705 19.4265C100.671 19.4216 100.635 19.4168 100.602 19.4034C100.478 19.3513 100.36 19.2828 100.249 19.2072C100.071 19.0859 99.9259 18.9308 99.7959 18.7606C99.7679 18.7242 99.7435 18.6857 99.7191 18.6471C99.7028 18.6209 99.6861 18.5946 99.6684 18.5689C99.6469 18.5376 99.6337 18.5396 99.6186 18.5755L99.6164 18.5806C99.6151 18.584 99.6138 18.5875 99.6125 18.5909C99.6109 18.5955 99.6093 18.6001 99.6077 18.6047C99.5987 18.6289 99.59 18.6532 99.5746 18.6746C99.54 18.7227 99.5053 18.7711 99.47 18.8186C99.3139 19.0299 99.1045 19.1713 98.8624 19.2678C98.691 19.3363 98.5124 19.3434 98.3307 19.3245C98.1284 19.303 97.9454 19.2352 97.7803 19.114C97.6333 19.0057 97.5035 18.8851 97.4335 18.7117C97.4255 18.6912 97.413 18.6726 97.4005 18.6542C97.3966 18.6486 97.3928 18.643 97.3892 18.6374C97.3825 18.6276 97.3728 18.6204 97.359 18.6237C97.3452 18.6276 97.3427 18.6393 97.342 18.6511C97.3414 18.6627 97.3407 18.6746 97.3414 18.6856C97.3433 18.7556 97.3558 18.8238 97.3687 18.892C97.3751 18.9262 97.3815 18.9603 97.3867 18.9947C97.4107 19.1576 97.4592 19.3076 97.5697 19.4366C97.7399 19.6342 97.9454 19.7646 98.2042 19.8122C98.3252 19.8343 98.4469 19.8376 98.5686 19.8343C98.7369 19.8298 98.8984 19.7887 99.0487 19.7203C99.2744 19.6172 99.4565 19.4562 99.6087 19.2613C99.6501 19.2085 99.6793 19.2052 99.7259 19.2528C99.7644 19.2926 99.8084 19.3271 99.8546 19.3558C100.022 19.4582 100.206 19.5058 100.413 19.5123L100.427 19.511C100.449 19.5092 100.477 19.5069 100.505 19.5038C100.576 19.496 100.646 19.4843 100.714 19.4627L100.718 19.4618L100.722 19.4607C100.735 19.4578 100.749 19.4545 100.748 19.4412C100.748 19.4264 100.736 19.427 100.725 19.4276C100.721 19.4278 100.716 19.428 100.713 19.4275Z" fill="black"/>
</svg>
