<svg width="77" height="56" viewBox="0 0 77 56" fill="none" xmlns="http://www.w3.org/2000/svg">
<g clip-path="url(#clip0_6_1154)">
<g clip-path="url(#clip1_6_1154)">
<path fill-rule="evenodd" clip-rule="evenodd" d="M64.5111 0.493652C64.7246 0.493652 64.9382 0.493652 65.1517 0.493652C68.0107 0.802527 70.0393 2.26676 71.2375 4.88636C72.6897 9.65788 73.9709 14.4776 75.0811 19.3457C75.4079 21.0543 75.6367 22.7626 75.7674 24.4705C75.7674 24.684 75.7674 24.8976 75.7674 25.1111C75.5353 26.9322 74.7116 28.4422 73.2965 29.6411C72.7333 30.0905 72.1536 30.5175 71.5578 30.9223C72.0874 31.9055 72.5297 32.9274 72.8847 33.988C73.3946 36.2409 72.7693 38.117 71.0087 39.6162C70.5969 39.906 70.185 40.1957 69.7732 40.4856C69.7122 40.7296 69.7122 40.9736 69.7732 41.2177C70.6428 42.5294 71.4664 43.8715 72.2441 45.2443C74.1495 49.0161 73.3411 52.0818 69.819 54.4415C67.2589 55.8596 64.544 56.2561 61.6742 55.6312C60.3767 55.4213 59.126 55.0552 57.9221 54.5331C57.3372 54.4637 56.7577 54.4942 56.1833 54.6246C52.8233 56.3191 49.4373 56.3801 46.0252 54.8076C45.6896 54.7466 45.3541 54.7466 45.0185 54.8076C43.9666 55.4867 42.8379 55.9596 41.6325 56.2261C41.1444 56.2261 40.6563 56.2261 40.1682 56.2261C39.2335 55.9906 38.3184 55.6703 37.4228 55.2652C36.2719 55.4293 35.1127 55.4903 33.9452 55.4482C33.1944 55.3148 32.4623 55.1166 31.7489 54.8534C30.3724 55.289 28.9692 55.6093 27.5392 55.8143C24.355 56.2198 21.5332 55.4114 19.0741 53.3891C16.8761 55.4459 14.268 56.2847 11.2496 55.9058C7.72147 55.6573 4.74725 54.2693 2.32694 51.7419C0.871485 49.6185 0.810476 47.4527 2.14391 45.2443C2.87174 44.4094 3.74113 43.7688 4.75208 43.3225C3.1242 41.0819 2.43784 38.5805 2.693 35.8183C3.11042 33.6558 4.13234 31.8408 5.75874 30.3732C4.26593 29.43 2.87796 28.3471 1.59482 27.1244C0.940306 26.2418 0.52849 25.2658 0.359375 24.1959C0.359375 23.8299 0.359375 23.4638 0.359375 23.0978C0.790083 20.8043 2.1018 19.2181 4.2945 18.339C2.58911 16.1969 1.81124 13.7566 1.96088 11.0178C2.52753 6.91254 4.76964 4.18236 8.68721 2.82728C13.7361 1.13375 17.961 2.30819 21.362 6.35059C23.27 5.85138 25.2071 5.59209 27.1732 5.57272C27.3562 5.4812 27.5392 5.38969 27.7223 5.29817C28.1759 4.69177 28.664 4.11218 29.1865 3.55939C29.8417 3.07642 30.5738 2.77138 31.3828 2.64425C33.8352 2.36507 36.123 2.85315 38.2464 4.10848C38.8993 4.50226 39.5399 4.91408 40.1682 5.34393C40.759 4.78455 41.3385 4.22021 41.907 3.65091C43.1934 2.83834 44.5966 2.50279 46.1167 2.64425C48.6997 3.05131 51.018 4.05797 53.0718 5.66423C53.7886 6.32009 54.5056 6.97594 55.2224 7.63179C56.3548 7.24838 57.453 6.7908 58.5169 6.25908C58.7458 5.66461 58.9288 5.05451 59.066 4.42878C60.1019 2.03506 61.9169 0.72335 64.5111 0.493652Z" fill="#030303"/>
<path fill-rule="evenodd" clip-rule="evenodd" d="M64.2358 1.96003C65.7042 1.77159 66.8481 2.29017 67.6676 3.51578C68.4438 4.70255 69.0233 5.98376 69.4063 7.3594C70.4729 11.6544 71.5101 15.9556 72.5178 20.263C72.9544 22.0269 72.7408 23.7047 71.8772 25.2963C70.6274 26.9735 68.9496 27.7665 66.8439 27.6756C64.1262 27.7052 61.7011 26.8969 59.5685 25.2505C58.5269 24.3729 58.054 23.2594 58.15 21.9102C58.5997 20.6168 59.5149 19.9762 60.8955 19.9884C61.5511 19.9934 62.1764 20.1306 62.7715 20.4002C64.0836 21.2395 65.4258 22.0326 66.7982 22.7796C67.0385 22.8707 67.2826 22.9011 67.5303 22.8711C67.6489 22.5608 67.7404 22.2405 67.8048 21.9102C67.5599 20.8393 67.3007 19.7716 67.027 18.7072C66.9888 18.112 67.0041 17.5172 67.0727 16.9227C67.0862 16.5565 67.0251 16.2058 66.8897 15.8703C66.396 16.2274 66.0146 16.6849 65.7458 17.243C64.3207 18.8617 62.5361 19.4871 60.3921 19.119C58.3112 18.9109 57.0147 17.7976 56.5028 15.7787C56.1449 13.6269 56.2059 11.4916 56.6858 9.37272C57.2257 8.29352 58.1103 7.77493 59.3397 7.81697C60.1638 7.85722 60.8655 8.16226 61.4446 8.73212C61.6615 9.22987 61.7225 9.74848 61.6276 10.2879C61.3669 11.7264 61.077 13.1601 60.7582 14.5891C60.8387 15.3864 61.2811 15.783 62.0852 15.7787C62.5595 15.8162 62.9255 15.6331 63.1833 15.2297C63.8883 13.9076 64.1323 12.5044 63.9155 11.02C63.2249 9.39441 62.5843 7.74715 61.9936 6.07819C61.4642 3.96201 62.2115 2.58929 64.2358 1.96003Z" fill="#F7F7F7"/>
<path fill-rule="evenodd" clip-rule="evenodd" d="M11.6094 3.51417C14.6738 3.24752 17.099 4.3457 18.8849 6.8087C19.9093 9.01276 19.345 10.6753 17.1918 11.7962C15.7167 12.3858 14.405 12.1417 13.2567 11.0641C12.9527 10.8507 12.6171 10.744 12.25 10.7438C12.2211 11.0621 12.2669 11.3672 12.3873 11.659C13.7966 14.0147 15.1693 16.3941 16.5055 18.7971C16.9529 19.6919 17.3495 20.607 17.6952 21.5426C18.0426 24.0352 17.0513 25.7588 14.7209 26.7131C11.2735 27.5467 8.07048 26.9672 5.1119 24.9744C4.56601 24.5205 4.12369 23.9867 3.78494 23.3728C3.18093 21.7672 3.62325 20.5622 5.1119 19.758C6.07639 19.5343 7.02203 19.5952 7.94886 19.941C9.50407 20.7795 11.0293 21.6641 12.5246 22.595C12.8906 22.656 13.2567 22.656 13.6228 22.595C13.8255 22.4677 13.8255 22.3152 13.6228 22.1374C12.5029 21.5677 11.542 20.7898 10.7401 19.8038C9.58944 18.1768 8.30824 16.6516 6.89644 15.228C4.87557 12.7135 4.54001 9.99862 5.88978 7.08324C6.83301 5.62231 8.12947 4.60039 9.77915 4.0175C10.4011 3.84705 11.0112 3.67927 11.6094 3.51417Z" fill="#F8F8F8"/>
<path fill-rule="evenodd" clip-rule="evenodd" d="M31.8373 3.97136C33.1056 3.90095 34.3257 4.09923 35.4978 4.5662C38.062 5.72712 40.1211 7.48115 41.6751 9.82829C42.8522 11.8096 43.2793 13.9449 42.9563 16.2343C42.7615 17.6285 42.3344 18.9401 41.6751 20.1694C40.8554 21.2623 39.7725 21.9487 38.4263 22.2285C37.6992 22.2972 36.9824 22.4039 36.2757 22.5488C36.2106 22.7197 36.2564 22.857 36.413 22.9606C36.7367 23.0779 37.0265 23.2456 37.2824 23.464C37.2835 24.4324 37.1309 25.3781 36.8248 26.3009C36.3611 26.9985 35.7052 27.3798 34.8572 27.4449C33.1005 27.6419 32.1091 26.864 31.883 25.1112C31.3497 19.0163 30.9073 12.9153 30.556 6.80831C30.546 6.16079 30.5917 5.52019 30.6933 4.8865C30.9575 4.4229 31.3389 4.11785 31.8373 3.97136Z" fill="#F8F8F8"/>
<path fill-rule="evenodd" clip-rule="evenodd" d="M44.6484 3.97217C49.436 4.44566 52.8372 6.85555 54.8523 11.2018C56.1164 14.1603 55.9944 17.0583 54.4862 19.8957C53.3566 21.6872 51.7246 22.5261 49.5902 22.4124C49.21 22.473 48.844 22.5798 48.492 22.7327C48.5664 22.8529 48.6579 22.9597 48.7665 23.053C49.1396 23.2165 49.4904 23.4148 49.819 23.6478C49.9876 24.7362 49.8351 25.7734 49.3614 26.7593C48.1896 27.9744 46.8627 28.1727 45.3805 27.3542C44.9633 26.9625 44.6735 26.4896 44.5111 25.9357C43.9056 19.2621 43.4175 12.5815 43.0469 5.89398C43.1766 4.89643 43.7104 4.25583 44.6484 3.97217Z" fill="#F7F7F7"/>
<path fill-rule="evenodd" clip-rule="evenodd" d="M24.3283 6.99271C25.602 6.8224 26.685 7.18846 27.5771 8.09088C27.8083 8.43142 27.9914 8.79748 28.1262 9.18906C28.8533 14.4468 29.3872 19.7242 29.7277 25.0211C29.7944 26.2776 29.2148 27.025 27.9889 27.2632C26.4461 27.5678 25.4547 26.9729 25.0147 25.4787C24.9984 24.4498 24.9526 23.4278 24.8774 22.4129C24.7554 22.3519 24.6333 22.3519 24.5113 22.4129C24.2789 22.6147 24.0806 22.8435 23.9165 23.0993C23.623 24.0596 23.2874 25.0053 22.9098 25.9362C22.6556 26.2389 22.3353 26.4372 21.9489 26.5311C21.3998 26.5921 20.8508 26.5921 20.3017 26.5311C19.7856 26.4108 19.4043 26.121 19.1577 25.6617C18.6062 24.4884 18.4536 23.2681 18.7002 22.0011C19.6839 17.7611 20.782 13.5515 21.9947 9.37209C22.429 8.22105 23.2069 7.42792 24.3283 6.99271Z" fill="#F7F7F7"/>
<path fill-rule="evenodd" clip-rule="evenodd" d="M47.8516 10.0122C49.0699 10.6144 50.1528 11.4075 51.1003 12.3916C52.4238 14.0915 52.4849 15.8303 51.2834 17.6079C50.5613 18.3427 49.6919 18.8003 48.6752 18.9806C48.3683 15.9938 48.0937 13.0043 47.8516 10.0122Z" fill="#040404"/>
<path fill-rule="evenodd" clip-rule="evenodd" d="M35.2266 10.0123C36.3788 10.477 37.4008 11.1481 38.2923 12.0257C40.5573 15.2141 39.8709 17.5325 36.2332 18.9808C36.1796 18.9616 36.1338 18.9311 36.096 18.8893C35.8061 15.9299 35.5163 12.971 35.2266 10.0123Z" fill="#050505"/>
<path fill-rule="evenodd" clip-rule="evenodd" d="M24.5111 15.7791C24.7209 15.7557 24.9192 15.7862 25.106 15.8706C25.2045 16.8756 25.2808 17.8822 25.3348 18.8906C25.342 19.2068 25.2962 19.5118 25.1975 19.8058C24.9555 19.9714 24.7267 20.1544 24.5111 20.3549C24.1226 20.1649 23.848 19.875 23.6875 19.4855C23.9771 18.2501 24.2517 17.0147 24.5111 15.7791Z" fill="#0E0E0E"/>
<path fill-rule="evenodd" clip-rule="evenodd" d="M12.8001 36.1845C12.7352 36.1017 12.6437 36.0713 12.5256 36.093C12.4979 36.3271 12.5285 36.5407 12.6171 36.7336C14.187 39.507 15.7579 42.2829 17.3301 45.0614C18.4627 48.3631 17.3493 50.5137 13.9898 51.5132C11.1416 51.9144 8.51812 51.3347 6.11953 49.7744C5.48005 49.2572 4.97672 48.6317 4.60954 47.8983C3.97846 45.9529 4.66481 44.7937 6.66862 44.4208C7.1922 44.4671 7.71079 44.5433 8.22437 44.6496C9.58107 45.3429 10.8928 46.1055 12.1595 46.9374C12.5256 47.09 12.8916 47.2425 13.2577 47.395C13.7335 47.5326 13.9317 47.3648 13.8525 46.8917C12.6195 46.1172 11.5213 45.1716 10.558 44.0547C9.4335 42.5945 8.27432 41.1608 7.08044 39.7535C5.75286 37.9957 5.3868 36.0434 5.98226 33.8966C6.75542 31.9032 8.1434 30.5152 10.1462 29.7327C13.3602 28.6303 16.1209 29.3167 18.4283 31.7918C19.8133 33.545 19.6761 35.1771 18.0164 36.6878C16.9648 37.3977 15.8361 37.5501 14.6304 37.1454C14.0928 36.6834 13.4827 36.3631 12.8001 36.1845Z" fill="#F8F8F8"/>
<path fill-rule="evenodd" clip-rule="evenodd" d="M62.9491 29.1404C65.4901 28.9701 67.6101 29.8242 69.3093 31.7028C70.3606 33.3726 70.1623 34.8826 68.7145 36.2327C66.9462 37.3123 65.2685 37.1751 63.6812 35.8209C63.5173 35.8632 63.4258 35.97 63.4066 36.1412C63.4424 36.432 63.5491 36.6912 63.7269 36.9191C66.0086 39.4695 68.0219 42.215 69.7669 45.1554C70.6746 47.7411 69.9272 49.6782 67.5248 50.9666C64.2134 52.0467 61.0715 51.6806 58.0988 49.8684C57.4172 49.4935 57.1579 48.9291 57.3209 48.1754C57.6401 47.322 57.8231 46.4374 57.87 45.5215C57.9462 45.3232 58.0835 45.1859 58.2818 45.1097C59.3674 45.0642 60.4351 45.1863 61.4848 45.4757C62.6858 46.0304 63.8755 46.61 65.0539 47.2145C65.4021 47.3024 65.7529 47.3787 66.1063 47.4433C66.2534 47.4187 66.3602 47.3423 66.4266 47.2145C66.3394 47.0356 66.2173 46.883 66.0606 46.7569C64.6714 45.8865 63.3597 44.9103 62.1254 43.8285C60.8289 42.532 59.5325 41.2356 58.2361 39.9391C56.4976 37.9886 56.101 35.7923 57.0464 33.35C58.2517 30.8789 60.2193 29.4757 62.9491 29.1404Z" fill="#F8F8F8"/>
<path fill-rule="evenodd" clip-rule="evenodd" d="M46.662 29.8735C47.7422 29.6793 48.6421 29.9845 49.3617 30.7887C49.4532 30.9717 49.5447 31.1547 49.6363 31.3378C49.8921 32.4271 50.1056 33.5253 50.2769 34.6323C50.5227 38.6559 50.7057 42.6826 50.8259 46.7122C50.8944 46.8799 50.9859 47.0324 51.1005 47.1698C51.5443 46.847 51.8494 46.42 52.0156 45.8886C51.9253 44.7334 51.8948 43.5743 51.9241 42.411C52.5261 41.1719 53.5175 40.6686 54.8983 40.9011C56.3189 41.1927 57.0358 42.0621 57.0489 43.5092C57.3698 45.8088 56.8817 47.9136 55.5847 49.8237C55.1553 50.3051 54.652 50.6864 54.0747 50.9677C52.1404 51.4956 50.1881 51.5871 48.2178 51.2422C46.6845 50.6641 45.8762 49.5507 45.7926 47.9019C45.3146 43.0241 44.8722 38.1433 44.4657 33.2596C44.3105 31.5204 45.0426 30.3917 46.662 29.8735Z" fill="#F8F8F8"/>
<path fill-rule="evenodd" clip-rule="evenodd" d="M37.8734 31.5187C39.2273 31.335 40.3712 31.7316 41.3052 32.7084C41.4784 32.9937 41.6004 33.2988 41.6712 33.6235C42.0511 35.808 42.3561 38.0043 42.5864 40.2126C42.8385 42.6517 43.0825 45.0922 43.3185 47.5338C43.3795 48.3879 43.3795 49.2421 43.3185 50.0962C43.1934 51.0449 42.6596 51.6093 41.717 51.7892C41.1679 51.8502 40.6188 51.8502 40.0697 51.7892C39.2867 51.494 38.8443 50.9297 38.7427 50.0962C38.6283 49.1496 38.5062 48.2039 38.3767 47.2592C38.3501 47.1179 38.2892 46.9959 38.1937 46.8932C37.8477 47.2393 37.5732 47.6359 37.37 48.0829C37.1989 48.7982 36.9853 49.4998 36.7294 50.1877C36.2733 50.8582 35.6327 51.1938 34.8076 51.1944C34.2244 51.1844 33.6906 51.0165 33.2061 50.691C32.8894 50.3451 32.5843 49.9942 32.291 49.6386C29.5376 51.4916 26.5481 51.9949 23.3225 51.1486C21.1135 50.1584 19.7866 48.4654 19.3416 46.0695C18.6359 42.125 19.307 38.4339 21.355 34.9963C22.6137 33.3676 24.2762 32.4677 26.3425 32.2966C27.7692 32.1657 29.1724 32.2877 30.5522 32.6626C31.8319 33.2349 32.2437 34.1958 31.7876 35.5453C31.4927 36.1148 31.0503 36.5267 30.4607 36.7808C28.8774 37.1028 27.2912 37.4079 25.7019 37.6959C25.2875 38.0379 25.074 38.4803 25.0613 39.0229C25.3644 39.0634 25.6694 39.0939 25.9765 39.1144C26.801 38.9999 27.6246 38.8779 28.4473 38.7484C30.5375 38.9637 31.3154 40.0923 30.781 42.1344C30.4336 42.8472 29.8693 43.2896 29.0879 43.4614C27.9387 43.7522 26.7795 43.9963 25.6104 44.1935C25.1163 44.3323 24.7502 44.6221 24.5122 45.0629C24.7392 45.6962 25.1967 46.0165 25.8849 46.0238C26.7635 46.1412 27.6176 46.0497 28.4473 45.7492C29.1486 45.3988 29.8197 45.0022 30.4607 44.5595C31.1935 44.2181 31.8952 44.2639 32.5655 44.6968C32.697 44.4643 32.8037 44.2202 32.8858 43.9647C33.7358 40.6602 34.6205 37.3657 35.5397 34.0811C35.9599 32.8839 36.7377 32.0297 37.8734 31.5187Z" fill="#F8F8F8"/>
<path fill-rule="evenodd" clip-rule="evenodd" d="M12.8078 36.1852C12.6424 36.315 12.5813 36.498 12.6248 36.7343C12.5362 36.5415 12.5056 36.3279 12.5333 36.0937C12.6514 36.072 12.7429 36.1025 12.8078 36.1852Z" fill="#575757"/>
<path fill-rule="evenodd" clip-rule="evenodd" d="M38.2412 39.8486C38.3632 39.8486 38.4853 39.8486 38.6072 39.8486C38.7975 41.2788 38.9348 42.7126 39.0191 44.1498C38.7754 44.5393 38.4247 44.7833 37.9666 44.8819C37.8267 44.8793 37.7199 44.8182 37.6463 44.6989C37.4726 44.4359 37.3962 44.1461 37.4176 43.8295C37.6279 42.4876 37.9025 41.1607 38.2412 39.8486Z" fill="#0C0C0C"/>
</g>
</g>
<defs>
<clipPath id="clip0_6_1154">
<rect width="76.1967" height="56" fill="white"/>
</clipPath>
<clipPath id="clip1_6_1154">
<rect width="75.4081" height="55.7324" fill="white" transform="translate(0.398438 0.540039)"/>
</clipPath>
</defs>
</svg>
