<svg width="142" height="42" viewBox="0 0 142 42" fill="none" xmlns="http://www.w3.org/2000/svg">
<g clip-path="url(#clip0_6_1052)">
<path d="M62.3724 32.5429V32.3959C62.2821 31.3872 62.78 29.4711 61.3449 29.2419C60.3347 29.1454 59.2311 29.2434 58.2209 29.3256C57.7071 29.3825 57.4169 29.7366 57.382 30.2236C57.2869 30.6473 57.4804 31.3809 57.0395 31.6212C55.8422 31.9327 54.7036 30.4402 54.9177 29.2829C55.1524 27.7036 57.2678 26.5969 58.7252 27.0269C59.4292 27.1376 60.3332 27.8047 61.0007 27.362C61.5289 26.7597 61.5637 25.6736 61.9713 24.9447C62.1806 24.4705 62.5659 24.0531 62.2297 23.6041C58.9376 20.4359 53.0417 21.6152 50.4252 25.0775C47.3503 30.9525 50.3745 37.1956 57.4042 36.8811C58.9662 36.8811 60.525 36.4922 61.8127 35.6906C62.7515 34.9491 62.2424 33.5864 62.3756 32.5429H62.3724Z" fill="black"/>
<path d="M73.6232 31.4797C73.7739 30.9422 74.3082 30.5517 74.6031 30.0853C75.3786 29.2221 75.5103 28.0111 75.4896 26.8949C75.7418 23.7566 72.7319 22.2152 69.9806 22.1978C67.8033 22.1915 65.274 21.4943 63.2316 22.3591C62.9889 22.5552 62.9921 22.9235 62.9858 23.2175C63.0206 26.0807 62.9905 28.9518 62.9858 31.78V31.9319C62.981 32.7096 62.9874 33.7357 63.0317 34.5737C63.1063 35.353 62.9208 36.4993 63.8849 36.5546C65.2836 36.5357 66.8186 36.7791 68.1443 36.4692C68.7802 35.7704 68.3457 34.5325 68.4567 33.663C68.4472 33.3152 68.4694 32.939 68.5629 32.9326C68.9689 33.3532 69.1195 34.2211 69.4225 34.776C69.7982 35.5839 69.9235 36.64 70.9432 36.5419C72.4243 36.5008 74.064 36.67 75.5388 36.553C76.2556 36.2827 75.5214 35.4558 75.3057 34.9879C74.7491 33.8939 73.7643 32.6859 73.6216 31.4829L73.6232 31.4797ZM70.312 27.8165C70.2756 28.2102 70.0441 28.5059 69.6968 28.6893C68.6708 29.2332 68.5487 29.1051 68.5661 28.0411C68.5693 27.7992 68.5661 27.5558 68.5661 27.3123H68.5693C68.5693 26.9012 68.5566 26.4886 68.574 26.0776C68.5867 25.7755 68.6787 25.7139 68.961 25.7961C69.9283 26.0744 70.4041 26.8063 70.312 27.8181V27.8165Z" fill="black"/>
<path d="M88.6061 24.3167C86.5461 21.8772 82.986 21.0773 80.0905 22.2994C74.0724 24.4163 73.9677 35.2965 80.5471 36.6071C85.5407 37.875 90.2426 35.4277 90.2394 29.9197L90.2363 29.7678C90.0745 27.8612 90 25.7491 88.6045 24.3151L88.6061 24.3167ZM83.5141 31.5465C81.6698 31.5939 79.9525 30.1505 81.2464 28.3339C81.5382 27.7505 82.2867 27.0865 82.921 27.1782L83.0289 27.1845C85.4266 27.0865 85.555 30.9489 83.5126 31.5465H83.5141Z" fill="black"/>
<path d="M102.083 22.2668C100.836 22.2241 99.324 22.0407 98.0918 22.2193C97.3939 22.4154 97.5051 23.2233 97.4416 23.8098C97.2893 25.6975 97.4957 27.797 97.4416 29.7653C97.4761 30.5906 97.6985 32.3486 96.37 32.0166C96.1963 31.9186 96.0664 31.7478 95.9889 31.566C95.7245 29.6468 95.9001 27.5377 95.8413 25.5583C95.8114 24.6066 96.0711 23.4399 95.7637 22.5608C95.689 22.4344 95.575 22.3506 95.4293 22.3095C94.368 22.2209 93.206 22.2209 92.1197 22.2446C91.7201 22.2605 91.2443 22.2415 91.0049 22.4865C90.4007 23.9094 90.7797 25.8367 90.7147 27.3955C90.7702 29.514 90.526 31.6783 91.1967 33.7004C92.0055 35.2212 93.4394 36.4813 95.2023 36.739C97.8461 37.1374 101.045 36.0149 102.072 33.3573C102.811 31.3937 102.56 29.291 102.559 27.1425H102.557V26.9891C102.53 25.9315 102.611 24.6462 102.619 23.5379C102.603 22.9814 102.639 22.4011 102.083 22.2637V22.2668Z" fill="black"/>
<path d="M115.023 22.7067C114.718 22.1977 113.992 22.2372 113.378 22.2324C112.628 22.3526 111.623 21.9273 111.058 22.4885C110.612 23.6727 110.925 25.3501 110.665 26.5232C110.634 26.6276 110.587 26.6734 110.532 26.6433C109.737 25.4276 109.318 23.6252 108.374 22.4917C107.823 22.1392 107.167 22.272 106.515 22.3146C105.743 22.4269 104.986 22.302 104.257 22.4379C103.849 22.5281 103.647 22.8443 103.631 23.2601C103.62 25.154 103.656 27.0829 103.616 28.9516C103.781 31.3182 103.308 33.8383 103.805 36.1529C104.113 36.5687 104.77 36.5386 105.368 36.5434C106.019 36.4944 106.815 36.6446 107.428 36.5149C108.088 36.2714 107.893 35.3892 107.972 34.7474C108.004 34.2035 107.971 33.3309 108.249 33.4589C109.94 35.5948 109.12 36.9054 112.59 36.6177H112.717C113.554 36.5149 115.143 37.0098 115.167 35.8288C115.01 31.5506 115.463 26.9706 115.02 22.7067H115.023Z" fill="black"/>
<path d="M120.12 22.201C118.929 22.2486 117.457 21.9434 116.371 22.3987C115.946 24.4144 116.418 26.699 116.239 28.8032C116.33 31.2758 115.928 33.9256 116.512 36.3033C117.092 36.7586 118.272 36.4472 118.903 36.5499L119.011 36.5579C121.903 36.8693 125.518 35.3025 126.8 32.5454C128.26 29.8925 128.099 26.0002 126.057 23.6555C124.569 21.9181 122.18 22.1853 120.118 22.2026L120.12 22.201ZM122.653 29.3408C122.592 29.5747 122.496 29.7976 122.364 30C122.271 30.1391 122.126 30.4048 121.944 30.4316C121.842 30.4474 121.737 30.4506 121.634 30.4569C121.459 30.468 121.275 30.4885 121.1 30.4806C120.996 30.4759 121.009 30.3779 121.009 30.3098C121.009 29.7644 121.001 29.2237 120.995 28.683C120.989 28.1234 120.984 27.5653 120.991 27.0025C120.991 26.8776 120.97 26.7195 121.121 26.6626C121.41 26.555 122.044 26.691 122.294 26.8617C122.619 27.0863 122.779 27.5511 122.776 27.9305C122.773 28.4016 122.776 28.8822 122.653 29.3408Z" fill="black"/>
<path d="M139.868 28.9284C138.922 28.5647 137.971 28.0082 136.973 27.8438C136.13 27.5244 134.825 27.2952 134.12 26.696C133.915 26.4415 134.09 26.1759 134.357 26.0446C135.987 25.3964 138.039 26.413 139.581 26.9838C139.92 27.0865 140.388 27.2446 140.686 27.0169C140.964 26.7892 140.87 26.2012 140.898 25.7395C140.903 24.9396 141.063 23.953 140.595 23.3301C140.429 23.1072 140.137 22.9791 139.883 22.8669C138.153 22.1807 136.374 21.8661 134.627 21.9104H134.628H134.479C131.217 21.5815 125.992 25.2146 128.802 28.6627C129.923 29.7536 131.515 30.2485 132.908 30.9172C133.621 31.1954 138.208 31.9748 135.784 32.8206C133.433 33.4594 131.174 31.578 128.948 31.6666C128.365 32.0981 128.694 33.0277 128.607 33.7139C128.668 34.2957 128.456 35.1052 128.747 35.5889C130.214 36.5612 132.322 36.6988 134.089 36.7905C136.791 36.9786 139.839 36.3051 141.544 34.0886C142.526 32.2879 141.902 29.7156 139.869 28.9314L139.868 28.9284Z" fill="black"/>
<path d="M61.1666 12.9898C60.2119 12.623 59.2509 12.0602 58.2456 11.8958C57.394 11.5733 56.0762 11.3424 55.3658 10.7369C55.158 10.4792 55.3356 10.2121 55.6053 10.0793C57.2513 9.4263 59.3207 10.4507 60.8779 11.0262C61.2205 11.129 61.6914 11.2887 61.9943 11.0595C62.2766 10.8302 62.1799 10.2358 62.2084 9.76941C62.2148 8.9615 62.3749 7.96549 61.9024 7.33626C61.7343 7.11019 61.4393 6.98213 61.184 6.8683C59.438 6.17425 57.6414 5.85806 55.8765 5.90233H55.878H55.7274C52.4353 5.57032 47.161 9.23817 49.9963 12.7179C51.1286 13.8198 52.735 14.3194 54.1415 14.9929C54.8615 15.2743 59.492 16.0601 57.0451 16.9138C54.6712 17.5588 52.3925 15.6585 50.1439 15.7486C49.5555 16.185 49.8647 17.1193 49.7997 17.8149C49.7283 18.5785 49.6475 19.2188 49.9409 19.7074C51.422 20.6891 53.5501 20.8283 55.3325 20.9199C58.0601 21.1097 61.1364 20.4298 62.8571 18.1927C63.8482 16.3747 63.2186 13.7771 61.1666 12.9882V12.9898Z" fill="black"/>
<path d="M74.2507 8.41973C74.246 7.80947 74.2618 6.89567 73.8004 6.63798C73.3501 6.3281 67.6048 6.8435 64.2461 6.52889C62.7332 6.3866 62.7221 6.77077 62.7253 8.08772C62.73 8.60628 62.6492 10.3817 62.8268 10.777C63.0806 11.2955 63.8496 11.0821 64.6663 11.1327C65.2752 11.1706 65.6321 11.1121 65.6828 11.4804C66.0031 14.6092 65.6923 16.655 65.8144 19.828C65.8334 20.1426 65.8715 20.4445 66.1728 20.5726C67.6587 20.7908 69.2904 20.7086 70.7668 20.6201C71.0665 20.5505 71.2315 20.3497 71.2631 20.0509C71.3202 18.568 71.2695 16.9301 71.2869 15.4092V12.4891C71.3472 11.9121 71.0887 11.3508 71.7087 11.1516C72.8822 10.9588 73.4246 11.248 73.7449 11.003C74.2984 10.5793 74.2571 9.09163 74.2507 8.41814V8.41973Z" fill="black"/>
<path d="M86.977 8.33573C84.8965 5.87417 81.3046 5.06629 78.382 6.29945C72.3085 8.43533 72.2022 19.4199 78.8435 20.7431C83.8847 22.0222 88.6309 19.5527 88.6278 13.994L88.6246 13.8407C88.4612 11.915 88.3867 9.78393 86.9786 8.33573H86.977ZM81.8375 15.6335C79.9757 15.6809 78.2425 14.2232 79.5476 12.3909C79.8426 11.8028 80.5974 11.1325 81.238 11.2242L81.3474 11.2305C83.769 11.1309 83.8973 15.0295 81.8359 15.6335H81.8375Z" fill="black"/>
<path d="M99.6071 15.5676C99.7593 15.0254 100.299 14.6317 100.597 14.1605C101.38 13.2895 101.512 12.0674 101.491 10.9401C101.746 7.77183 98.7084 6.21616 95.93 6.19878C93.7318 6.19245 91.179 5.48892 89.1176 6.36161C88.8733 6.55924 88.8764 6.93076 88.8686 7.22798C88.9034 10.118 88.8733 13.0175 88.8686 15.8712V16.0245C88.8638 16.8087 88.8701 17.8458 88.9146 18.6916C88.9891 19.479 88.802 20.6346 89.7756 20.69C91.1869 20.6709 92.7378 20.9176 94.0747 20.603C94.7165 19.8978 94.2774 18.6474 94.3904 17.7699C94.3811 17.4189 94.4026 17.0395 94.4979 17.0316C94.9071 17.4569 95.0593 18.3327 95.3657 18.8924C95.7441 19.7082 95.8712 20.7738 96.9007 20.6741C98.3963 20.633 100.052 20.8037 101.539 20.6852C102.264 20.4117 101.521 19.5785 101.305 19.1058C100.743 18.0007 99.7481 16.7834 99.6043 15.5676H99.6071ZM96.2645 11.8713C96.228 12.2697 95.9935 12.5669 95.6432 12.7519C94.6072 13.3005 94.4839 13.1724 94.5025 12.0974C94.5063 11.8523 94.5025 11.6073 94.5025 11.3622H94.5063C94.5063 10.9464 94.4932 10.5306 94.5109 10.1164C94.5231 9.8113 94.6174 9.7496 94.9005 9.83183C95.8758 10.1132 96.3579 10.8516 96.2645 11.8728V11.8713Z" fill="black"/>
<path d="M113.743 6.39782C112.609 6.01997 111.215 6.37727 109.995 6.27609C109.563 6.30297 109.079 6.27766 108.785 6.45948C108.13 7.15352 108.056 8.50209 107.725 9.39059C107.289 11.6182 106.373 7.0144 106.277 6.60493C106.206 6.34881 105.972 6.27609 105.744 6.22549C104.663 6.21127 103.426 6.20178 102.312 6.26185C100.308 6.21127 100.695 6.75986 101.386 8.21435C102.252 11.0411 104.187 13.5058 104.345 16.4844C104.434 17.7539 104.183 19.297 104.679 20.4526C105.284 20.9443 106.507 20.6376 107.089 20.734L107.212 20.7388C107.807 20.6976 109.151 20.9411 109.691 20.5443C109.959 20.2898 109.901 19.7412 109.913 19.2811C109.947 17.8108 109.777 16.3374 110.047 14.8813C110.386 13.7604 111.009 12.8166 111.584 11.7225C112.298 10.1242 113.202 8.54636 113.855 6.93061C113.908 6.71085 113.879 6.51639 113.743 6.3994V6.39782Z" fill="black"/>
<path d="M22.2128 41.5798C33.2724 41.5798 42.238 32.6414 42.238 21.6154C42.238 10.5892 33.2724 1.65088 22.2128 1.65088C11.1531 1.65088 2.18756 10.5892 2.18756 21.6154C2.18756 32.6414 11.1531 41.5798 22.2128 41.5798Z" fill="black"/>
<path d="M8.44614 31.5105C8.47468 31.5058 9.68778 31.3287 11.3766 30.9509C13.0687 30.5715 15.2301 29.9976 17.2075 29.1612L15.9135 26.1289C14.2406 26.8404 12.225 27.3858 10.6536 27.7352C9.86537 27.9106 9.18669 28.0419 8.70937 28.1257C8.46992 28.1684 8.28121 28.2 8.15435 28.2205L8.01163 28.2427L7.96881 28.249L8.44771 31.5105H8.44614Z" fill="white"/>
<path d="M10.0743 36.2862C10.1028 36.2767 11.2668 35.902 12.87 35.2506C14.4732 34.5978 16.5094 33.676 18.3203 32.5251L16.5411 29.7505C15.0108 30.7275 13.1158 31.597 11.6236 32.2025C10.8767 32.5061 10.2297 32.7464 9.77304 32.9093C9.54462 32.9899 9.36385 33.0531 9.24176 33.0942L9.1038 33.1401L9.06256 33.1527L10.0759 36.2877L10.0743 36.2862Z" fill="white"/>
<path d="M20.8198 16.793C20.7812 16.815 20.7657 16.8197 20.7657 16.8197L20.8167 16.7945H20.8198V16.793Z" fill="black"/>
<path d="M22.5198 3.35938C23.7615 3.35938 26.2702 4.52138 27.9099 6.48969C27.6673 5.34982 27.8021 4.6779 28.2287 4.6779C28.9042 4.6779 30.3139 6.3727 32.1122 10.575C34.2467 10.8642 36.3161 12.0974 37.7877 15.1186C40.7009 21.0915 38.9501 27.1861 32.894 29.107C31.7618 29.4659 30.6818 29.6319 29.6686 29.6319C26.7713 29.6319 24.4022 28.277 22.8228 26.2123C23.3587 27.3174 24.564 29.1403 27.0139 30.2469C24.8161 33.3251 20.5028 36.087 16.0341 36.4443C16.0341 36.4443 12.9703 33.0152 11.7778 25.5578C11.7778 25.5578 12.6325 24.9522 14.3261 24.1444C12.4613 24.6519 10.8612 25.0645 10.2126 25.1799C9.86378 25.2415 9.53232 25.2716 9.22309 25.2716C7.75466 25.2716 6.76671 24.6123 6.57959 23.6179C6.31636 22.2298 8.23197 21.5216 8.23197 21.5216C8.23197 21.5216 7.43116 21.0331 7.75307 20.1651C7.91164 19.7398 8.49838 19.3746 10.0842 19.3746C14.4847 19.3746 18.4824 19.7367 20.6772 19.9801C20.6661 19.3525 20.7136 18.7358 20.8231 18.1367C22.2249 17.9643 23.6934 17.5881 24.3007 17.4221C22.7624 17.5043 21.413 17.5407 20.23 17.5407C10.4505 17.5407 12.1727 14.9969 14.6797 14.0404C5.51712 11.914 8.85043 9.02715 13.5237 9.02715C14.7463 9.02715 16.061 9.22477 17.2662 9.68484C16.0467 7.9347 16.4289 7.1205 17.5944 7.1205C19.3166 7.1205 22.7514 8.90067 25.2569 12.0658C25.6533 11.8413 26.0767 11.6374 26.5239 11.4556C22.5675 8.89593 22.5738 7.32286 24.0993 7.32286C24.3879 7.32286 24.732 7.37978 25.1142 7.49677C21.3036 4.60834 21.2306 3.36096 22.5182 3.36096" fill="white"/>
<path d="M33.935 25.4765C33.8493 25.5223 33.759 25.5634 33.6622 25.6014C31.6499 26.3934 29.7914 24.7903 28.9161 22.9674C28.0724 21.211 27.9978 18.8822 29.8231 17.9178L29.8722 17.8925C31.7197 16.9613 33.5909 18.5076 34.5471 20.3383C35.5271 22.2134 35.6302 24.5801 33.9334 25.4765H33.935Z" fill="black"/>
<path d="M37.2491 20.9456C35.9805 21.412 35.2273 20.0793 34.1807 17.8058C33.4211 16.1553 33.042 14.0605 34.2235 13.5593L34.2774 13.5388C35.5047 13.0867 36.9589 14.5948 37.7201 16.5063C38.3877 18.1837 38.513 20.3195 37.3918 20.8855C37.3443 20.9092 37.2966 20.9298 37.2507 20.9472L37.2491 20.9456Z" fill="black"/>
<path opacity="0.3" d="M10.2362 17.1732C10.4989 16.8698 10.4965 16.4384 10.2306 16.2096C9.96479 15.9807 9.53636 16.0412 9.2736 16.3445C9.01088 16.6479 9.01338 17.0793 9.27919 17.3081C9.54505 17.5369 9.97348 17.4765 10.2362 17.1732Z" fill="white"/>
<path opacity="0.3" d="M34.8265 33.4665C35.3776 32.8381 35.4161 31.9727 34.9125 31.5336C34.4088 31.0945 33.5537 31.2479 33.0025 31.8762C32.4513 32.5046 32.4128 33.3699 32.9166 33.8091C33.4202 34.2482 34.2754 34.0949 34.8265 33.4665Z" fill="white"/>
<path opacity="0.3" d="M27.2146 38.8377C28.7333 38.327 29.6327 36.9324 29.2234 35.7228C28.8141 34.5132 27.2513 33.9467 25.7326 34.4574C24.214 34.9681 23.3146 36.3627 23.7239 37.5723C24.1332 38.7818 25.696 39.3483 27.2146 38.8377Z" fill="white"/>
<path opacity="0.3" d="M7.88665 15.9025C8.37923 15.1859 8.31293 14.2868 7.73857 13.8944C7.16422 13.5021 6.2993 13.765 5.80671 14.4816C5.31414 15.1983 5.38043 16.0974 5.9548 16.4898C6.52916 16.8821 7.39408 16.6192 7.88665 15.9025Z" fill="white"/>
<path d="M41.0246 17.5523C39.7306 17.5523 38.8759 16.9247 38.6792 15.8306C38.5571 15.1476 38.7284 14.3872 39.1486 13.7438C39.5482 13.1319 40.1223 12.7019 40.6852 12.5912C40.8835 12.5518 41.0722 12.5327 41.2418 12.5327C42.0808 12.5327 42.4407 12.9944 42.5961 13.3818C42.7483 13.7612 42.7658 14.0852 42.7816 14.3461C42.7975 14.6212 42.8102 14.7714 42.9164 14.92C43.2051 15.3248 43.4191 15.9745 43.2526 16.5137C43.1717 16.7714 42.9719 17.1175 42.4692 17.3025C42.0474 17.4574 41.5067 17.5508 41.0246 17.5508V17.5523Z" fill="white"/>
<path d="M41.1933 12.9361C41.7785 12.9361 42.0448 13.2128 42.1733 13.5321C42.4477 14.2135 42.2035 14.6847 42.538 15.1542C42.8726 15.6237 43.1454 16.6086 42.2795 16.928C41.9593 17.0451 41.4739 17.151 40.9744 17.151C40.1197 17.151 39.2206 16.8426 39.0271 15.7613C38.7987 14.4886 39.7867 13.1701 40.7144 12.9882C40.8936 12.9535 41.0521 12.9377 41.1933 12.9377M41.1933 12.1313C40.9966 12.1313 40.7826 12.1536 40.559 12.1978C39.8819 12.3306 39.2269 12.8144 38.7623 13.5257C38.2787 14.2641 38.0915 15.1083 38.2342 15.902C38.3642 16.6277 38.7464 17.1968 39.3395 17.5509C39.7882 17.8181 40.3386 17.954 40.976 17.954C41.512 17.954 42.0893 17.8545 42.5602 17.6822C43.0725 17.494 43.4388 17.1225 43.5894 16.6339C43.8114 15.9162 43.5181 15.1368 43.1977 14.6878C43.1596 14.6341 43.1501 14.5614 43.1375 14.3242C43.1216 14.0491 43.101 13.6728 42.9249 13.2333C42.7933 12.906 42.5903 12.6451 42.3208 12.4555C42.0132 12.2405 41.6341 12.1313 41.1949 12.1313H41.1933Z" fill="black"/>
<path d="M41.906 26.9034C40.658 26.9034 39.7778 26.4165 39.3703 25.9595C38.996 25.5406 38.8359 24.9998 38.9073 24.396C39.0769 22.9462 40.4693 21.8633 41.5999 21.8633C41.6554 21.8633 41.7109 21.8664 41.7648 21.8711C43.0033 21.9929 43.3205 22.649 43.3664 23.1786C43.403 23.5849 43.3252 23.9011 43.265 24.1556C43.2 24.4229 43.1698 24.5699 43.2269 24.7437C43.3855 25.2133 43.4045 25.8979 43.0874 26.3675C42.9367 26.5919 42.6434 26.8654 42.1089 26.897C42.0439 26.9002 41.9757 26.9034 41.906 26.9034Z" fill="white"/>
<path d="M41.6052 22.2652C41.648 22.2652 41.6892 22.2668 41.7305 22.2714C42.6709 22.3648 42.9324 22.7884 42.9706 23.2137C43.0356 23.9457 42.6661 24.3251 42.85 24.8706C43.034 25.416 43.0118 26.4388 42.0888 26.4942C42.0334 26.4974 41.9731 26.499 41.9112 26.499C40.9281 26.499 39.1219 26.0674 39.3122 24.4406C39.4548 23.2121 40.6759 22.2636 41.6036 22.2636M41.6052 21.462C40.9423 21.462 40.2208 21.7656 39.6277 22.2935C38.9982 22.8549 38.6017 23.5837 38.5113 24.3488C38.4273 25.0697 38.6224 25.7195 39.0742 26.2255C39.4216 26.616 39.9068 26.9084 40.5157 27.095C40.955 27.2294 41.4513 27.3037 41.9112 27.3037C41.989 27.3037 42.065 27.3021 42.138 27.2973C42.6835 27.2641 43.1418 27.0128 43.4272 26.5907C43.8475 25.9678 43.792 25.1378 43.6143 24.6145C43.5938 24.5512 43.6049 24.4801 43.662 24.2492C43.727 23.982 43.8157 23.6152 43.7729 23.1426C43.7333 22.6967 43.5462 22.3094 43.2322 22.0232C42.8944 21.7166 42.4155 21.53 41.8097 21.4699C41.7432 21.4636 41.6734 21.4604 41.6052 21.4604V21.462Z" fill="black"/>
<path d="M12.5157 35.2832C12.5202 35.2907 12.5232 35.2984 12.5261 35.306C12.5232 35.2984 12.5187 35.2907 12.5157 35.2832Z" fill="white"/>
<path d="M12.7159 35.8296C12.7159 35.8423 12.7127 35.8565 12.7096 35.8676C12.6857 35.9403 12.6461 35.9988 12.5938 36.0478C12.6477 36.0004 12.6857 35.9403 12.7111 35.8676C12.7143 35.8549 12.7175 35.8423 12.7175 35.8296H12.7159Z" fill="white"/>
<path d="M8.03504 37.4946C7.9494 37.5673 7.86536 37.6432 7.78131 37.7191C7.86536 37.6432 7.9494 37.5689 8.03504 37.4946Z" fill="white"/>
<path d="M7.77869 37.7183C7.69464 37.7941 7.61376 37.87 7.53131 37.9459C7.61219 37.87 7.69464 37.7941 7.77869 37.7183Z" fill="white"/>
<path d="M9.95099 32.3477C9.94182 32.3523 9.93264 32.3554 9.92194 32.36C9.93111 32.3569 9.94029 32.3523 9.95099 32.3492V32.3477Z" fill="white"/>
<path d="M10.9203 27.7502C10.9109 27.6728 10.9 27.5953 10.8907 27.5146C10.9 27.5953 10.9094 27.6728 10.9203 27.7502Z" fill="white"/>
<path d="M10.1045 27.2476C10.0874 27.2539 10.0719 27.2586 10.0547 27.2649C10.0719 27.2586 10.089 27.2523 10.1045 27.2476Z" fill="white"/>
<path d="M4.00299 34.5903C3.84917 34.7058 3.68266 34.8417 3.49871 35.0093C3.68266 34.8417 3.84599 34.7105 3.99981 34.5951C3.84917 35.3745 3.10227 36.1065 2.63287 36.8843C3.10385 36.1049 3.85392 35.3713 4.00299 34.5919V34.5903Z" fill="white"/>
<path d="M3.37583 28.5254C3.30606 28.7799 3.2458 29.0661 3.16651 29.3775C3.07453 29.7396 2.84618 30.0827 2.57819 30.421C2.84777 30.0827 3.07453 29.7396 3.16651 29.3775C3.2458 29.0645 3.30606 28.7799 3.37583 28.5254Z" fill="white"/>
<path d="M9.38098 32.5449C9.38098 32.5449 9.36662 32.5492 9.35944 32.5521C9.36662 32.5492 9.3738 32.5478 9.38098 32.5449Z" fill="white"/>
<path d="M11.1641 31.8589C11.1764 31.8589 11.1901 31.8589 11.2024 31.8589C11.1993 31.8589 11.1962 31.8589 11.1932 31.8589C11.184 31.8589 11.1748 31.8589 11.1641 31.8604V31.8589Z" fill="white"/>
<path d="M11.5641 32.168V32.1711C11.5672 32.1915 11.5718 32.2105 11.5749 32.2309C11.5702 32.2105 11.5672 32.1915 11.5626 32.1711V32.168H11.5641Z" fill="white"/>
<path d="M6.92289 27.9062C6.8929 27.9031 6.86291 27.8983 6.83292 27.8936C6.83292 27.8936 6.82977 27.8936 6.82819 27.8936C6.82819 27.8936 6.83134 27.8936 6.83292 27.8936C6.86133 27.8983 6.89133 27.9031 6.92131 27.9062H6.92289Z" fill="white"/>
<path d="M8.19602 31.9408C7.74724 32.0436 7.30004 32.3328 6.87506 32.6569C7.09231 32.7376 7.31907 32.8087 7.56171 32.834C7.31907 32.8087 7.0939 32.736 6.87664 32.6554C7.30163 32.3312 7.74882 32.042 8.19602 31.9408C8.44498 31.8839 8.67809 31.8395 8.9001 31.8032C8.67968 31.8395 8.44498 31.8839 8.19602 31.9408Z" fill="white"/>
<path d="M8.78249 27.707C8.74148 27.718 8.69889 27.7275 8.65631 27.7369C8.69889 27.7275 8.73991 27.7165 8.78249 27.707Z" fill="white"/>
<path d="M7.90541 27.8779C7.85831 27.8841 7.81121 27.8905 7.76569 27.8952C7.81278 27.8905 7.85831 27.8841 7.90541 27.8779Z" fill="white"/>
<path d="M8.62213 32.7456C8.50954 32.7693 8.39695 32.7883 8.28912 32.8041C8.39854 32.7883 8.50954 32.7677 8.62213 32.7456Z" fill="white"/>
<path d="M4.9146 27.2373C4.89882 27.2373 4.88303 27.2373 4.86725 27.2389C4.89566 27.2389 4.92249 27.2389 4.9509 27.2389C4.93827 27.2389 4.92723 27.2373 4.91618 27.2373H4.9146Z" fill="white"/>
<path d="M4.70319 27.2569C4.74557 27.249 4.78639 27.2443 4.82721 27.2427C4.78639 27.2458 4.74557 27.2506 4.70319 27.2569Z" fill="white"/>
<path d="M11.6657 30.8441C11.6737 30.8663 11.6831 30.8884 11.6911 30.909C11.6926 30.9137 11.6942 30.9184 11.6974 30.9232C11.7069 30.9469 11.7149 30.969 11.7212 30.9896C11.7212 30.9943 11.7244 30.9975 11.726 31.0023C11.7323 31.018 11.737 31.0339 11.7418 31.0481C11.7434 31.0544 11.745 31.0592 11.7465 31.0654C11.7513 31.0781 11.7545 31.0907 11.7577 31.1034C11.7577 31.1082 11.7608 31.1129 11.7608 31.1176C11.764 31.1335 11.7688 31.1493 11.7704 31.1619V31.1682C11.772 31.1793 11.7735 31.1904 11.7735 31.2014C11.7735 31.2062 11.7735 31.2094 11.7735 31.2141C11.7735 31.222 11.7735 31.2315 11.7735 31.2394C11.7735 31.2426 11.7735 31.2473 11.7735 31.2504C11.772 31.2615 11.7688 31.2711 11.7656 31.2805C11.6799 31.4923 11.4723 31.5666 11.1329 31.6046C11.1233 31.6046 11.1154 31.6062 11.106 31.6077C10.9014 31.6299 10.6413 31.6425 10.3987 31.6505C10.1688 31.6615 9.91026 31.6773 9.62001 31.7074C9.37898 31.7485 8.92548 31.8101 8.89851 31.8022C8.6781 31.8386 8.4434 31.8829 8.19444 31.9398C7.74725 32.041 7.30005 32.3319 6.87506 32.6543C7.09232 32.735 7.3175 32.8077 7.56013 32.833C7.59026 32.8362 7.62197 32.8377 7.65368 32.8393C7.6632 32.8393 7.67271 32.8393 7.68223 32.8393C7.70601 32.8393 7.73139 32.8393 7.75517 32.8409C7.76469 32.8409 7.77261 32.8409 7.78213 32.8409C7.82811 32.8409 7.87569 32.8393 7.92326 32.8362C7.9312 32.8362 7.93912 32.8362 7.94705 32.8362C7.99621 32.833 8.04537 32.8298 8.09611 32.8236C8.10245 32.8236 8.11039 32.8236 8.11673 32.822C8.16906 32.8156 8.22298 32.8093 8.27689 32.8013C8.28166 32.8013 8.28482 32.8013 8.28958 32.7998C8.399 32.784 8.51 32.7635 8.6226 32.7413C8.80337 32.6986 9.13322 32.6227 9.36945 32.5468C9.37739 32.5437 9.38533 32.5421 9.39327 32.539C9.39804 32.539 9.40121 32.5358 9.40598 32.5358C9.52173 32.4994 9.63271 32.4615 9.74061 32.4219C9.74528 32.4204 9.75005 32.4188 9.75322 32.4172C9.80405 32.3982 9.85477 32.3793 9.90232 32.3603C9.90868 32.3572 9.91503 32.3556 9.92138 32.3524C9.93082 32.3477 9.94035 32.3445 9.95146 32.3397C9.95146 32.3397 10.4748 32.0852 10.7222 31.9729C10.7427 31.9635 10.7634 31.9556 10.7824 31.946C10.7951 31.9414 10.8078 31.9366 10.8205 31.9319C10.8411 31.9239 10.8602 31.9161 10.8807 31.9097C10.8934 31.905 10.9061 31.9018 10.9188 31.8986C10.9362 31.8924 10.9553 31.8876 10.9727 31.8829C10.9854 31.8797 10.9965 31.8765 11.0092 31.8733C11.0251 31.8702 11.0425 31.8655 11.0583 31.8623C11.071 31.8607 11.0821 31.8591 11.0933 31.8576C11.1075 31.856 11.1233 31.8528 11.1376 31.8512C11.1487 31.8512 11.1599 31.8512 11.171 31.8496C11.1804 31.8496 11.1915 31.848 11.2011 31.848C11.2042 31.848 11.2074 31.848 11.2106 31.848C11.2233 31.848 11.236 31.848 11.247 31.8512C11.2581 31.8512 11.2693 31.8528 11.2804 31.8544C11.2915 31.856 11.3025 31.8591 11.3136 31.8623C11.3232 31.8655 11.3343 31.867 11.3438 31.8702C11.3549 31.8733 11.3644 31.8781 11.3739 31.8829C11.3818 31.886 11.3914 31.8908 11.3993 31.8955C11.4088 31.9002 11.4184 31.9081 11.4262 31.9145C11.4341 31.9192 11.4421 31.9239 11.4484 31.9303C11.4564 31.9382 11.4643 31.946 11.4723 31.954C11.4786 31.9603 11.485 31.9667 11.4912 31.9745C11.4992 31.984 11.5055 31.9951 11.5119 32.0061C11.5166 32.0141 11.5214 32.0204 11.5262 32.0283C11.5325 32.041 11.5389 32.0551 11.5436 32.0694C11.5468 32.0773 11.5499 32.0836 11.5531 32.0915C11.561 32.1137 11.5658 32.1374 11.5705 32.1611V32.1643C11.5753 32.1848 11.5785 32.2038 11.5832 32.2244C11.7196 32.1706 11.8623 32.1137 12.0066 32.0551C12.151 31.9967 13.1737 31.6536 13.3244 31.5903C13.3704 31.524 13.3244 31.4987 13.299 31.4244C13.1849 31.1098 13.0628 30.7683 12.955 30.4331C12.7631 30.4789 11.8497 30.792 11.6673 30.833V30.8378L11.6657 30.8441Z" fill="black"/>
<path d="M11.5849 32.2351C11.5817 32.2146 11.5769 32.1956 11.5737 32.1751V32.1719C11.569 32.1466 11.5626 32.1229 11.5563 32.1024C11.5531 32.0945 11.5499 32.0865 11.5467 32.0802C11.542 32.066 11.5357 32.0518 11.5294 32.0391C11.5246 32.0312 11.5198 32.0233 11.5151 32.017C11.5087 32.0059 11.5024 31.9949 11.4944 31.9854C11.4881 31.9774 11.4817 31.9728 11.4755 31.9648C11.4675 31.9569 11.4596 31.9475 11.4516 31.9411C11.4453 31.9348 11.4373 31.93 11.4294 31.9252C11.4199 31.919 11.412 31.9126 11.4025 31.9063C11.3946 31.9015 11.385 31.8984 11.3771 31.8937C11.3676 31.8889 11.358 31.8842 11.347 31.881C11.3375 31.8778 11.328 31.8762 11.3168 31.8731C11.3057 31.87 11.2946 31.8668 11.2836 31.8652C11.2725 31.8636 11.2613 31.8621 11.2502 31.8621C11.2375 31.8621 11.2265 31.8605 11.2138 31.8589C11.2011 31.8589 11.1868 31.8589 11.1741 31.8589C11.1631 31.8589 11.1519 31.8589 11.1408 31.8605C11.1265 31.8605 11.1107 31.8636 11.0965 31.8668C11.0853 31.8684 11.0726 31.87 11.0615 31.8716C11.0456 31.8747 11.0298 31.8778 11.0124 31.8826C10.9997 31.8858 10.9886 31.8874 10.9759 31.8921C10.9585 31.8969 10.941 31.9031 10.9219 31.9079C10.9093 31.9111 10.8966 31.9158 10.8839 31.919C10.8649 31.9252 10.8443 31.9332 10.8237 31.9411C10.811 31.9459 10.7983 31.9506 10.7856 31.9553C10.7666 31.9632 10.7459 31.9728 10.7254 31.9822C10.7206 32.0059 10.6492 33.0494 11.1186 34.5118C11.4928 35.677 12.1129 36.235 12.1097 36.2366C12.3318 36.1955 12.4951 36.1434 12.6013 36.0484C12.6553 36.001 12.6933 35.9409 12.7171 35.8682C12.7203 35.8556 12.7235 35.8429 12.7235 35.8303C12.7235 35.8271 12.7235 35.8224 12.7235 35.8224C12.7235 35.8082 12.7235 35.7955 12.7203 35.7797V35.7734C12.7171 35.7591 12.7139 35.7433 12.7092 35.7276C12.7092 35.7244 12.7076 35.7212 12.706 35.718C12.7012 35.7007 12.6933 35.6816 12.6869 35.6611C12.6869 35.6579 12.6838 35.6533 12.6822 35.6501C12.6742 35.631 12.6663 35.6089 12.6569 35.5868C12.6569 35.5868 12.6569 35.5836 12.6553 35.5805C12.6442 35.5552 12.633 35.5283 12.6187 35.5014C12.6172 35.4967 12.614 35.4904 12.6108 35.4856C12.5966 35.454 12.5807 35.4208 12.5633 35.3845C12.5521 35.3608 12.5394 35.3355 12.5284 35.3086C12.5252 35.3006 12.5205 35.2927 12.5173 35.2849C12.124 34.0691 11.7149 32.7821 11.5849 32.2351Z" fill="white"/>
<path d="M8.89425 30.0231C9.07344 30.7551 9.22568 31.2594 9.62051 31.7084H9.61734C9.9076 31.68 10.166 31.6642 10.396 31.6515H10.3944C10.3944 31.6515 9.92497 31.5661 9.5397 29.9851C9.36519 29.2674 9.20981 28.1591 9.25897 27.5742C9.21775 27.5868 9.17651 27.5995 9.1337 27.6121C9.12418 27.6153 9.11625 27.6169 9.10674 27.62C9.06075 27.6342 9.01318 27.6469 8.9656 27.6595C8.96085 27.6595 8.95609 27.6627 8.94975 27.6643C8.90376 27.677 8.85778 27.6896 8.8102 27.7007C8.80227 27.7023 8.79593 27.7039 8.788 27.7069C8.74677 27.718 8.70395 27.7276 8.66113 27.737C8.65797 27.7513 8.54379 28.5939 8.89107 30.0215L8.89425 30.0231Z" fill="white"/>
<path d="M10.3956 34.7318C10.1704 34.0282 9.93569 32.9343 9.94363 32.3477C9.9341 32.3508 9.92457 32.3556 9.91345 32.3588C9.9071 32.3619 9.90084 32.3635 9.89449 32.3667C9.84526 32.3856 9.79612 32.4046 9.74539 32.4235C9.74063 32.4251 9.73586 32.4267 9.73268 32.4283C9.62488 32.4679 9.5123 32.5058 9.39814 32.5422C9.39338 32.5422 9.3902 32.5453 9.38544 32.5453C9.3775 32.5485 9.36956 32.55 9.36162 32.5532C9.36162 32.5675 9.30613 33.4164 9.75492 34.8156C9.98483 35.5333 10.1735 36.025 10.6001 36.4456H10.5969C10.884 36.3966 11.1409 36.3617 11.3692 36.3333H11.3676C11.3676 36.3333 10.8935 36.2827 10.3956 34.7318Z" fill="white"/>
<path d="M10.9171 27.7498C10.9076 27.6724 10.8981 27.5949 10.887 27.5143C10.8838 27.4875 10.8791 27.4621 10.8727 27.4384C10.8711 27.4305 10.8679 27.4226 10.8648 27.4163C10.86 27.4005 10.8552 27.3847 10.8489 27.372C10.8457 27.3641 10.8409 27.3563 10.8363 27.3483C10.8299 27.3356 10.8236 27.3246 10.8156 27.3135C10.8109 27.3057 10.8045 27.2993 10.7997 27.293C10.7918 27.2835 10.7839 27.274 10.7744 27.2661C10.7681 27.2597 10.7617 27.2551 10.7538 27.2487C10.7443 27.2408 10.7331 27.2345 10.7236 27.2282C10.7157 27.2234 10.7078 27.2187 10.6999 27.2155C10.6888 27.2092 10.6761 27.2044 10.6633 27.1997C10.6554 27.1966 10.646 27.1934 10.638 27.1902C10.6237 27.187 10.6094 27.1839 10.5952 27.1807C10.5857 27.1791 10.5778 27.1775 10.5682 27.176C10.5508 27.1744 10.5317 27.1729 10.5143 27.1729C10.5064 27.1729 10.4985 27.1729 10.4905 27.1729C10.4826 27.1729 10.4762 27.1729 10.4683 27.1729C10.4509 27.1729 10.4334 27.1729 10.4144 27.176C10.4049 27.176 10.3938 27.1791 10.3843 27.1791C10.3668 27.1807 10.3494 27.1839 10.332 27.187C10.3209 27.1886 10.3082 27.1918 10.297 27.1934C10.2796 27.1966 10.2606 27.2013 10.2431 27.206C10.2304 27.2092 10.2177 27.2123 10.2051 27.2155C10.1861 27.2203 10.167 27.2266 10.148 27.2329C10.1353 27.2376 10.1226 27.2408 10.1083 27.2456C10.0909 27.2519 10.0735 27.2566 10.0576 27.2629C10.0513 27.2866 9.90533 28.3222 10.2701 29.8147C10.5603 31.0035 11.1391 31.6043 11.1344 31.6059C11.4737 31.5695 11.6799 31.4936 11.7671 31.2818C11.7703 31.2722 11.7734 31.2628 11.775 31.2517C11.775 31.2485 11.775 31.2438 11.775 31.2407C11.775 31.2328 11.775 31.2248 11.775 31.2154C11.775 31.2106 11.775 31.2075 11.775 31.2027C11.775 31.1916 11.775 31.1806 11.7718 31.1695V31.1632C11.7703 31.1489 11.7671 31.1348 11.7624 31.1189C11.7624 31.1141 11.7592 31.1095 11.7592 31.1047C11.756 31.092 11.7528 31.0794 11.7481 31.0667C11.7465 31.0605 11.7449 31.0557 11.7433 31.0494C11.7385 31.0352 11.7338 31.0193 11.7274 31.0035C11.7274 30.9988 11.7242 30.9956 11.7226 30.9908C11.7147 30.9703 11.7069 30.9482 11.6989 30.9245C11.6973 30.9197 11.6957 30.915 11.6926 30.9102C11.6846 30.8897 11.6767 30.8675 11.6672 30.8454V30.8407C11.2374 29.8415 11.0424 29.1522 10.9187 27.7514L10.9171 27.7498Z" fill="white"/>
<path d="M9.54151 29.9842C9.92687 31.5667 10.3963 31.6505 10.3963 31.6505H10.3979C10.6405 31.6426 10.9006 31.6299 11.1051 31.6078C11.1146 31.6078 11.1226 31.6062 11.1321 31.6046C11.1321 31.6046 10.5564 31.0023 10.2679 29.8135C9.90473 28.321 10.049 27.2838 10.0553 27.2617C9.8 27.3565 9.25927 27.5716 9.25927 27.5716C9.21011 28.1566 9.3655 29.2648 9.53992 29.9826L9.54151 29.9842Z" fill="black"/>
<path d="M10.6705 36.6191C9.87759 36.4531 9.66983 34.8879 9.15127 34.1765C8.68664 33.5394 8.21883 32.9038 7.71931 32.2936C6.26674 30.5213 4.50493 28.9071 3.65971 26.7886C3.02382 27.1617 2.77802 27.7482 2.62579 28.2937V28.2968L2.6242 28.3V28.3032C2.5798 28.4613 2.54174 28.6242 2.5021 28.7949C2.47356 28.9166 2.44342 29.043 2.41012 29.1711C2.3451 29.4241 2.12626 29.7181 1.96769 29.919C1.9328 29.9632 1.89633 30.0075 1.85985 30.0517C1.78373 30.145 1.70445 30.2367 1.62041 30.3348C1.50464 30.4707 1.38413 30.6114 1.26836 30.7568C1.16052 30.8896 1.07489 31.0035 0.995607 31.1141C0.897288 31.2533 0.802141 31.4066 0.713338 31.5711C0.201131 32.5117 -0.252402 34.0579 0.161486 35.3179C0.375566 35.9709 0.802141 36.4626 1.39364 36.7408C1.44597 36.7661 1.49988 36.7866 1.55697 36.8073C1.576 36.8135 1.59503 36.8199 1.61406 36.8262C1.64419 36.8356 1.68225 36.8467 1.72507 36.8578C1.73299 36.8594 1.74092 36.8609 1.74726 36.8625C1.59186 37.1898 1.46024 37.555 1.36351 37.9392C1.34448 38.0167 1.32545 38.0957 1.30801 38.1748V38.181L1.30642 38.1842C1.28422 38.2933 1.2636 38.4056 1.24616 38.5209C1.21603 38.7139 1.197 38.9067 1.18907 39.0949C1.18432 39.1866 1.18273 39.2657 1.18273 39.3399C1.18273 39.5043 1.19224 39.6703 1.21127 39.8348C1.21761 39.8901 1.22396 39.9391 1.23189 39.985C1.26677 40.211 1.32228 40.4261 1.39522 40.6252C1.40791 40.6569 1.42376 40.6995 1.44121 40.7439C1.70286 41.3652 2.15798 41.8157 2.75741 42.0481C2.76692 42.0513 2.77644 42.056 2.78753 42.0592C2.83035 42.075 2.87 42.0877 2.91122 42.1003C2.93343 42.1066 2.95405 42.1114 2.97466 42.1161H2.97941C3.00003 42.1224 3.03016 42.1303 3.06663 42.1367C3.09042 42.1414 3.11262 42.1445 3.13641 42.1477H3.14116C3.15861 42.1509 3.18715 42.154 3.22204 42.1572C3.24583 42.1588 3.26962 42.1604 3.2934 42.162H3.29974C3.32353 42.162 3.34731 42.1651 3.37111 42.1651H3.37745C3.39647 42.1651 3.41392 42.1651 3.43295 42.1636C3.45833 42.1636 3.48845 42.1604 3.52334 42.1572C3.54237 42.1556 3.5614 42.1525 3.57884 42.1509H3.58359C3.61214 42.1461 3.63911 42.1414 3.66606 42.1367C3.68668 42.1335 3.7057 42.1287 3.72473 42.124C3.75169 42.1176 3.77865 42.1114 3.80402 42.1035C3.82146 42.0987 3.84049 42.0923 3.85952 42.0877C3.8849 42.0797 3.91027 42.0702 3.93405 42.0624H3.93723C3.95308 42.056 3.96895 42.0497 3.98321 42.0433C4.00859 42.0323 4.03396 42.0212 4.05774 42.0102C4.07202 42.0039 4.08629 41.9975 4.10056 41.9896C4.12593 41.977 4.1513 41.9627 4.17985 41.9469C4.19095 41.9406 4.20046 41.9358 4.20998 41.9296C4.2417 41.9105 4.27499 41.89 4.30989 41.8679C4.32099 41.8599 4.33208 41.8521 4.34318 41.8442C4.36539 41.8284 4.38601 41.8141 4.40503 41.7999C4.41455 41.792 4.42564 41.7841 4.43674 41.7746L4.44151 41.7715C4.45895 41.7588 4.4748 41.7446 4.49225 41.7303C4.50493 41.7193 4.51762 41.7098 4.52873 41.6988C4.54458 41.6845 4.56044 41.6719 4.5763 41.6576C4.58739 41.6466 4.59849 41.6371 4.6096 41.626C4.62387 41.6118 4.63814 41.5991 4.65242 41.5849C4.66351 41.5738 4.67302 41.5644 4.68413 41.5533C4.69999 41.5375 4.71267 41.5232 4.72695 41.509L4.73011 41.5058C4.73805 41.4963 4.74756 41.4885 4.75549 41.479C4.76976 41.4632 4.78561 41.4457 4.79989 41.4284C4.80623 41.422 4.81258 41.4142 4.81733 41.4078C4.83795 41.3841 4.85698 41.3604 4.87601 41.3367C4.88235 41.3288 4.88711 41.3224 4.89345 41.3146L4.89663 41.3114C4.9093 41.2956 4.92041 41.2814 4.9331 41.2655C4.93944 41.2561 4.94736 41.2481 4.95371 41.2386L4.95688 41.234C4.96482 41.2229 4.97591 41.2087 4.98542 41.1944L4.9997 41.1739L5.00445 41.1659V41.1627L5.00763 41.1596L5.0108 41.1565L5.033 41.1264L5.05361 41.0964V41.0932L5.0774 41.06L5.09643 41.0315C5.10436 41.0189 5.11388 41.0062 5.1218 40.9952L5.13766 40.9715L5.16145 40.9351L5.1662 40.9288L5.1773 40.9114L5.18365 40.9019L5.19951 40.8782L5.24708 40.8039L5.27086 40.7676L5.27563 40.7596L5.29307 40.7328L5.29624 40.7264L5.29941 40.7217L5.31051 40.7043L5.31369 40.7011L5.31527 40.6979C5.76563 40.2237 6.07644 40.0229 6.46813 39.7683C6.71234 39.6102 6.98986 39.4316 7.32128 39.1723C7.55598 38.9889 7.78592 38.7756 8.03012 38.5494L8.06977 38.5131C8.14905 38.4404 8.22835 38.366 8.30922 38.2917C8.39644 38.2127 8.47414 38.1447 8.5455 38.083C8.7136 37.9408 8.85948 37.8269 8.99269 37.7384C9.15285 37.6325 9.29716 37.5597 9.42245 37.5218C9.62386 37.4601 9.8236 37.4064 10.0314 37.3558C10.2724 37.3226 10.6498 37.2325 10.7576 37.2072C10.9781 37.1693 11.1795 37.1424 11.3476 37.1202C11.1224 36.9037 11.0606 36.6981 10.6641 36.6159L10.6705 36.6191Z" fill="black"/>
<path d="M10.7241 31.9775C10.4751 32.0898 9.95338 32.3412 9.95338 32.3443C9.94544 32.9324 10.1801 34.0265 10.4054 34.73C10.9033 36.281 11.3774 36.3315 11.3774 36.3315H11.379C11.6216 36.3062 11.8785 36.2762 12.0815 36.2382C12.091 36.2366 12.1006 36.235 12.1085 36.2335C12.1085 36.2335 11.4916 35.6738 11.1173 34.5086C10.648 33.0447 10.7193 32.0012 10.7241 31.9791V31.9775Z" fill="black"/>
<path d="M9.03389 34.9987C8.47094 33.2454 8.62317 32.7521 8.62476 32.7458C8.51217 32.7695 8.39957 32.7885 8.29174 32.8043C8.28698 32.8043 8.28382 32.8043 8.27905 32.8058C8.22514 32.8138 8.17123 32.8201 8.11889 32.8264C8.11255 32.8264 8.10462 32.8265 8.09827 32.828C8.04754 32.8327 7.99837 32.8375 7.94921 32.8407C7.94129 32.8407 7.93336 32.8407 7.92543 32.8407C7.87785 32.8438 7.83029 32.8454 7.78429 32.8454C7.77477 32.8454 7.76685 32.8454 7.75733 32.8454C7.73196 32.8454 7.70817 32.8454 7.68439 32.8438C7.67487 32.8438 7.66536 32.8438 7.65585 32.8438C7.62413 32.8422 7.59242 32.8407 7.56229 32.8375C7.31966 32.8122 7.09289 32.7411 6.87564 32.6604C7.30221 32.3363 7.74941 32.0455 8.1966 31.9443C8.44557 31.8873 8.67867 31.843 8.90069 31.8067H8.8991C8.67233 31.6644 8.43605 31.3023 8.15695 30.1562C7.72086 28.3665 7.90798 27.8859 7.91116 27.8796C7.86358 27.8859 7.81601 27.8922 7.77002 27.897C7.76526 27.897 7.7621 27.897 7.75733 27.897C7.70659 27.9017 7.65743 27.9064 7.60669 27.9112C7.59717 27.9112 7.58765 27.9112 7.57814 27.9128C7.52898 27.9159 7.4814 27.9191 7.43383 27.9207C7.4259 27.9207 7.41798 27.9207 7.41005 27.9207C7.36248 27.9223 7.3149 27.9239 7.26892 27.9239H7.26416C7.22927 27.9239 7.19439 27.9239 7.16108 27.9223C7.15156 27.9223 7.14205 27.9223 7.13254 27.9223C7.10875 27.9223 7.08337 27.9207 7.05959 27.9175C7.04849 27.9175 7.03739 27.9175 7.02787 27.9143C7.00409 27.9128 6.98189 27.9096 6.95969 27.908C6.95017 27.908 6.94066 27.9064 6.93273 27.9049C6.9026 27.9017 6.87247 27.897 6.84393 27.8922H6.83917C6.79318 27.8843 6.74719 27.8733 6.70279 27.8622C6.68693 27.8574 6.67108 27.8527 6.65363 27.848C6.6235 27.84 6.59496 27.8321 6.56483 27.8227C6.5458 27.8163 6.52835 27.81 6.50933 27.8036C6.48237 27.7942 6.457 27.7863 6.43162 27.7753C6.41259 27.7673 6.39356 27.761 6.37453 27.7531C6.34916 27.7436 6.32537 27.7341 6.30159 27.7231C6.28256 27.7152 6.26353 27.7072 6.2445 27.6978C6.22072 27.6867 6.19693 27.6772 6.17315 27.6662C6.15412 27.6566 6.1335 27.6487 6.11447 27.6393C6.09068 27.6282 6.0669 27.6172 6.0431 27.6061C6.02091 27.595 5.99712 27.5839 5.97492 27.5728C5.94479 27.5586 5.91307 27.5429 5.88294 27.5286C5.8544 27.5144 5.82427 27.5017 5.79572 27.4875C5.78146 27.4812 5.76718 27.4732 5.75291 27.4669C5.71961 27.4511 5.68631 27.4369 5.653 27.4227C5.64507 27.4195 5.63715 27.4147 5.62922 27.4116C5.58799 27.3942 5.54835 27.3768 5.50712 27.3611C5.4976 27.3579 5.48967 27.3547 5.48016 27.3515C5.44844 27.3404 5.41672 27.3278 5.38501 27.3183C5.37073 27.3136 5.35647 27.3104 5.34219 27.3057C5.31523 27.2978 5.28986 27.2898 5.26291 27.2836C5.24704 27.2788 5.2296 27.2757 5.21375 27.2725C5.18837 27.2677 5.163 27.2614 5.13763 27.2583C5.12019 27.2551 5.10274 27.2535 5.08529 27.2504C5.05992 27.2472 5.03614 27.244 5.01076 27.2424C4.99332 27.2424 4.97429 27.2408 4.95526 27.2393C4.92831 27.2393 4.89976 27.2393 4.87122 27.2393C4.85853 27.2393 4.84585 27.2393 4.83316 27.2408C4.79192 27.244 4.7507 27.2488 4.70788 27.2551C4.56992 27.2804 4.44623 27.312 4.33681 27.3515C3.75483 27.5586 3.54709 27.9618 3.39327 28.5135C3.39327 28.5167 3.39168 28.5199 3.3901 28.5231C3.32033 28.7776 3.26006 29.0637 3.18077 29.3752C3.0888 29.7372 2.86045 30.0803 2.59246 30.4186C2.5544 30.4677 2.51475 30.5151 2.4751 30.5641C2.28322 30.7949 2.07866 31.0257 1.88995 31.2613C1.80591 31.3656 1.72344 31.4715 1.64732 31.5791C1.56645 31.6944 1.48716 31.8209 1.41263 31.9585C0.708546 33.2501 0.367603 35.3939 1.73454 36.0358C1.76468 36.05 1.79481 36.0627 1.82494 36.0737C1.83445 36.0769 1.84397 36.0801 1.85348 36.0832C1.87409 36.0895 1.89471 36.0958 1.91374 36.1006C1.92484 36.1038 1.93594 36.1054 1.94704 36.107C1.96607 36.1101 1.98351 36.1133 2.00096 36.1164C2.01206 36.1164 2.02316 36.1196 2.03426 36.1196C2.0517 36.1196 2.06915 36.1227 2.08659 36.1227C2.09928 36.1227 2.11037 36.1227 2.12306 36.1227C2.13257 36.1227 2.14209 36.1227 2.1516 36.1227C2.16588 36.1227 2.18174 36.1211 2.196 36.1196C2.20552 36.1196 2.21503 36.118 2.22297 36.1164C2.23882 36.1148 2.25309 36.1117 2.26896 36.1085C2.27688 36.1069 2.28481 36.1054 2.29274 36.1038C2.31177 36.099 2.3308 36.0943 2.34983 36.088C2.353 36.088 2.35617 36.0864 2.35934 36.0848C2.38155 36.0785 2.40374 36.069 2.42594 36.0611C2.43228 36.058 2.44022 36.0548 2.44656 36.0516C2.46083 36.0453 2.47669 36.0389 2.49096 36.0327C2.49889 36.0295 2.50682 36.0247 2.51475 36.02C2.52743 36.0136 2.54171 36.0058 2.5544 35.9994C2.56232 35.9947 2.57025 35.9899 2.57977 35.9852C2.59246 35.9773 2.60514 35.9694 2.61783 35.9614C2.62575 35.9568 2.63368 35.952 2.64161 35.9473C2.6543 35.9377 2.66857 35.9299 2.68125 35.9204C2.6876 35.9156 2.69394 35.9109 2.70028 35.9062C2.71773 35.8935 2.73517 35.8809 2.75103 35.8666C2.75103 35.8666 2.75578 35.8634 2.75737 35.8619C2.7764 35.8461 2.79543 35.8318 2.81287 35.816C2.81922 35.8113 2.82397 35.8065 2.83031 35.8003C2.843 35.7892 2.85569 35.7781 2.8668 35.767C2.87314 35.7607 2.87947 35.7543 2.8874 35.7481C2.8985 35.737 2.90961 35.7275 2.91912 35.7164C2.92546 35.7101 2.9334 35.7022 2.93974 35.6959C2.95084 35.6848 2.96036 35.6753 2.97146 35.6643C2.9778 35.6579 2.98414 35.6516 2.99049 35.6437C3.00158 35.6326 3.01109 35.62 3.0222 35.6089C3.02696 35.6026 3.0333 35.5978 3.03806 35.5916C3.05074 35.5773 3.06502 35.5615 3.0777 35.5472C3.07928 35.5442 3.08246 35.5426 3.08405 35.5394C3.09831 35.5219 3.11259 35.5062 3.12686 35.4888C3.1332 35.4825 3.13796 35.4745 3.1443 35.4682C3.15223 35.4572 3.16174 35.4476 3.16968 35.4366C3.17602 35.4287 3.18077 35.4224 3.18712 35.4145C3.19505 35.405 3.20139 35.3955 3.20932 35.386C3.21567 35.3781 3.22201 35.3702 3.22677 35.3623C3.23311 35.3544 3.23945 35.3449 3.2458 35.337C3.25214 35.3291 3.25848 35.3212 3.26483 35.3132C3.26958 35.307 3.27434 35.2991 3.28068 35.2927C3.32191 35.2374 3.35839 35.1868 3.39168 35.1441C3.39327 35.141 3.39486 35.1394 3.39803 35.1362C3.40596 35.1268 3.4123 35.1172 3.41864 35.1093C3.42023 35.1061 3.4234 35.1031 3.42499 35.0999C3.43133 35.0919 3.43767 35.084 3.44243 35.0778C3.44402 35.0746 3.44718 35.073 3.44877 35.0698C3.45511 35.0619 3.45987 35.0556 3.46621 35.0493C3.46621 35.0493 3.46939 35.0461 3.47097 35.0445C3.47731 35.0366 3.48366 35.0303 3.49 35.0256C3.49634 35.0208 3.50111 35.0161 3.50745 35.0097C3.6914 34.8422 3.85632 34.7062 4.01173 34.5908C3.86424 35.3718 3.11259 36.1054 2.64161 36.8832C2.43387 37.2263 2.25468 37.6689 2.13416 38.1432C2.11672 38.2112 2.10086 38.2792 2.08659 38.3487V38.3519C2.06597 38.4499 2.04694 38.5511 2.03267 38.6508C2.0073 38.8151 1.99144 38.9796 1.98351 39.1439C1.98034 39.2136 1.97875 39.2815 1.97875 39.3495C1.97875 39.487 1.98669 39.623 2.00254 39.7558C2.0073 39.7969 2.01206 39.8365 2.0184 39.8759C2.04535 40.0467 2.08659 40.2111 2.14368 40.3644C2.15478 40.3929 2.16588 40.4214 2.17697 40.4498C2.34349 40.8451 2.62258 41.1597 3.05074 41.3241C3.05392 41.3241 3.0555 41.3241 3.05867 41.3273C3.08563 41.3368 3.111 41.3462 3.13637 41.3526C3.14748 41.3557 3.15699 41.3573 3.16809 41.3605C3.18553 41.3653 3.20298 41.37 3.21883 41.3731C3.23152 41.3747 3.24262 41.3763 3.25372 41.3779C3.26958 41.3794 3.28386 41.3826 3.29812 41.3842C3.31081 41.3842 3.32192 41.3842 3.33459 41.3858C3.34887 41.3858 3.36314 41.3874 3.37742 41.3858C3.38693 41.3858 3.39486 41.3858 3.40437 41.3858C3.42023 41.3858 3.43608 41.3858 3.45036 41.3826C3.45987 41.3826 3.46939 41.3794 3.48049 41.3794C3.49476 41.3779 3.50903 41.3747 3.5233 41.3731C3.53282 41.3715 3.54392 41.3684 3.55343 41.3668C3.56771 41.3637 3.58039 41.3605 3.59308 41.3573C3.60259 41.3542 3.61211 41.351 3.62162 41.3494C3.63431 41.3447 3.64858 41.34 3.66127 41.3352C3.67078 41.332 3.6803 41.3289 3.68823 41.3241C3.70249 41.3178 3.71518 41.3131 3.72946 41.3067C3.73739 41.3036 3.74532 41.2988 3.75324 41.2956C3.77068 41.2878 3.78654 41.2783 3.80399 41.2688C3.80874 41.2672 3.81192 41.2641 3.81667 41.2625C3.83729 41.2514 3.85632 41.2388 3.87693 41.2245C3.88327 41.2197 3.8912 41.2151 3.89755 41.2103C3.91023 41.2008 3.92292 41.1929 3.93561 41.1834C3.94354 41.1771 3.95146 41.1707 3.95939 41.1644C3.97049 41.155 3.9816 41.147 3.9927 41.1376C4.00062 41.1313 4.00855 41.1233 4.01648 41.117C4.02758 41.1076 4.0371 41.098 4.0482 41.0901C4.05613 41.0823 4.06405 41.0759 4.07198 41.068C4.08149 41.0586 4.0926 41.049 4.10211 41.0395C4.11004 41.0317 4.11639 41.0253 4.12432 41.0174C4.13383 41.0064 4.14493 40.9969 4.15445 40.9858C4.16079 40.9779 4.16871 40.9716 4.17506 40.9636C4.18616 40.951 4.19726 40.9384 4.20836 40.9258C4.21311 40.921 4.21788 40.9146 4.22263 40.9099C4.23849 40.8925 4.25276 40.8736 4.26863 40.8561C4.27338 40.8499 4.27972 40.8435 4.28448 40.8372C4.29399 40.8246 4.30351 40.8135 4.31302 40.8009C4.31936 40.7929 4.32571 40.785 4.33047 40.7771C4.33839 40.7661 4.34632 40.755 4.35426 40.7455C4.3606 40.7376 4.36694 40.7281 4.37328 40.7202C4.38121 40.7091 4.38755 40.6996 4.39548 40.6902C4.40183 40.6822 4.40817 40.6727 4.41292 40.6649C4.42086 40.6554 4.4272 40.6444 4.43354 40.6348C4.43989 40.6269 4.44464 40.6191 4.45098 40.6095C4.45733 40.6 4.46526 40.589 4.4716 40.5795C4.47636 40.5716 4.4827 40.5637 4.48745 40.5558C4.4938 40.5447 4.50014 40.5352 4.50807 40.5257C4.51283 40.5178 4.51759 40.5115 4.52235 40.5036C4.52869 40.4925 4.53503 40.4831 4.54296 40.472C4.56833 40.4325 4.59212 40.3961 4.61432 40.3614C4.61591 40.3582 4.61749 40.3566 4.61908 40.3534C4.62542 40.3423 4.63335 40.3329 4.63969 40.3218C4.64286 40.317 4.64604 40.3123 4.64763 40.3091C4.65238 40.3013 4.65872 40.2933 4.66348 40.2854C4.66666 40.2807 4.66982 40.2776 4.67141 40.2728C4.67617 40.2649 4.68092 40.2585 4.68569 40.2523C4.68885 40.2491 4.69044 40.2443 4.69361 40.2411C4.69837 40.2348 4.70313 40.2286 4.70788 40.2222C4.70947 40.219 4.71105 40.2174 4.71423 40.2143C4.72057 40.2064 4.72691 40.2001 4.73167 40.1937C5.55786 39.3179 6.0114 39.2199 6.84709 38.5685C7.06593 38.3977 7.29905 38.1796 7.54167 37.9535C7.62254 37.8776 7.70501 37.8017 7.78905 37.7258C7.8731 37.6499 7.95714 37.5756 8.04278 37.5014C8.21404 37.3559 8.38848 37.2168 8.56767 37.0982C8.77541 36.9607 8.98948 36.8484 9.20515 36.7836C9.44938 36.7093 9.67929 36.6492 9.89818 36.597H9.89659C9.66024 36.4722 9.39866 36.1259 9.03865 35.0034L9.03389 34.9987Z" fill="white"/>
<path d="M8.14728 30.1539C8.42637 31.3001 8.66265 31.6622 8.88941 31.8044H8.891C8.91796 31.8123 9.37153 31.7507 9.61256 31.7096H9.61573C9.21926 31.259 9.06703 30.7563 8.88941 30.0243C8.54213 28.5966 8.65631 27.754 8.65948 27.7397C8.41844 27.7983 8.08543 27.8504 7.90148 27.8805C7.89831 27.8867 7.71277 28.3674 8.14728 30.1571V30.1539Z" fill="black"/>
<path d="M9.75458 34.8142C9.30583 33.415 9.35969 32.566 9.36128 32.5518C9.12505 32.6276 8.79679 32.7036 8.61443 32.7463C8.61125 32.7526 8.4606 33.2459 9.02356 34.9991C9.38352 36.1217 9.64519 36.4678 9.88145 36.5927H9.88304C9.91004 36.5975 10.3587 36.5058 10.5967 36.4473H10.5999C10.1732 36.0267 9.98449 35.5351 9.75458 34.8173V34.8142Z" fill="black"/>
<path d="M6.56716 2.77364C5.64741 2.61238 4.93381 1.88514 4.79267 0.963433C4.77682 0.859089 4.6896 0.783203 4.58494 0.783203C4.48027 0.783203 4.39305 0.859089 4.3772 0.963433C4.23607 1.88356 3.52246 2.61081 2.60272 2.77364C2.49806 2.79262 2.42194 2.88273 2.42194 2.98866C2.42194 3.09458 2.49806 3.18469 2.60272 3.20367C3.52246 3.36492 4.23607 4.09217 4.3772 5.01388C4.39305 5.11821 4.48027 5.1941 4.58494 5.1941C4.6896 5.1941 4.77682 5.11821 4.79267 5.01388C4.93381 4.09375 5.64741 3.36651 6.56716 3.20367C6.67183 3.18469 6.74794 3.09458 6.74794 2.98866C6.74794 2.88273 6.67183 2.79262 6.56716 2.77364Z" fill="black"/>
<path d="M20.8355 16.8438C20.7967 16.8658 20.7813 16.8705 20.7813 16.8705L20.8324 16.8453H20.8355V16.8438Z" fill="black"/>
<path d="M33.9484 25.5223C33.8627 25.5681 33.7723 25.6092 33.6756 25.6472C31.6632 26.4392 29.8047 24.8377 28.9309 23.0132C28.0889 21.2568 28.0128 18.9296 29.8381 17.9652L29.8872 17.9399C31.7346 17.0087 33.6058 18.555 34.5621 20.3857C35.5405 22.2608 35.6451 24.6274 33.9484 25.5223Z" fill="black"/>
<path d="M37.257 20.9944C35.9883 21.4608 35.2367 20.1296 34.1885 17.8546C33.4289 16.2041 33.0499 14.1109 34.2313 13.6097L34.2852 13.5892C35.511 13.137 36.9667 14.6436 37.7263 16.555C38.3939 18.2324 38.5192 20.3683 37.398 20.9327C37.3505 20.9564 37.3029 20.977 37.257 20.9944Z" fill="black"/>
</g>
<defs>
<clipPath id="clip0_6_1052">
<rect width="142" height="42" fill="white"/>
</clipPath>
</defs>
</svg>
