<svg width="97" height="39" viewBox="0 0 97 39" fill="none" xmlns="http://www.w3.org/2000/svg">
<path d="M40.3866 24.8416C41.5272 25.3746 42.7583 25.2648 43.4096 26.3297C44.0726 25.9971 44.7281 25.6155 45.4231 25.3309C46.6137 24.8438 47.8683 24.7329 49.1368 24.9141C50.3327 25.0847 51.2452 25.7082 51.8581 26.7571C51.9199 26.8626 51.986 26.9649 52.0393 27.0502C52.7438 26.578 53.4005 26.0653 54.1232 25.6699C55.4694 24.9322 56.9308 24.6924 58.4529 24.912C60.3353 25.1849 61.4322 26.577 61.1764 28.6235C60.9653 30.3055 60.5379 31.9631 60.1712 33.6238C59.8578 35.0436 59.4837 36.4495 59.1639 37.8683C59.0808 38.2371 58.955 38.4066 58.5435 38.3948C57.5533 38.365 56.562 38.3852 55.5142 38.3852C55.754 37.3225 55.9811 36.3056 56.2134 35.2909C56.5897 33.6483 56.9873 32.011 57.339 30.3631C57.452 29.8323 57.5171 29.2716 57.484 28.7322C57.4392 27.9754 57.0011 27.6002 56.2475 27.516C54.4856 27.3188 52.6394 28.4807 52.0105 30.3354C51.5617 31.6571 51.2814 33.0364 50.9488 34.3966C50.6664 35.551 50.3999 36.7096 50.1643 37.8736C50.0801 38.2882 49.9 38.4098 49.4885 38.397C48.4994 38.3671 47.508 38.3874 46.4474 38.3874C46.6564 37.4472 46.8493 36.57 47.0465 35.6927C47.4547 33.8753 47.8673 32.059 48.2734 30.2416C48.3352 29.9655 48.3874 29.6852 48.4173 29.4038C48.5612 28.0554 47.9184 27.3998 46.5562 27.4936C44.7772 27.6162 43.2827 28.7685 42.7434 30.6413C42.1987 32.5301 41.8043 34.4626 41.3459 36.377C41.1893 37.0315 41.04 37.6871 40.8823 38.365C39.7193 38.365 38.5745 38.365 37.3242 38.365C38.3443 33.8583 39.3527 29.407 40.3866 24.8416Z" fill="black"/>
<path d="M15.8963 31.5117C14.4275 31.5117 13.0354 31.5117 11.5463 31.5117C11.767 30.5844 11.962 29.7295 12.1837 28.881C12.2072 28.7904 12.3831 28.6806 12.4886 28.6806C15.0585 28.67 17.6295 28.6721 20.2485 28.6721C20.2389 28.8299 20.2453 28.9301 20.224 29.0249C19.6388 31.6013 19.0579 34.1797 18.4535 36.7518C18.4045 36.9597 18.2382 37.2347 18.058 37.3039C14.5533 38.6619 10.9633 39.3473 7.2208 38.4924C4.19465 37.8007 2.29198 35.9055 1.86881 33.1916C1.64604 31.7654 1.78993 30.3499 2.24295 28.9866C3.7395 24.4841 6.89783 21.7937 11.4749 20.7758C14.1482 20.181 16.8301 20.2812 19.4704 21.0913C19.8978 21.2224 20.0407 21.4047 19.9021 21.8502C19.7347 22.3906 19.6431 22.9545 19.497 23.5034C19.384 23.9288 19.1527 24.1089 18.6699 23.9437C16.6372 23.2455 14.5501 22.9993 12.43 23.4224C8.99769 24.1068 7.00975 26.3186 6.10798 29.5963C5.91185 30.3072 5.7978 31.0598 5.77541 31.7963C5.71679 33.6819 6.72195 35.0815 8.51483 35.6486C10.5902 36.3052 12.657 36.0067 14.71 35.4929C14.84 35.4599 15.0116 35.3192 15.0415 35.1977C15.3335 33.9943 15.6032 32.7866 15.8963 31.5117Z" fill="black"/>
<path d="M30.5869 38.3973C30.6797 37.9208 30.7575 37.5179 30.8204 37.1971C29.9229 37.6138 29.0648 38.1244 28.1364 38.4186C26.8615 38.8226 25.5366 38.7736 24.2628 38.3184C22.132 37.5573 21.0117 35.4905 21.371 33.0464C22.0926 28.1389 25.8606 24.8398 30.8385 24.714C32.7134 24.6671 34.5106 24.9517 36.2416 25.6766C36.7298 25.8812 36.926 26.0997 36.7831 26.6977C35.9048 30.3709 35.0713 34.0547 34.2473 37.7407C34.1332 38.2534 33.9179 38.4335 33.3914 38.409C32.4757 38.3664 31.5569 38.3973 30.5869 38.3973ZM27.5469 36.0704C27.564 36.1205 27.58 36.1706 27.597 36.2207C28.4444 35.9393 29.3163 35.7133 30.1328 35.3605C30.8385 35.0567 31.3491 34.4683 31.5356 33.7104C32.0014 31.8205 32.416 29.9179 32.8595 28.0216C32.9234 27.7487 32.8701 27.6006 32.577 27.5174C31.3363 27.1635 30.0977 27.106 28.8612 27.5164C26.4511 28.3158 24.6103 31.3281 24.9812 33.8479C25.1987 35.3146 26.0738 36.0736 27.5469 36.0704Z" fill="black"/>
<path d="M75.6386 34.4903C75.5043 35.2844 75.4371 36.0082 75.2388 36.6925C75.1589 36.9675 74.8274 37.2319 74.546 37.3768C71.7565 38.8126 68.8295 39.1484 65.831 38.2061C63.8207 37.574 62.7857 36.0039 62.7622 33.8902C62.71 29.0392 66.6166 24.9759 71.4676 24.8768C72.2756 24.8608 73.1081 24.9162 73.8915 25.1017C75.7899 25.5515 76.9155 26.853 76.9859 28.7993C77.0275 29.9559 76.8068 31.1241 76.6853 32.2849C76.648 32.6431 76.3591 32.7091 76.0511 32.7091C75.306 32.7091 74.5599 32.7145 73.8148 32.7123C71.4719 32.706 69.129 32.707 66.7861 32.6793C66.3683 32.674 66.2307 32.7944 66.2243 33.2112C66.2009 34.7802 67.14 35.8035 68.8444 35.9826C70.8888 36.1979 72.8352 35.8184 74.691 34.9497C74.9766 34.8165 75.258 34.6747 75.6386 34.4903ZM66.9215 30.3364C66.9833 30.3726 67.0121 30.4046 67.0408 30.4046C69.2047 30.4132 71.3685 30.4238 73.5323 30.4089C73.6464 30.4078 73.8393 30.1936 73.8606 30.0582C74.1324 28.3037 73.301 27.3454 71.5177 27.3284C71.3226 27.3262 71.1276 27.3273 70.9325 27.3369C69.064 27.4232 67.3777 28.6746 66.9215 30.3364Z" fill="black"/>
<path d="M24.1751 13.5412C24.061 14.0945 24.0387 14.685 23.8073 15.1796C23.6197 15.5793 23.2381 15.9598 22.847 16.1794C20.8441 17.305 18.6547 17.5395 16.4066 17.3626C15.2288 17.2698 14.0797 17.0161 13.1044 16.302C11.464 15.1007 11.0824 13.4027 11.383 11.5181C11.9543 7.94302 14.7289 5.23877 18.321 4.79642C19.4349 4.65891 20.5925 4.65358 21.7075 4.78362C24.5364 5.11299 25.6258 7.22459 25.4275 9.73696C25.3913 10.1953 25.2655 10.6451 25.224 11.1035C25.1771 11.6236 24.9084 11.7452 24.4181 11.742C21.4719 11.7206 18.5257 11.7302 15.5784 11.7292C14.6287 11.7281 14.5765 11.7899 14.7502 12.7226C14.9954 14.0358 16.0656 14.8161 17.6996 14.9003C19.8197 15.009 21.8269 14.5912 23.7306 13.6596C23.8265 13.6127 23.9203 13.5636 24.0184 13.5231C24.0461 13.5093 24.0855 13.5284 24.1751 13.5412ZM15.3514 9.60692C17.6922 9.60692 19.9775 9.60692 22.2543 9.60692C22.4867 7.92703 21.8215 6.95597 20.228 6.85045C19.3688 6.79395 18.4532 6.92186 17.6271 7.17662C16.4749 7.53051 15.7245 8.39177 15.3514 9.60692Z" fill="black"/>
<path d="M67.8952 13.5403C67.7503 14.1937 67.6554 14.7885 67.4763 15.3577C67.4049 15.5826 67.1768 15.7926 66.9689 15.9354C65.8785 16.6837 64.6378 17.0354 63.348 17.2433C61.9186 17.4735 60.486 17.5268 59.0619 17.2294C56.1051 16.6112 54.6501 14.4516 55.1703 11.4809C55.7896 7.94099 58.4981 5.32734 62.1126 4.79119C63.332 4.61105 64.5525 4.57907 65.7623 4.86047C67.7727 5.32948 68.9611 6.71518 69.0166 8.7788C69.039 9.60169 68.8546 10.4288 68.7704 11.2549C68.7341 11.6152 68.5337 11.6973 68.1937 11.6973C65.1771 11.6952 62.1595 11.7112 59.1429 11.7197C58.4085 11.7218 58.3584 11.774 58.4469 12.5138C58.5929 13.7503 59.2879 14.5081 60.5777 14.7608C62.2512 15.0891 63.9023 14.8993 65.5182 14.4133C66.2921 14.1798 67.0404 13.8569 67.8952 13.5403ZM65.8401 9.60596C66.081 7.86744 65.3914 6.92943 63.7392 6.85268C62.9803 6.8175 62.1798 6.95181 61.4507 7.17992C60.2739 7.54766 59.5352 8.42811 59.0651 9.60702C61.3643 9.60596 63.5878 9.60596 65.8401 9.60596Z" fill="black"/>
<path d="M89.4155 28.0737C87.9659 27.4193 86.5727 27.0281 85.0868 27.1304C84.6306 27.1613 84.1712 27.2381 83.7288 27.3521C83.4634 27.4214 83.1991 27.5696 82.9827 27.7422C82.2973 28.2901 82.3805 29.1386 83.1884 29.4754C84.0039 29.8155 84.8694 30.034 85.6976 30.3463C86.5567 30.6703 87.4329 30.9784 88.2356 31.4143C89.2205 31.9494 89.5797 32.8885 89.4902 33.9832C89.3367 35.8592 88.2622 37.1234 86.6175 37.8301C83.8941 39.0005 81.0768 39.0804 78.25 38.1712C77.4687 37.9197 77.4303 37.8322 77.5252 37.0072C77.5987 36.3634 77.7309 35.7271 77.8513 35.0022C78.1658 35.1355 78.3768 35.2101 78.574 35.3103C80.1857 36.1257 81.8805 36.5126 83.6713 36.1566C84.2042 36.0511 84.7607 35.8038 85.186 35.468C85.8127 34.9724 85.7285 34.206 85.0527 33.7796C84.669 33.5376 84.2234 33.382 83.7896 33.236C82.9656 32.9599 82.131 32.719 81.2996 32.4632C81.2484 32.4472 81.1973 32.4323 81.1472 32.4152C78.3811 31.4474 77.8247 28.805 79.9565 26.7595C81.0342 25.7266 82.3517 25.2075 83.8003 24.9687C85.7733 24.6447 87.7239 24.7193 89.6383 25.3279C90.3152 25.5432 90.3162 25.5678 90.0871 26.2169C89.876 26.8117 89.6575 27.4043 89.4155 28.0737Z" fill="black"/>
<path d="M29.5012 17.0973C28.35 17.0973 27.2542 17.0973 26.0508 17.0973C26.9494 13.0372 27.8383 9.01973 28.7497 4.89887C29.8231 5.35615 31.0627 5.25702 31.6522 6.51907C31.9528 6.33254 32.2544 6.15666 32.5454 5.96373C34.0505 4.96389 35.7144 4.6665 37.4785 4.89034C39.2703 5.11845 40.4876 6.38263 40.4599 8.19363C40.4397 9.49299 40.1956 10.7966 39.9749 12.0842C39.7148 13.6032 39.3599 15.1061 39.0732 16.6208C38.9996 17.0099 38.8429 17.1357 38.4443 17.1229C37.4529 17.092 36.4606 17.1122 35.4138 17.1122C35.7208 15.6743 36.031 14.28 36.3124 12.8805C36.5288 11.8039 36.7942 10.7273 36.8869 9.63796C37.0276 7.99111 36.2389 7.27481 34.592 7.38993C32.8226 7.51358 31.4305 8.6232 31.0063 10.3702C30.5085 12.4189 30.0874 14.4868 29.6323 16.5462C29.5939 16.7199 29.5502 16.8916 29.5012 17.0973Z" fill="black"/>
<path d="M69.332 17.1166C70.2349 13.065 71.1228 9.0806 72.0288 5.0141C72.9455 5.41702 73.7918 5.76771 74.6158 6.1621C74.8929 6.29534 75.072 6.3028 75.3289 6.11413C77.1378 4.786 79.1854 4.43424 81.3439 4.83716C83.3414 5.21023 84.4798 7.02763 84.1036 9.25647C83.7134 11.5631 83.2061 13.8495 82.7488 16.1434C82.687 16.4525 82.6187 16.7606 82.5484 17.0921C81.3865 17.0921 80.2567 17.0921 79.0554 17.0921C79.1428 16.654 79.2217 16.2297 79.3133 15.8087C79.6864 14.0947 80.0776 12.385 80.4304 10.6678C80.5402 10.1348 80.6148 9.57838 80.5935 9.03689C80.5519 7.98696 79.9657 7.31117 78.9147 7.25894C78.1014 7.21843 77.2454 7.31543 76.4631 7.53927C75.346 7.85905 74.6734 8.67661 74.4293 9.84699C73.9656 12.0684 73.4571 14.2791 72.9924 16.5005C72.8965 16.9567 72.7334 17.1528 72.2303 17.1283C71.2955 17.0846 70.3564 17.1166 69.332 17.1166Z" fill="black"/>
<path d="M5.89242 2.52197C3.88103 2.52197 1.98688 2.52197 0 2.52197C0.183339 1.72146 0.333637 0.966791 0.55002 0.231305C0.585195 0.110856 0.913496 0.0138573 1.10643 0.0127914C5.45326 -0.00106563 9.80116 0.00106592 14.148 0C14.7481 0 15.3493 0 16.0432 0C15.8556 0.864463 15.6829 1.66604 15.4974 2.51984C14.5882 2.51984 13.7067 2.51984 12.8252 2.51984C11.8669 2.51984 10.9087 2.54009 9.95039 2.51238C9.556 2.50065 9.4057 2.62537 9.32149 3.01656C8.36536 7.46998 7.38897 11.9181 6.41792 16.3683C6.36889 16.5932 6.31666 16.8171 6.25696 17.0814C5.08658 17.0814 3.9066 17.0814 2.63709 17.0814C3.71687 12.2538 4.79559 7.42841 5.89242 2.52197Z" fill="black"/>
<path d="M54.6085 8.10776C52.6163 7.10366 50.6422 6.90113 48.6222 7.52683C46.6556 8.13653 45.5087 9.50305 45.2294 11.5454C44.9864 13.3169 46.1333 14.5779 48.0754 14.8007C49.6924 14.9861 51.2114 14.6333 52.7036 14.0695C52.9008 13.9948 53.097 13.9181 53.3848 13.8083C53.3635 14.0311 53.3603 14.1931 53.3304 14.3509C53.2537 14.7516 53.0991 15.1482 53.0927 15.5479C53.0778 16.4699 52.5555 16.8302 51.7379 17.0125C49.5784 17.4943 47.4199 17.651 45.2667 17.0306C42.5817 16.2557 41.2087 13.9383 41.7492 11.1936C42.3418 8.18237 44.2999 6.40868 47.0521 5.40777C49.5613 4.49535 52.1185 4.47509 54.6884 5.20632C55.1105 5.32676 55.216 5.50904 55.1052 5.92475C54.9186 6.61973 54.7822 7.32857 54.6085 8.10776Z" fill="black"/>
<path d="M86.418 17.1164C86.9509 14.6925 87.4594 12.3794 87.9678 10.0653C88.0968 9.47801 88.2151 8.88748 88.3643 8.30549C88.3953 8.18504 88.5434 8.0081 88.6415 8.00597C89.6989 7.98465 90.7584 7.99211 91.8872 7.99211C91.7199 8.75424 91.5685 9.45989 91.4097 10.1634C90.9194 12.3389 90.4312 14.5145 89.9238 16.6858C89.8865 16.8467 89.7053 17.093 89.5838 17.0972C88.5605 17.1303 87.5361 17.1164 86.418 17.1164Z" fill="black"/>
<path d="M96.9569 6.89741C93.1185 6.89741 89.2802 6.89741 85.3906 6.89741C85.5164 6.1907 85.6411 5.48399 85.7797 4.70374C86.9554 4.70374 88.1076 4.67496 89.2556 4.71653C89.7801 4.73572 89.9613 4.53852 90.0444 4.05033C90.1969 3.16135 90.4132 2.28303 90.6296 1.27893C92.7945 3.14643 94.8976 4.96063 97.0006 6.77483C96.9868 6.8164 96.9719 6.8569 96.9569 6.89741Z" fill="black"/>
</svg>
