<svg width="75" height="40" viewBox="0 0 75 40" fill="none" xmlns="http://www.w3.org/2000/svg">
<path d="M74.5466 21.3722C74.5466 23.6216 74.6583 25.8773 74.522 28.1168C74.2887 31.953 72.4753 34.9172 69.272 37.013C66.6666 38.7187 63.8083 39.4248 60.7265 39.1733C58.4244 38.985 56.1727 38.5663 54.1419 37.3574C51.3401 35.6889 49.7292 33.1694 49.0257 30.0194C48.8931 29.4236 48.8243 28.7993 48.8219 28.1874C48.801 23.9363 48.8035 19.6863 48.8072 15.4352C48.8072 15.0252 48.7801 14.5879 48.9115 14.2163C49.0073 13.9463 49.34 13.5809 49.577 13.5722C51.329 13.5127 53.0872 13.4756 54.8381 13.5511C55.7294 13.5895 55.8768 13.8868 55.878 14.8072C55.8805 18.5418 55.8633 22.2777 55.894 26.0123C55.9013 26.8695 55.9615 27.7576 56.1948 28.5739C56.6049 30.0157 57.4938 31.1157 58.9438 31.6582C60.8653 32.3779 62.8052 32.4807 64.7156 31.678C66.55 30.9063 67.5101 29.4583 67.5396 27.4541C67.6022 23.1472 67.6255 18.8403 67.6648 14.5334C67.6709 13.81 67.7962 13.5759 68.5242 13.5549C70.2984 13.5016 72.075 13.5152 73.8492 13.5474C74.3968 13.5573 74.5674 13.981 74.5662 14.5012C74.5576 16.7915 74.5625 19.0819 74.5625 21.3722C74.5564 21.3722 74.5515 21.3722 74.5466 21.3722Z" fill="black"/>
<path d="M3.49972 13.413C4.3383 13.413 5.17688 13.4018 6.01546 13.4167C6.96945 13.4328 7.71718 13.8168 8.08183 14.7508C9.33172 17.9515 10.5669 21.1585 11.8106 24.3617C12.6333 26.4786 13.4461 28.5992 14.2981 30.705C14.5756 31.3912 14.9955 31.9462 15.8881 31.883C16.5548 31.8359 16.9637 31.4581 17.1982 30.923C17.7703 29.6125 18.2823 28.2747 18.809 26.9444C20.3769 22.9917 21.9301 19.0317 23.5127 15.0852C23.9535 13.9853 24.8461 13.4477 26.0014 13.4229C27.5141 13.3907 29.0292 13.4117 30.5418 13.4155C31.4344 13.4179 31.8752 14.0682 31.5081 14.8969C29.7769 18.8087 28.0273 22.7118 26.29 26.6198C25.2586 28.9399 24.2383 31.2649 23.2131 33.5874C22.6741 34.81 22.113 36.0276 21.1615 36.9876C19.3689 38.7961 17.1982 39.4798 14.6923 39.1144C11.6707 38.6735 9.81056 36.8315 8.62083 34.1077C6.28557 28.7603 3.91103 23.4315 1.55367 18.0952C1.0822 17.0275 0.607043 15.9597 0.139255 14.8895C-0.23031 14.0435 0.15767 13.4155 1.04291 13.4155C1.8643 13.4117 2.68201 13.413 3.49972 13.413Z" fill="black"/>
<path d="M36.3402 26.1695C36.3402 22.3531 36.3378 18.5355 36.3415 14.7191C36.3427 13.7505 36.6005 13.4495 37.5693 13.4272C39.1224 13.3925 40.678 13.3875 42.2312 13.4247C43.2122 13.4482 43.4786 13.7641 43.4798 14.7687C43.4847 22.4857 43.4835 30.2014 43.4811 37.9184C43.4811 38.6653 43.1729 39.0221 42.338 39.0444C40.6829 39.089 39.0242 39.0865 37.3691 39.0444C36.6153 39.0258 36.3402 38.6418 36.339 37.8069C36.3341 33.9286 36.3366 30.0491 36.3366 26.1708C36.339 26.1695 36.339 26.1695 36.3402 26.1695Z" fill="black"/>
<path d="M39.7857 8.36614C37.4849 8.49496 35.637 6.53536 35.6174 4.3144C35.5928 1.64132 37.8286 -0.0123177 39.7796 6.91049e-05C42.2462 0.016172 43.9823 2.01912 43.986 4.2599C43.9897 6.51802 42.0486 8.50611 39.7857 8.36614Z" fill="black"/>
</svg>
