<svg width="115" height="34" viewBox="0 0 115 34" fill="none" xmlns="http://www.w3.org/2000/svg">
<g clip-path="url(#clip0_6_3899)">
<path d="M25.1557 21.1127C24.8635 21.8879 24.3558 22.5294 23.8856 23.2634C21.3275 19.2111 18.7987 15.2067 16.2699 11.2023C16.1246 10.9714 15.9157 10.7619 15.8373 10.5096C15.0406 7.97469 13.0032 8.32763 11.0785 8.3936C10.5561 8.41175 10.7324 8.79437 10.7308 9.04836C10.7193 11.1627 10.7242 13.2771 10.7242 15.4607C10.3945 15.3452 10.2622 15.0781 10.117 14.8505C7.55226 10.8543 4.9941 6.85319 2.43757 2.85373C2.1878 2.46286 1.87762 2.16599 2.74122 2.07528C4.63821 1.87572 6.51724 2.08188 8.40607 2.09672C10.4402 2.11321 12.4776 2.20227 14.5133 2.01755C15.2071 1.95488 15.9173 2.08187 16.6193 2.07858C16.998 2.07693 17.0323 2.36555 17.1629 2.5849C19.2754 6.11597 21.3111 9.69652 23.5297 13.1616C24.2007 15.7839 24.5909 18.4657 25.1557 21.1127Z" fill="#040404"/>
<path d="M25.1667 21.1133C24.6018 18.4679 24.2117 15.7846 23.5391 13.1622C25.7577 9.55529 27.9877 5.9533 30.1785 2.32987C30.4267 1.91756 30.7205 1.95879 31.0601 1.96209C34.3692 2.00002 37.6767 2.07094 40.9858 2.06764C42.2804 2.06599 43.5717 1.96869 44.8728 2.0594C45.5765 2.10887 45.5977 2.29194 45.2728 2.80156C44.0664 4.69162 42.8632 6.58497 41.6584 8.47668C40.2822 10.6389 38.906 12.801 37.5281 14.9616C37.36 15.2255 37.2473 15.5487 36.8359 15.6592C36.8359 13.4607 36.8164 11.2969 36.849 9.13473C36.8572 8.56244 36.7135 8.36948 36.1323 8.40411C35.1838 8.46019 34.1129 8.15837 33.3146 8.51461C32.513 8.8725 32.2175 10.0105 31.7098 10.8104C29.6741 14.0182 27.6677 17.2442 25.645 20.4602C25.503 20.6878 25.3267 20.8956 25.1667 21.1133Z" fill="#040404"/>
<path d="M64.2683 19.8225C64.7107 18.3283 65.1286 16.8704 65.5759 15.4207C66.2093 13.364 66.877 11.3189 67.5007 9.25902C67.6492 8.76754 67.868 8.53169 68.4018 8.57127C68.9977 8.6158 69.6001 8.61745 70.1943 8.57127C70.8082 8.52344 70.893 8.75929 70.7135 9.28705C70.0278 11.2992 69.3601 13.3162 68.6826 15.3316C67.8484 17.8088 67.0044 20.2827 66.18 22.7632C66.0314 23.2118 65.8077 23.4295 65.3049 23.3998C64.5736 23.3569 63.8324 23.3388 63.1043 23.4047C62.4594 23.4641 62.2521 23.1013 62.0856 22.5999C61.3591 20.4311 60.6278 18.264 59.8931 16.0985C59.1405 13.8802 58.3896 11.662 57.6272 9.44868C57.4101 8.81701 57.4737 8.43933 58.2655 8.57787C58.3716 8.59601 58.4826 8.57952 58.592 8.57952C60.8547 8.57622 60.8432 8.57952 61.4881 10.7714C62.3648 13.7533 63.2594 16.7302 64.1475 19.7087C64.1475 19.7269 64.1736 19.7401 64.2683 19.8225Z" fill="#040404"/>
<path d="M81.9442 17.8477C81.9033 21.3953 79.8382 23.5987 76.2695 23.6383C72.7188 23.6762 70.6487 21.5833 70.5116 18.4101C70.3549 14.7553 72.5996 12.3903 76.1275 12.3326C79.626 12.2748 81.8838 14.4156 81.9442 17.8477ZM73.6999 18.3078C73.7081 18.4216 73.7048 18.7531 73.7554 19.0764C73.9464 20.2787 74.8182 21.1231 75.9659 21.2386C77.1054 21.354 78.1812 20.7323 78.5436 19.6734C78.9142 18.5866 78.9338 17.475 78.542 16.3832C78.0686 15.0637 76.7821 14.4684 75.4614 14.9351C74.2305 15.3689 73.6657 16.3799 73.6999 18.3078Z" fill="#040404"/>
<path d="M93.5703 12.6554C92.3933 15.8022 91.2668 18.8352 90.1241 21.8632C89.5951 23.2634 89.0956 24.6768 88.276 25.9451C87.2459 27.5433 85.3375 28.2887 83.5058 27.8055C83.2658 27.7428 83.2071 27.6274 83.2087 27.4097C83.2136 26.7005 83.2103 25.993 83.2103 25.2706C85.1138 25.645 85.8926 25.2359 86.4313 23.6362C86.5211 23.3706 86.5195 23.1447 86.397 22.861C85.6787 21.1854 84.9947 19.4949 84.3058 17.806C83.6201 16.1205 82.9426 14.4316 82.2227 12.6521C83.2838 12.6521 84.3025 12.6603 85.3179 12.6471C85.5922 12.6438 85.7064 12.789 85.7766 13.0116C86.5309 15.3981 87.2835 17.7846 88.0556 20.2321C88.4475 19.0182 88.8327 17.8225 89.2213 16.6284C89.6 15.4641 90.0049 14.3079 90.3542 13.1337C90.4587 12.7824 90.5877 12.6356 90.9599 12.6455C91.7762 12.6719 92.5908 12.6554 93.5703 12.6554Z" fill="#040404"/>
<path d="M111.019 18.8945C110.042 18.8945 109.062 18.9274 108.084 18.8829C107.436 18.8532 107.425 19.1188 107.617 19.6069C108.069 20.7515 108.954 21.2711 110.113 21.3816C111.207 21.4855 112.272 21.3255 113.28 20.8917C113.725 20.7004 113.865 20.8093 113.844 21.2744C113.754 23.1891 114.374 22.9022 112.19 23.425C110.229 23.895 108.283 23.8192 106.576 22.6548C104.403 21.1721 103.782 17.834 105.064 15.1754C106.148 12.9241 108.842 11.8653 111.449 12.5564C114.311 13.315 115.158 16.5294 114.72 18.5382C114.629 18.9588 114.374 18.8846 114.118 18.8862C113.085 18.8928 112.053 18.8879 111.019 18.8879C111.019 18.8895 111.019 18.8928 111.019 18.8945ZM111.925 16.9467C111.86 16.635 111.811 16.3991 111.761 16.1649C111.516 15.0022 110.716 14.392 109.555 14.4777C108.556 14.552 107.572 15.6042 107.527 16.6168C107.516 16.8659 107.581 16.9516 107.831 16.9516C109.18 16.9434 110.53 16.9467 111.925 16.9467Z" fill="#040404"/>
<path d="M24.1837 36.5894C23.8915 37.1666 23.7381 36.685 23.6091 36.4888C22.7667 35.2106 21.939 33.9209 21.1097 32.6328C19.1115 29.5322 17.1133 26.4299 15.1167 23.3277C14.9845 23.1231 14.8359 22.9351 14.8359 22.6614C14.8425 20.7251 14.8392 18.7905 14.8392 16.6333C16.7444 19.6449 18.5254 22.4766 20.3228 25.2969C21.3481 26.9049 22.4027 28.4931 23.4475 30.088C23.5797 30.2908 23.6907 30.5234 23.9536 30.5993C23.9699 30.9275 23.9976 31.254 24.0025 31.5822C24.0319 33.2513 23.8997 34.9269 24.1837 36.5894Z" fill="#040404"/>
<path d="M24.1739 36.5873C23.8898 34.9265 24.0204 33.2509 23.9943 31.5802C23.9894 31.2519 23.9616 30.9238 23.9453 30.5972C26.0758 27.2327 28.2046 23.8666 30.3383 20.5037C31.1104 19.2849 31.8941 18.0743 32.6777 16.8506C32.947 16.9627 32.8017 17.1821 32.8034 17.3338C32.8181 18.5427 32.7446 19.7566 32.8328 20.9589C32.9307 22.2816 32.5503 23.3734 31.8353 24.4768C29.2396 28.4861 26.7222 32.545 24.1739 36.5873Z" fill="#040404"/>
<path d="M102.619 15.4403C100.733 14.5794 98.9766 14.2693 97.6314 16.194C96.9408 17.1803 97.0779 19.2418 97.8224 20.1539C98.8606 21.4288 100.092 21.5096 102.73 20.4557C102.73 21.1979 102.722 21.9252 102.735 22.6509C102.74 22.9164 102.617 23.0417 102.395 23.139C100.276 24.0676 96.9114 23.7575 95.3083 21.8889C92.995 19.1957 93.6888 13.5024 98.4248 12.5145C99.7014 12.2473 100.945 12.3133 102.196 12.658C102.529 12.7503 102.63 12.8971 102.624 13.2237C102.607 13.9296 102.619 14.6404 102.619 15.4403Z" fill="#040404"/>
<path d="M51.4718 17.7952C51.4718 23.5066 51.4751 29.218 51.4653 34.9294C51.4653 35.256 51.6873 35.7689 51.0196 35.7458C50.3764 35.7244 50.5821 35.2213 50.5821 34.8882C50.5739 23.4374 50.5739 11.9882 50.5821 0.537347C50.5821 0.237182 50.3796 -0.20482 51.0114 -0.214716C51.6138 -0.222962 51.4702 0.169562 51.4702 0.496116C51.4718 5.60388 51.4702 10.71 51.4685 15.8178C51.4685 16.4775 51.4685 17.1355 51.4685 17.7952C51.4685 17.7952 51.4702 17.7952 51.4718 17.7952Z" fill="#040404"/>
</g>
<defs>
<clipPath id="clip0_6_3899">
<rect width="115" height="34" fill="white"/>
</clipPath>
</defs>
</svg>
